<svg width="746" height="220" viewBox="0 0 746 220" fill="none" xmlns="http://www.w3.org/2000/svg">
<rect width="746" height="220" fill="white"/>
<rect width="32" height="32" rx="6" transform="matrix(1 0 0 -1 375 103)" fill="#2596F1"/>
<path d="M408.4 95.6271C408.4 95.982 408.588 96.3103 408.894 96.4897L418.494 102.117C419.161 102.508 420 102.027 420 101.255V72.6106C420 71.869 419.221 71.3854 418.556 71.7143L417.634 72.1707L408.907 77.1128C408.594 77.2903 408.4 77.6227 408.4 77.9829V95.6271Z" fill="#2596F1"/>
<rect x="502.132" y="21" width="71.3153" height="132.214" transform="rotate(23.4067 502.132 21)" fill="#D9D9D9"/>
<g style="mix-blend-mode:lighten">
<rect x="444" y="53.1255" width="60.329" height="166.973" transform="rotate(-26.9243 444 53.1255)" fill="#EAEAEA"/>
</g>
<g style="mix-blend-mode:lighten">
<rect x="444" y="53.1255" width="11.4229" height="166.973" transform="rotate(-26.9243 444 53.1255)" fill="#F2F2F2"/>
</g>
<path d="M425 87.5H474L541 111.5H624.5" stroke="#D4973C" stroke-opacity="0.5"/>
<path d="M473.5 87.5H658.5" stroke="#D7582F" stroke-opacity="0.5" stroke-dasharray="2 2"/>
<rect x="624.192" y="83.3572" width="12.2374" height="53.0288" fill="#886D46"/>
<circle cx="619.428" cy="75.5791" r="27.0971" fill="#659369"/>
<circle cx="649.73" cy="73.2482" r="21.2698" fill="#659369"/>
<circle cx="640.989" cy="86.6511" r="21.2698" fill="#659369"/>
<circle cx="617.097" cy="71.5" r="27.0971" fill="#82B287"/>
<circle cx="631.666" cy="52.2698" r="21.2698" fill="#82B287"/>
<circle cx="647.399" cy="69.1691" r="21.2698" fill="#82B287"/>
<circle cx="638.658" cy="82.5719" r="21.2698" fill="#82B287"/>
<circle cx="610.104" cy="48.7734" r="12.5288" fill="#82B287"/>
<rect x="611.326" y="136.536" width="37.5158" height="2.98421" fill="#AAAAAA"/>
<circle r="2.2" transform="matrix(1 0 0 -1 424.8 87.2)" fill="#90BEE4"/>
<circle r="2.2" transform="matrix(1 0 0 -1 625.2 111.2)" fill="#90BEE4"/>
<path d="M589.823 111.177C589.921 111.274 590.079 111.274 590.177 111.177L591.768 109.586C591.865 109.488 591.865 109.33 591.768 109.232C591.67 109.135 591.512 109.135 591.414 109.232L590 110.646L588.586 109.232C588.488 109.135 588.33 109.135 588.232 109.232C588.135 109.33 588.135 109.488 588.232 109.586L589.823 111.177ZM589.75 88V111H590.25V88H589.75Z" fill="black"/>
<rect x="375" y="108" width="33" height="19" rx="9.5" fill="#D9D9D9"/>
<path d="M380.435 113.727L382.459 119.651H382.54L384.565 113.727H385.751L383.134 121H381.866L379.249 113.727H380.435ZM386.716 121V115.545H387.778V121H386.716ZM387.252 114.704C387.067 114.704 386.909 114.642 386.776 114.519C386.646 114.394 386.581 114.245 386.581 114.072C386.581 113.897 386.646 113.747 386.776 113.624C386.909 113.499 387.067 113.436 387.252 113.436C387.437 113.436 387.594 113.499 387.724 113.624C387.857 113.747 387.923 113.897 387.923 114.072C387.923 114.245 387.857 114.394 387.724 114.519C387.594 114.642 387.437 114.704 387.252 114.704ZM391.557 121.11C391.019 121.11 390.557 120.995 390.168 120.766C389.782 120.534 389.484 120.208 389.273 119.789C389.065 119.368 388.961 118.874 388.961 118.308C388.961 117.75 389.065 117.257 389.273 116.831C389.484 116.405 389.778 116.072 390.154 115.833C390.533 115.594 390.976 115.474 391.482 115.474C391.79 115.474 392.088 115.525 392.377 115.627C392.666 115.729 392.925 115.889 393.155 116.107C393.384 116.324 393.566 116.607 393.698 116.955C393.831 117.301 393.897 117.721 393.897 118.216V118.592H389.561V117.797H392.857C392.857 117.518 392.8 117.27 392.686 117.055C392.572 116.837 392.413 116.665 392.207 116.54C392.003 116.414 391.764 116.352 391.489 116.352C391.191 116.352 390.931 116.425 390.708 116.572C390.488 116.716 390.317 116.906 390.197 117.14C390.078 117.372 390.019 117.624 390.019 117.896V118.518C390.019 118.882 390.083 119.192 390.211 119.448C390.341 119.704 390.522 119.899 390.754 120.034C390.986 120.167 391.257 120.233 391.567 120.233C391.769 120.233 391.952 120.205 392.118 120.148C392.284 120.089 392.427 120.001 392.548 119.885C392.668 119.769 392.761 119.626 392.825 119.455L393.83 119.636C393.749 119.932 393.605 120.192 393.396 120.414C393.19 120.634 392.931 120.806 392.619 120.929C392.308 121.05 391.955 121.11 391.557 121.11ZM396.248 121L394.643 115.545H395.74L396.809 119.551H396.862L397.935 115.545H399.032L400.097 119.533H400.151L401.212 115.545H402.31L400.708 121H399.625L398.517 117.062H398.435L397.327 121H396.248Z" fill="black"/>
<rect x="413" y="179" width="139" height="19" rx="9.5" fill="#D9D9D9"/>
<path d="M424.834 185.839V184.894H430.463V185.839H428.194V192.167H427.1V185.839H424.834ZM432.683 188.928V192.167H431.621V184.894H432.669V187.6H432.736C432.864 187.306 433.059 187.073 433.322 186.9C433.585 186.728 433.928 186.641 434.352 186.641C434.726 186.641 435.053 186.718 435.332 186.872C435.614 187.026 435.832 187.255 435.986 187.561C436.142 187.864 436.22 188.243 436.22 188.697V192.167H435.158V188.825C435.158 188.425 435.055 188.115 434.849 187.895C434.643 187.672 434.357 187.561 433.99 187.561C433.739 187.561 433.514 187.614 433.315 187.721C433.119 187.827 432.964 187.983 432.85 188.189C432.739 188.393 432.683 188.639 432.683 188.928ZM437.637 192.167V186.712H438.699V192.167H437.637ZM438.173 185.871C437.988 185.871 437.83 185.809 437.697 185.686C437.567 185.56 437.502 185.411 437.502 185.238C437.502 185.063 437.567 184.914 437.697 184.791C437.83 184.665 437.988 184.603 438.173 184.603C438.358 184.603 438.515 184.665 438.645 184.791C438.778 184.914 438.844 185.063 438.844 185.238C438.844 185.411 438.778 185.56 438.645 185.686C438.515 185.809 438.358 185.871 438.173 185.871ZM442.425 192.277C441.897 192.277 441.442 192.157 441.061 191.918C440.682 191.677 440.391 191.344 440.187 190.92C439.984 190.496 439.882 190.011 439.882 189.464C439.882 188.91 439.986 188.421 440.195 187.998C440.403 187.572 440.696 187.239 441.075 187C441.454 186.761 441.9 186.641 442.414 186.641C442.828 186.641 443.198 186.718 443.522 186.872C443.846 187.023 444.108 187.237 444.307 187.511C444.508 187.786 444.628 188.107 444.665 188.473H443.632C443.575 188.218 443.445 187.998 443.241 187.813C443.04 187.628 442.77 187.536 442.432 187.536C442.136 187.536 441.877 187.614 441.654 187.77C441.434 187.924 441.262 188.144 441.139 188.431C441.016 188.715 440.955 189.051 440.955 189.439C440.955 189.837 441.015 190.18 441.136 190.469C441.256 190.758 441.427 190.982 441.647 191.14C441.87 191.299 442.131 191.378 442.432 191.378C442.633 191.378 442.815 191.342 442.979 191.268C443.144 191.192 443.283 191.085 443.394 190.945C443.508 190.805 443.587 190.637 443.632 190.441H444.665C444.628 190.794 444.513 191.108 444.321 191.385C444.129 191.662 443.872 191.88 443.55 192.039C443.231 192.197 442.856 192.277 442.425 192.277ZM446.777 190.317L446.77 189.02H446.955L449.128 186.712H450.4L447.921 189.34H447.754L446.777 190.317ZM445.801 192.167V184.894H446.863V192.167H445.801ZM449.246 192.167L447.292 189.574L448.024 188.832L450.549 192.167H449.246ZM454.099 192.167V184.894H456.691C457.255 184.894 457.722 184.991 458.094 185.185C458.468 185.379 458.747 185.648 458.932 185.991C459.117 186.332 459.209 186.726 459.209 187.174C459.209 187.619 459.116 188.011 458.929 188.349C458.744 188.685 458.465 188.947 458.091 189.134C457.719 189.321 457.251 189.415 456.688 189.415H454.724V188.47H456.588C456.944 188.47 457.232 188.419 457.455 188.317C457.68 188.215 457.844 188.067 457.948 187.873C458.053 187.679 458.105 187.446 458.105 187.174C458.105 186.899 458.051 186.661 457.945 186.46C457.841 186.259 457.676 186.105 457.451 185.998C457.229 185.889 456.936 185.835 456.574 185.835H455.196V192.167H454.099ZM457.689 188.885L459.486 192.167H458.236L456.475 188.885H457.689ZM462.742 192.277C462.204 192.277 461.741 192.162 461.353 191.932C460.967 191.7 460.669 191.375 460.458 190.956C460.25 190.534 460.146 190.041 460.146 189.475C460.146 188.916 460.25 188.424 460.458 187.998C460.669 187.572 460.963 187.239 461.339 187C461.718 186.761 462.16 186.641 462.667 186.641C462.975 186.641 463.273 186.692 463.562 186.794C463.851 186.896 464.11 187.055 464.34 187.273C464.569 187.491 464.75 187.774 464.883 188.122C465.016 188.468 465.082 188.888 465.082 189.383V189.759H460.746V188.964H464.041C464.041 188.684 463.985 188.437 463.871 188.221C463.757 188.004 463.597 187.832 463.391 187.706C463.188 187.581 462.949 187.518 462.674 187.518C462.376 187.518 462.115 187.592 461.893 187.738C461.673 187.883 461.502 188.072 461.382 188.307C461.263 188.539 461.204 188.791 461.204 189.063V189.684C461.204 190.049 461.268 190.359 461.396 190.615C461.526 190.871 461.707 191.066 461.939 191.201C462.171 191.333 462.442 191.4 462.752 191.4C462.954 191.4 463.137 191.371 463.303 191.314C463.468 191.255 463.612 191.168 463.732 191.052C463.853 190.936 463.945 190.792 464.009 190.622L465.014 190.803C464.934 191.099 464.789 191.358 464.581 191.581C464.375 191.801 464.116 191.973 463.803 192.096C463.493 192.216 463.139 192.277 462.742 192.277ZM468.856 186.712V187.564H465.773V186.712H468.856ZM466.619 192.167V186.08C466.619 185.739 466.693 185.456 466.842 185.231C466.991 185.004 467.189 184.835 467.435 184.723C467.682 184.61 467.949 184.553 468.238 184.553C468.451 184.553 468.633 184.571 468.785 184.606C468.936 184.639 469.049 184.67 469.122 184.699L468.874 185.558C468.824 185.544 468.76 185.527 468.682 185.508C468.604 185.487 468.509 185.476 468.398 185.476C468.14 185.476 467.955 185.54 467.844 185.668C467.735 185.796 467.68 185.981 467.68 186.222V192.167H466.619ZM469.951 192.167V186.712H470.978V187.579H471.034C471.134 187.285 471.309 187.054 471.56 186.886C471.813 186.716 472.1 186.63 472.419 186.63C472.486 186.63 472.564 186.633 472.654 186.638C472.746 186.642 472.818 186.648 472.87 186.655V187.671C472.828 187.659 472.752 187.646 472.643 187.632C472.534 187.615 472.425 187.607 472.316 187.607C472.065 187.607 471.842 187.66 471.645 187.767C471.451 187.871 471.297 188.017 471.184 188.204C471.07 188.388 471.013 188.599 471.013 188.836V192.167H469.951ZM475.328 192.287C474.982 192.287 474.67 192.223 474.39 192.096C474.111 191.965 473.89 191.777 473.726 191.531C473.565 191.285 473.485 190.983 473.485 190.625C473.485 190.318 473.544 190.064 473.662 189.866C473.781 189.667 473.94 189.509 474.142 189.393C474.343 189.277 474.568 189.19 474.816 189.13C475.065 189.071 475.318 189.026 475.576 188.996C475.903 188.958 476.168 188.927 476.372 188.903C476.575 188.877 476.723 188.836 476.816 188.779C476.908 188.722 476.954 188.63 476.954 188.502V188.477C476.954 188.167 476.867 187.927 476.691 187.756C476.519 187.586 476.261 187.5 475.917 187.5C475.56 187.5 475.278 187.58 475.072 187.738C474.868 187.895 474.728 188.069 474.649 188.26L473.652 188.033C473.77 187.702 473.943 187.434 474.17 187.231C474.4 187.025 474.664 186.875 474.962 186.783C475.26 186.688 475.574 186.641 475.903 186.641C476.121 186.641 476.352 186.667 476.596 186.719C476.842 186.769 477.071 186.861 477.284 186.996C477.5 187.131 477.676 187.324 477.814 187.575C477.951 187.824 478.02 188.147 478.02 188.545V192.167H476.983V191.421H476.94C476.871 191.558 476.768 191.693 476.631 191.826C476.494 191.958 476.317 192.068 476.102 192.156C475.886 192.244 475.628 192.287 475.328 192.287ZM475.559 191.435C475.852 191.435 476.103 191.377 476.311 191.261C476.522 191.145 476.682 190.994 476.791 190.807C476.902 190.617 476.958 190.415 476.958 190.199V189.496C476.92 189.534 476.846 189.57 476.738 189.603C476.631 189.634 476.509 189.661 476.372 189.684C476.234 189.706 476.101 189.726 475.971 189.745C475.84 189.761 475.731 189.776 475.644 189.787C475.438 189.813 475.25 189.857 475.079 189.919C474.911 189.98 474.776 190.069 474.674 190.185C474.575 190.299 474.525 190.45 474.525 190.64C474.525 190.902 474.622 191.101 474.816 191.236C475.011 191.369 475.258 191.435 475.559 191.435ZM481.731 192.277C481.203 192.277 480.749 192.157 480.368 191.918C479.989 191.677 479.698 191.344 479.494 190.92C479.291 190.496 479.189 190.011 479.189 189.464C479.189 188.91 479.293 188.421 479.501 187.998C479.71 187.572 480.003 187.239 480.382 187C480.761 186.761 481.207 186.641 481.721 186.641C482.135 186.641 482.504 186.718 482.829 186.872C483.153 187.023 483.415 187.237 483.613 187.511C483.815 187.786 483.934 188.107 483.972 188.473H482.939C482.882 188.218 482.752 187.998 482.548 187.813C482.347 187.628 482.077 187.536 481.738 187.536C481.443 187.536 481.183 187.614 480.961 187.77C480.741 187.924 480.569 188.144 480.446 188.431C480.323 188.715 480.261 189.051 480.261 189.439C480.261 189.837 480.322 190.18 480.442 190.469C480.563 190.758 480.733 190.982 480.954 191.14C481.176 191.299 481.438 191.378 481.738 191.378C481.94 191.378 482.122 191.342 482.285 191.268C482.451 191.192 482.59 191.085 482.701 190.945C482.814 190.805 482.894 190.637 482.939 190.441H483.972C483.934 190.794 483.819 191.108 483.628 191.385C483.436 191.662 483.179 191.88 482.857 192.039C482.537 192.197 482.162 192.277 481.731 192.277ZM487.654 186.712V187.564H484.674V186.712H487.654ZM485.473 185.405H486.535V190.565C486.535 190.771 486.566 190.926 486.627 191.03C486.689 191.132 486.768 191.202 486.865 191.24C486.965 191.275 487.073 191.293 487.189 191.293C487.274 191.293 487.348 191.287 487.412 191.275C487.476 191.263 487.526 191.254 487.561 191.247L487.753 192.124C487.692 192.148 487.604 192.171 487.49 192.195C487.377 192.221 487.235 192.235 487.064 192.238C486.785 192.242 486.524 192.193 486.283 192.089C486.042 191.984 485.846 191.823 485.697 191.606C485.548 191.388 485.473 191.114 485.473 190.785V185.405ZM488.828 192.167V186.712H489.89V192.167H488.828ZM489.365 185.871C489.18 185.871 489.021 185.809 488.889 185.686C488.758 185.56 488.693 185.411 488.693 185.238C488.693 185.063 488.758 184.914 488.889 184.791C489.021 184.665 489.18 184.603 489.365 184.603C489.549 184.603 489.707 184.665 489.837 184.791C489.969 184.914 490.036 185.063 490.036 185.238C490.036 185.411 489.969 185.56 489.837 185.686C489.707 185.809 489.549 185.871 489.365 185.871ZM495.985 186.712L494.007 192.167H492.87L490.889 186.712H492.029L493.41 190.91H493.467L494.845 186.712H495.985ZM499.148 192.277C498.61 192.277 498.148 192.162 497.759 191.932C497.373 191.7 497.075 191.375 496.865 190.956C496.656 190.534 496.552 190.041 496.552 189.475C496.552 188.916 496.656 188.424 496.865 187.998C497.075 187.572 497.369 187.239 497.745 187C498.124 186.761 498.567 186.641 499.073 186.641C499.381 186.641 499.679 186.692 499.968 186.794C500.257 186.896 500.516 187.055 500.746 187.273C500.976 187.491 501.157 187.774 501.289 188.122C501.422 188.468 501.488 188.888 501.488 189.383V189.759H497.152V188.964H500.448C500.448 188.684 500.391 188.437 500.277 188.221C500.164 188.004 500.004 187.832 499.798 187.706C499.594 187.581 499.355 187.518 499.08 187.518C498.782 187.518 498.522 187.592 498.299 187.738C498.079 187.883 497.909 188.072 497.788 188.307C497.669 188.539 497.61 188.791 497.61 189.063V189.684C497.61 190.049 497.674 190.359 497.802 190.615C497.932 190.871 498.113 191.066 498.345 191.201C498.577 191.333 498.848 191.4 499.159 191.4C499.36 191.4 499.543 191.371 499.709 191.314C499.875 191.255 500.018 191.168 500.139 191.052C500.259 190.936 500.352 190.792 500.416 190.622L501.421 190.803C501.34 191.099 501.196 191.358 500.987 191.581C500.781 191.801 500.522 191.973 500.21 192.096C499.9 192.216 499.546 192.277 499.148 192.277ZM511.715 188.53C511.715 189.307 511.573 189.974 511.289 190.533C511.005 191.089 510.616 191.518 510.121 191.819C509.628 192.117 509.069 192.266 508.441 192.266C507.811 192.266 507.249 192.117 506.754 191.819C506.262 191.518 505.874 191.088 505.59 190.53C505.306 189.971 505.164 189.304 505.164 188.53C505.164 187.754 505.306 187.087 505.59 186.531C505.874 185.972 506.262 185.544 506.754 185.246C507.249 184.945 507.811 184.795 508.441 184.795C509.069 184.795 509.628 184.945 510.121 185.246C510.616 185.544 511.005 185.972 511.289 186.531C511.573 187.087 511.715 187.754 511.715 188.53ZM510.629 188.53C510.629 187.938 510.533 187.44 510.341 187.035C510.152 186.628 509.891 186.32 509.56 186.112C509.231 185.901 508.858 185.796 508.441 185.796C508.022 185.796 507.648 185.901 507.319 186.112C506.99 186.32 506.73 186.628 506.538 187.035C506.348 187.44 506.254 187.938 506.254 188.53C506.254 189.122 506.348 189.622 506.538 190.029C506.73 190.434 506.99 190.741 507.319 190.952C507.648 191.161 508.022 191.265 508.441 191.265C508.858 191.265 509.231 191.161 509.56 190.952C509.891 190.741 510.152 190.434 510.341 190.029C510.533 189.622 510.629 189.122 510.629 188.53ZM513.083 192.167V184.894H514.145V187.596H514.209C514.271 187.483 514.359 187.351 514.475 187.202C514.591 187.053 514.752 186.923 514.958 186.812C515.164 186.698 515.437 186.641 515.775 186.641C516.216 186.641 516.609 186.752 516.954 186.975C517.3 187.197 517.571 187.518 517.767 187.937C517.966 188.356 518.066 188.861 518.066 189.45C518.066 190.04 517.967 190.545 517.771 190.966C517.574 191.385 517.305 191.709 516.961 191.936C516.618 192.161 516.226 192.273 515.786 192.273C515.454 192.273 515.183 192.218 514.973 192.106C514.764 191.995 514.601 191.865 514.483 191.716C514.364 191.567 514.273 191.434 514.209 191.318H514.12V192.167H513.083ZM514.124 189.439C514.124 189.823 514.18 190.159 514.291 190.448C514.402 190.737 514.563 190.963 514.774 191.126C514.984 191.287 515.243 191.368 515.548 191.368C515.865 191.368 516.13 191.284 516.343 191.116C516.556 190.945 516.717 190.714 516.826 190.423C516.938 190.132 516.993 189.804 516.993 189.439C516.993 189.08 516.939 188.756 516.83 188.47C516.723 188.183 516.562 187.957 516.347 187.792C516.134 187.626 515.868 187.543 515.548 187.543C515.24 187.543 514.98 187.622 514.767 187.781C514.556 187.94 514.396 188.161 514.287 188.445C514.178 188.729 514.124 189.061 514.124 189.439ZM519.258 186.712H520.32V192.522C520.32 192.886 520.253 193.194 520.121 193.445C519.991 193.696 519.797 193.887 519.539 194.017C519.283 194.147 518.967 194.212 518.59 194.212C518.552 194.212 518.517 194.212 518.484 194.212C518.448 194.212 518.412 194.211 518.374 194.209V193.296C518.407 193.296 518.436 193.296 518.463 193.296C518.486 193.296 518.513 193.296 518.544 193.296C518.795 193.296 518.976 193.228 519.088 193.094C519.201 192.961 519.258 192.768 519.258 192.515V186.712ZM519.784 185.871C519.599 185.871 519.44 185.809 519.308 185.686C519.177 185.56 519.112 185.411 519.112 185.238C519.112 185.063 519.177 184.914 519.308 184.791C519.44 184.665 519.599 184.603 519.784 184.603C519.968 184.603 520.126 184.665 520.256 184.791C520.388 184.914 520.455 185.063 520.455 185.238C520.455 185.411 520.388 185.56 520.256 185.686C520.126 185.809 519.968 185.871 519.784 185.871ZM524.099 192.277C523.562 192.277 523.099 192.162 522.711 191.932C522.325 191.7 522.026 191.375 521.816 190.956C521.607 190.534 521.503 190.041 521.503 189.475C521.503 188.916 521.607 188.424 521.816 187.998C522.026 187.572 522.32 187.239 522.696 187C523.075 186.761 523.518 186.641 524.024 186.641C524.332 186.641 524.631 186.692 524.919 186.794C525.208 186.896 525.467 187.055 525.697 187.273C525.927 187.491 526.108 187.774 526.24 188.122C526.373 188.468 526.439 188.888 526.439 189.383V189.759H522.103V188.964H525.399C525.399 188.684 525.342 188.437 525.228 188.221C525.115 188.004 524.955 187.832 524.749 187.706C524.545 187.581 524.306 187.518 524.032 187.518C523.733 187.518 523.473 187.592 523.25 187.738C523.03 187.883 522.86 188.072 522.739 188.307C522.621 188.539 522.561 188.791 522.561 189.063V189.684C522.561 190.049 522.625 190.359 522.753 190.615C522.883 190.871 523.064 191.066 523.296 191.201C523.529 191.333 523.8 191.4 524.11 191.4C524.311 191.4 524.494 191.371 524.66 191.314C524.826 191.255 524.969 191.168 525.09 191.052C525.211 190.936 525.303 190.792 525.367 190.622L526.372 190.803C526.291 191.099 526.147 191.358 525.939 191.581C525.733 191.801 525.473 191.973 525.161 192.096C524.851 192.216 524.497 192.277 524.099 192.277ZM529.915 192.277C529.387 192.277 528.932 192.157 528.551 191.918C528.173 191.677 527.881 191.344 527.678 190.92C527.474 190.496 527.372 190.011 527.372 189.464C527.372 188.91 527.476 188.421 527.685 187.998C527.893 187.572 528.187 187.239 528.565 187C528.944 186.761 529.391 186.641 529.904 186.641C530.319 186.641 530.688 186.718 531.012 186.872C531.337 187.023 531.598 187.237 531.797 187.511C531.998 187.786 532.118 188.107 532.156 188.473H531.122C531.065 188.218 530.935 187.998 530.732 187.813C530.53 187.628 530.261 187.536 529.922 187.536C529.626 187.536 529.367 187.614 529.144 187.77C528.924 187.924 528.753 188.144 528.629 188.431C528.506 188.715 528.445 189.051 528.445 189.439C528.445 189.837 528.505 190.18 528.626 190.469C528.747 190.758 528.917 190.982 529.137 191.14C529.36 191.299 529.621 191.378 529.922 191.378C530.123 191.378 530.306 191.342 530.469 191.268C530.635 191.192 530.773 191.085 530.884 190.945C530.998 190.805 531.077 190.637 531.122 190.441H532.156C532.118 190.794 532.003 191.108 531.811 191.385C531.619 191.662 531.363 191.88 531.041 192.039C530.721 192.197 530.346 192.277 529.915 192.277ZM535.837 186.712V187.564H532.858V186.712H535.837ZM533.657 185.405H534.719V190.565C534.719 190.771 534.75 190.926 534.811 191.03C534.873 191.132 534.952 191.202 535.049 191.24C535.148 191.275 535.256 191.293 535.372 191.293C535.457 191.293 535.532 191.287 535.596 191.275C535.66 191.263 535.709 191.254 535.745 191.247L535.937 192.124C535.875 192.148 535.788 192.171 535.674 192.195C535.56 192.221 535.418 192.235 535.248 192.238C534.968 192.242 534.708 192.193 534.467 192.089C534.225 191.984 534.03 191.823 533.881 191.606C533.732 191.388 533.657 191.114 533.657 190.785V185.405Z" fill="black"/>
<rect width="32" height="32" rx="6" transform="matrix(1 0 0 -1 40 103)" fill="#2596F1"/>
<path d="M73.3999 95.6271C73.3999 95.982 73.588 96.3103 73.8942 96.4897L83.4942 102.117C84.1608 102.508 84.9999 102.027 84.9999 101.255V72.6106C84.9999 71.869 84.221 71.3854 83.5564 71.7143L82.6341 72.1707L73.9071 77.1128C73.5937 77.2903 73.3999 77.6227 73.3999 77.9829V95.6271Z" fill="#2596F1"/>
<rect x="167.132" y="21" width="5.42295" height="132.214" transform="rotate(23.4067 167.132 21)" fill="#D9D9D9"/>
<g style="mix-blend-mode:lighten">
<rect x="109" y="53.1255" width="60.329" height="166.973" transform="rotate(-26.9243 109 53.1255)" fill="#EAEAEA"/>
</g>
<g style="mix-blend-mode:lighten">
<rect x="109" y="53.1255" width="11.4229" height="166.973" transform="rotate(-26.9243 109 53.1255)" fill="#F2F2F2"/>
</g>
<path d="M90 87.5H139L143 89H261.5" stroke="#D4973C" stroke-opacity="0.5"/>
<path d="M138.5 87.5H323.5" stroke="#D7582F" stroke-opacity="0.5" stroke-dasharray="2 2"/>
<rect x="289.192" y="83.3572" width="12.2374" height="53.0288" fill="#886D46"/>
<circle cx="284.428" cy="75.5791" r="27.0971" fill="#659369"/>
<circle cx="314.73" cy="73.2482" r="21.2698" fill="#659369"/>
<circle cx="305.989" cy="86.6511" r="21.2698" fill="#659369"/>
<circle cx="282.097" cy="71.5" r="27.0971" fill="#82B287"/>
<circle cx="296.666" cy="52.2698" r="21.2698" fill="#82B287"/>
<circle cx="312.399" cy="69.1691" r="21.2698" fill="#82B287"/>
<circle cx="303.658" cy="82.5719" r="21.2698" fill="#82B287"/>
<circle cx="275.104" cy="48.7734" r="12.5288" fill="#82B287"/>
<rect x="276.326" y="136.536" width="37.5158" height="2.98421" fill="#AAAAAA"/>
<circle r="2.2" transform="matrix(1 0 0 -1 89.8001 87.2)" fill="#90BEE4"/>
<circle r="2.2" transform="matrix(1 0 0 -1 262.2 89.2)" fill="#90BEE4"/>
<rect x="40" y="108" width="33" height="19" rx="9.5" fill="#D9D9D9"/>
<path d="M45.4347 113.727L47.4588 119.651H47.5405L49.5646 113.727H50.7507L48.1335 121H46.8658L44.2486 113.727H45.4347ZM51.7157 121V115.545H52.7775V121H51.7157ZM52.252 114.704C52.0673 114.704 51.9087 114.642 51.7761 114.519C51.6459 114.394 51.5808 114.245 51.5808 114.072C51.5808 113.897 51.6459 113.747 51.7761 113.624C51.9087 113.499 52.0673 113.436 52.252 113.436C52.4366 113.436 52.594 113.499 52.7243 113.624C52.8568 113.747 52.9231 113.897 52.9231 114.072C52.9231 114.245 52.8568 114.394 52.7243 114.519C52.594 114.642 52.4366 114.704 52.252 114.704ZM56.5568 121.11C56.0194 121.11 55.5566 120.995 55.1683 120.766C54.7824 120.534 54.4841 120.208 54.2734 119.789C54.0651 119.368 53.9609 118.874 53.9609 118.308C53.9609 117.75 54.0651 117.257 54.2734 116.831C54.4841 116.405 54.7777 116.072 55.1541 115.833C55.5329 115.594 55.9756 115.474 56.4822 115.474C56.79 115.474 57.0883 115.525 57.3771 115.627C57.666 115.729 57.9252 115.889 58.1548 116.107C58.3845 116.324 58.5656 116.607 58.6982 116.955C58.8307 117.301 58.897 117.721 58.897 118.216V118.592H54.5611V117.797H57.8565C57.8565 117.518 57.7997 117.27 57.6861 117.055C57.5724 116.837 57.4126 116.665 57.2067 116.54C57.0031 116.414 56.764 116.352 56.4893 116.352C56.1911 116.352 55.9306 116.425 55.7081 116.572C55.4879 116.716 55.3175 116.906 55.1967 117.14C55.0784 117.372 55.0192 117.624 55.0192 117.896V118.518C55.0192 118.882 55.0831 119.192 55.2109 119.448C55.3411 119.704 55.5223 119.899 55.7543 120.034C55.9863 120.167 56.2573 120.233 56.5675 120.233C56.7687 120.233 56.9522 120.205 57.1179 120.148C57.2836 120.089 57.4268 120.001 57.5476 119.885C57.6683 119.769 57.7607 119.626 57.8246 119.455L58.8295 119.636C58.7491 119.932 58.6046 120.192 58.3963 120.414C58.1903 120.634 57.9311 120.806 57.6186 120.929C57.3085 121.05 56.9545 121.11 56.5568 121.11ZM61.2479 121L59.6428 115.545H60.7401L61.8089 119.551H61.8622L62.9347 115.545H64.032L65.0973 119.533H65.1506L66.2124 115.545H67.3097L65.7081 121H64.625L63.517 117.062H63.4354L62.3274 121H61.2479Z" fill="black"/>
<rect x="176" y="144" width="171.776" height="19" rx="9.5" fill="#D9D9D9"/>
<path d="M186.236 151.638C186.198 151.302 186.042 151.041 185.767 150.857C185.493 150.67 185.147 150.576 184.731 150.576C184.432 150.576 184.174 150.623 183.956 150.718C183.739 150.81 183.569 150.938 183.449 151.102C183.33 151.263 183.271 151.446 183.271 151.652C183.271 151.825 183.311 151.974 183.392 152.099C183.475 152.225 183.582 152.33 183.715 152.415C183.85 152.498 183.994 152.568 184.148 152.625C184.302 152.679 184.45 152.724 184.592 152.76L185.302 152.945C185.534 153.001 185.772 153.078 186.016 153.175C186.26 153.272 186.486 153.4 186.694 153.559C186.903 153.718 187.071 153.914 187.199 154.148C187.329 154.383 187.394 154.663 187.394 154.99C187.394 155.402 187.287 155.768 187.074 156.087C186.864 156.407 186.557 156.659 186.155 156.844C185.754 157.028 185.27 157.121 184.702 157.121C184.158 157.121 183.686 157.034 183.289 156.862C182.891 156.689 182.58 156.444 182.355 156.126C182.13 155.807 182.006 155.428 181.982 154.99H183.083C183.104 155.253 183.189 155.472 183.338 155.647C183.49 155.82 183.683 155.949 183.917 156.034C184.154 156.117 184.413 156.158 184.695 156.158C185.005 156.158 185.281 156.11 185.522 156.013C185.766 155.913 185.958 155.776 186.098 155.601C186.237 155.423 186.307 155.216 186.307 154.979C186.307 154.764 186.246 154.588 186.123 154.45C186.002 154.313 185.837 154.199 185.629 154.109C185.423 154.019 185.19 153.94 184.929 153.871L184.07 153.637C183.488 153.478 183.026 153.245 182.685 152.938C182.347 152.63 182.177 152.223 182.177 151.716C182.177 151.297 182.291 150.931 182.518 150.619C182.745 150.306 183.053 150.063 183.441 149.891C183.83 149.715 184.268 149.628 184.755 149.628C185.248 149.628 185.682 149.714 186.059 149.887C186.437 150.06 186.736 150.298 186.954 150.601C187.171 150.902 187.285 151.247 187.294 151.638H186.236ZM190.207 157.121C189.862 157.121 189.549 157.057 189.27 156.929C188.99 156.799 188.769 156.611 188.606 156.364C188.445 156.118 188.364 155.816 188.364 155.459C188.364 155.151 188.423 154.898 188.542 154.699C188.66 154.5 188.82 154.343 189.021 154.227C189.222 154.111 189.447 154.023 189.696 153.964C189.944 153.905 190.198 153.86 190.456 153.829C190.783 153.791 191.048 153.76 191.251 153.737C191.455 153.71 191.603 153.669 191.695 153.612C191.788 153.555 191.834 153.463 191.834 153.335V153.31C191.834 153 191.746 152.76 191.571 152.589C191.398 152.419 191.14 152.334 190.797 152.334C190.439 152.334 190.158 152.413 189.952 152.572C189.748 152.728 189.607 152.902 189.529 153.094L188.531 152.866C188.649 152.535 188.822 152.268 189.05 152.064C189.279 151.858 189.543 151.709 189.841 151.616C190.14 151.522 190.453 151.474 190.783 151.474C191 151.474 191.231 151.5 191.475 151.553C191.721 151.602 191.951 151.695 192.164 151.83C192.379 151.964 192.556 152.157 192.693 152.408C192.83 152.657 192.899 152.98 192.899 153.378V157H191.862V156.254H191.819C191.751 156.392 191.648 156.527 191.511 156.659C191.373 156.792 191.197 156.902 190.981 156.989C190.766 157.077 190.508 157.121 190.207 157.121ZM190.438 156.268C190.732 156.268 190.983 156.21 191.191 156.094C191.402 155.978 191.561 155.827 191.67 155.64C191.782 155.451 191.837 155.248 191.837 155.033V154.33C191.799 154.367 191.726 154.403 191.617 154.436C191.511 154.467 191.389 154.494 191.251 154.518C191.114 154.539 190.98 154.559 190.85 154.578C190.72 154.595 190.611 154.609 190.523 154.621C190.317 154.647 190.129 154.691 189.959 154.752C189.791 154.814 189.656 154.902 189.554 155.018C189.454 155.132 189.405 155.284 189.405 155.473C189.405 155.736 189.502 155.935 189.696 156.07C189.89 156.202 190.137 156.268 190.438 156.268ZM194.313 157V151.545H195.332V152.433H195.4C195.514 152.133 195.699 151.898 195.957 151.73C196.215 151.56 196.524 151.474 196.884 151.474C197.249 151.474 197.554 151.56 197.8 151.73C198.049 151.901 198.233 152.135 198.351 152.433H198.408C198.538 152.142 198.745 151.91 199.029 151.737C199.313 151.562 199.652 151.474 200.045 151.474C200.54 151.474 200.943 151.629 201.256 151.94C201.571 152.25 201.728 152.717 201.728 153.342V157H200.666V153.442C200.666 153.072 200.566 152.805 200.364 152.639C200.163 152.473 199.923 152.391 199.644 152.391C199.298 152.391 199.029 152.497 198.837 152.71C198.646 152.921 198.55 153.192 198.55 153.523V157H197.492V153.374C197.492 153.078 197.399 152.84 197.215 152.661C197.03 152.481 196.79 152.391 196.494 152.391C196.292 152.391 196.107 152.444 195.936 152.55C195.768 152.655 195.632 152.8 195.528 152.987C195.426 153.174 195.375 153.391 195.375 153.637V157H194.313ZM203.151 159.045V151.545H204.188V152.43H204.277C204.338 152.316 204.427 152.185 204.543 152.036C204.659 151.886 204.82 151.756 205.026 151.645C205.232 151.531 205.504 151.474 205.843 151.474C206.283 151.474 206.676 151.586 207.022 151.808C207.368 152.031 207.639 152.352 207.835 152.771C208.034 153.19 208.133 153.694 208.133 154.283C208.133 154.873 208.035 155.378 207.839 155.8C207.642 156.219 207.372 156.542 207.029 156.769C206.686 156.994 206.294 157.107 205.854 157.107C205.522 157.107 205.251 157.051 205.04 156.94C204.832 156.828 204.669 156.698 204.55 156.549C204.432 156.4 204.341 156.267 204.277 156.151H204.213V159.045H203.151ZM204.192 154.273C204.192 154.656 204.247 154.992 204.359 155.281C204.47 155.57 204.631 155.796 204.841 155.96C205.052 156.121 205.31 156.201 205.616 156.201C205.933 156.201 206.198 156.117 206.411 155.949C206.624 155.778 206.785 155.548 206.894 155.256C207.005 154.965 207.061 154.637 207.061 154.273C207.061 153.913 207.007 153.59 206.898 153.303C206.791 153.017 206.63 152.791 206.415 152.625C206.202 152.459 205.935 152.376 205.616 152.376C205.308 152.376 205.047 152.456 204.834 152.614C204.624 152.773 204.464 152.994 204.355 153.278C204.246 153.562 204.192 153.894 204.192 154.273ZM210.385 149.727V157H209.323V149.727H210.385ZM211.813 157V151.545H212.875V157H211.813ZM212.349 150.704C212.165 150.704 212.006 150.642 211.874 150.519C211.743 150.394 211.678 150.245 211.678 150.072C211.678 149.897 211.743 149.747 211.874 149.624C212.006 149.499 212.165 149.436 212.349 149.436C212.534 149.436 212.692 149.499 212.822 149.624C212.954 149.747 213.021 149.897 213.021 150.072C213.021 150.245 212.954 150.394 212.822 150.519C212.692 150.642 212.534 150.704 212.349 150.704ZM215.365 153.761V157H214.304V151.545H215.323V152.433H215.39C215.516 152.144 215.712 151.912 215.98 151.737C216.25 151.562 216.589 151.474 216.999 151.474C217.37 151.474 217.696 151.553 217.975 151.709C218.255 151.863 218.471 152.092 218.625 152.398C218.779 152.703 218.856 153.081 218.856 153.531V157H217.794V153.658C217.794 153.263 217.691 152.954 217.485 152.732C217.279 152.507 216.996 152.394 216.637 152.394C216.39 152.394 216.171 152.447 215.98 152.554C215.79 152.661 215.64 152.817 215.529 153.023C215.42 153.226 215.365 153.473 215.365 153.761ZM222.567 159.159C222.134 159.159 221.761 159.102 221.448 158.989C221.138 158.875 220.885 158.725 220.688 158.538C220.492 158.351 220.345 158.146 220.248 157.923L221.161 157.547C221.225 157.651 221.31 157.761 221.416 157.877C221.525 157.996 221.672 158.096 221.857 158.179C222.044 158.262 222.284 158.303 222.578 158.303C222.98 158.303 223.313 158.205 223.576 158.009C223.838 157.814 223.97 157.504 223.97 157.078V156.006H223.902C223.838 156.122 223.746 156.251 223.625 156.393C223.507 156.535 223.344 156.658 223.135 156.762C222.927 156.866 222.656 156.918 222.322 156.918C221.891 156.918 221.503 156.818 221.157 156.616C220.814 156.413 220.542 156.113 220.34 155.718C220.142 155.32 220.042 154.831 220.042 154.251C220.042 153.671 220.14 153.174 220.337 152.76C220.536 152.346 220.808 152.028 221.154 151.808C221.499 151.586 221.891 151.474 222.329 151.474C222.668 151.474 222.941 151.531 223.149 151.645C223.358 151.756 223.52 151.886 223.636 152.036C223.754 152.185 223.845 152.316 223.909 152.43H223.987V151.545H225.028V157.121C225.028 157.589 224.919 157.974 224.701 158.275C224.483 158.576 224.189 158.798 223.817 158.942C223.448 159.087 223.031 159.159 222.567 159.159ZM222.556 156.038C222.862 156.038 223.12 155.967 223.33 155.825C223.544 155.68 223.705 155.474 223.813 155.207C223.925 154.937 223.98 154.614 223.98 154.237C223.98 153.87 223.926 153.547 223.817 153.268C223.708 152.988 223.548 152.771 223.338 152.614C223.127 152.456 222.866 152.376 222.556 152.376C222.237 152.376 221.97 152.459 221.757 152.625C221.544 152.788 221.383 153.011 221.274 153.293C221.168 153.574 221.115 153.889 221.115 154.237C221.115 154.595 221.169 154.908 221.278 155.178C221.387 155.448 221.548 155.659 221.761 155.81C221.976 155.962 222.241 156.038 222.556 156.038ZM229.098 159.045V151.545H230.135V152.43H230.224C230.286 152.316 230.374 152.185 230.49 152.036C230.606 151.886 230.767 151.756 230.973 151.645C231.179 151.531 231.452 151.474 231.79 151.474C232.231 151.474 232.624 151.586 232.969 151.808C233.315 152.031 233.586 152.352 233.782 152.771C233.981 153.19 234.081 153.694 234.081 154.283C234.081 154.873 233.982 155.378 233.786 155.8C233.589 156.219 233.32 156.542 232.976 156.769C232.633 156.994 232.241 157.107 231.801 157.107C231.469 157.107 231.198 157.051 230.988 156.94C230.779 156.828 230.616 156.698 230.498 156.549C230.379 156.4 230.288 156.267 230.224 156.151H230.16V159.045H229.098ZM230.139 154.273C230.139 154.656 230.195 154.992 230.306 155.281C230.417 155.57 230.578 155.796 230.789 155.96C230.999 156.121 231.258 156.201 231.563 156.201C231.88 156.201 232.145 156.117 232.358 155.949C232.571 155.778 232.732 155.548 232.841 155.256C232.953 154.965 233.008 154.637 233.008 154.273C233.008 153.913 232.954 153.59 232.845 153.303C232.738 153.017 232.577 152.791 232.362 152.625C232.149 152.459 231.883 152.376 231.563 152.376C231.255 152.376 230.995 152.456 230.782 152.614C230.571 152.773 230.411 152.994 230.302 153.278C230.193 153.562 230.139 153.894 230.139 154.273ZM237.568 157.11C237.057 157.11 236.61 156.993 236.229 156.759C235.848 156.524 235.552 156.196 235.341 155.775C235.131 155.353 235.025 154.861 235.025 154.298C235.025 153.732 235.131 153.237 235.341 152.813C235.552 152.389 235.848 152.06 236.229 151.826C236.61 151.592 237.057 151.474 237.568 151.474C238.079 151.474 238.526 151.592 238.907 151.826C239.288 152.06 239.584 152.389 239.794 152.813C240.005 153.237 240.11 153.732 240.11 154.298C240.11 154.861 240.005 155.353 239.794 155.775C239.584 156.196 239.288 156.524 238.907 156.759C238.526 156.993 238.079 157.11 237.568 157.11ZM237.571 156.219C237.903 156.219 238.177 156.131 238.395 155.956C238.613 155.781 238.774 155.548 238.878 155.256C238.985 154.965 239.038 154.644 239.038 154.294C239.038 153.946 238.985 153.626 238.878 153.335C238.774 153.042 238.613 152.806 238.395 152.629C238.177 152.451 237.903 152.362 237.571 152.362C237.238 152.362 236.961 152.451 236.74 152.629C236.523 152.806 236.36 153.042 236.254 153.335C236.15 153.626 236.098 153.946 236.098 154.294C236.098 154.644 236.15 154.965 236.254 155.256C236.36 155.548 236.523 155.781 236.74 155.956C236.961 156.131 237.238 156.219 237.571 156.219ZM241.296 157V151.545H242.357V157H241.296ZM241.832 150.704C241.647 150.704 241.489 150.642 241.356 150.519C241.226 150.394 241.161 150.245 241.161 150.072C241.161 149.897 241.226 149.747 241.356 149.624C241.489 149.499 241.647 149.436 241.832 149.436C242.017 149.436 242.174 149.499 242.304 149.624C242.437 149.747 242.503 149.897 242.503 150.072C242.503 150.245 242.437 150.394 242.304 150.519C242.174 150.642 242.017 150.704 241.832 150.704ZM244.848 153.761V157H243.786V151.545H244.805V152.433H244.873C244.998 152.144 245.195 151.912 245.462 151.737C245.732 151.562 246.072 151.474 246.481 151.474C246.853 151.474 247.178 151.553 247.458 151.709C247.737 151.863 247.954 152.092 248.108 152.398C248.262 152.703 248.338 153.081 248.338 153.531V157H247.277V153.658C247.277 153.263 247.174 152.954 246.968 152.732C246.762 152.507 246.479 152.394 246.119 152.394C245.873 152.394 245.654 152.447 245.462 152.554C245.273 152.661 245.122 152.817 245.011 153.023C244.902 153.226 244.848 153.473 244.848 153.761ZM252.309 151.545V152.398H249.329V151.545H252.309ZM250.128 150.239H251.19V155.398C251.19 155.604 251.221 155.759 251.282 155.864C251.344 155.965 251.423 156.035 251.52 156.073C251.62 156.109 251.727 156.126 251.843 156.126C251.929 156.126 252.003 156.121 252.067 156.109C252.131 156.097 252.181 156.087 252.216 156.08L252.408 156.957C252.347 156.981 252.259 157.005 252.145 157.028C252.032 157.054 251.89 157.069 251.719 157.071C251.44 157.076 251.179 157.026 250.938 156.922C250.696 156.818 250.501 156.657 250.352 156.439C250.203 156.221 250.128 155.948 250.128 155.619V150.239ZM257.312 157L255.707 151.545H256.804L257.873 155.551H257.927L258.999 151.545H260.096L261.162 155.533H261.215L262.277 151.545H263.374L261.772 157H260.689L259.581 153.062H259.5L258.392 157H257.312ZM264.382 157V151.545H265.443V157H264.382ZM264.918 150.704C264.733 150.704 264.575 150.642 264.442 150.519C264.312 150.394 264.247 150.245 264.247 150.072C264.247 149.897 264.312 149.747 264.442 149.624C264.575 149.499 264.733 149.436 264.918 149.436C265.103 149.436 265.26 149.499 265.39 149.624C265.523 149.747 265.589 149.897 265.589 150.072C265.589 150.245 265.523 150.394 265.39 150.519C265.26 150.642 265.103 150.704 264.918 150.704ZM269.418 151.545V152.398H266.439V151.545H269.418ZM267.238 150.239H268.299V155.398C268.299 155.604 268.33 155.759 268.392 155.864C268.453 155.965 268.533 156.035 268.63 156.073C268.729 156.109 268.837 156.126 268.953 156.126C269.038 156.126 269.113 156.121 269.177 156.109C269.24 156.097 269.29 156.087 269.326 156.08L269.517 156.957C269.456 156.981 269.368 157.005 269.255 157.028C269.141 157.054 268.999 157.069 268.829 157.071C268.549 157.076 268.289 157.026 268.047 156.922C267.806 156.818 267.61 156.657 267.461 156.439C267.312 156.221 267.238 155.948 267.238 155.619V150.239ZM271.772 153.761V157H270.71V149.727H271.757V152.433H271.825C271.953 152.14 272.148 151.906 272.411 151.734C272.674 151.561 273.017 151.474 273.441 151.474C273.815 151.474 274.141 151.551 274.421 151.705C274.702 151.859 274.92 152.089 275.074 152.394C275.23 152.697 275.308 153.076 275.308 153.531V157H274.247V153.658C274.247 153.258 274.144 152.948 273.938 152.728C273.732 152.505 273.445 152.394 273.078 152.394C272.827 152.394 272.603 152.447 272.404 152.554C272.207 152.661 272.052 152.817 271.938 153.023C271.827 153.226 271.772 153.473 271.772 153.761ZM283.459 152.877L282.497 153.048C282.457 152.924 282.393 152.807 282.305 152.696C282.22 152.585 282.104 152.494 281.957 152.423C281.81 152.352 281.627 152.316 281.407 152.316C281.106 152.316 280.855 152.384 280.654 152.518C280.453 152.651 280.352 152.823 280.352 153.033C280.352 153.216 280.419 153.362 280.554 153.474C280.689 153.585 280.907 153.676 281.208 153.747L282.074 153.946C282.576 154.062 282.95 154.241 283.196 154.482C283.443 154.724 283.566 155.037 283.566 155.423C283.566 155.75 283.471 156.041 283.282 156.297C283.095 156.55 282.833 156.749 282.497 156.893C282.163 157.038 281.776 157.11 281.336 157.11C280.725 157.11 280.226 156.98 279.841 156.719C279.455 156.457 279.218 156.084 279.13 155.601L280.157 155.445C280.221 155.712 280.352 155.915 280.551 156.052C280.75 156.187 281.009 156.254 281.329 156.254C281.677 156.254 281.955 156.182 282.163 156.038C282.371 155.891 282.476 155.712 282.476 155.501C282.476 155.331 282.412 155.188 282.284 155.072C282.158 154.956 281.965 154.868 281.705 154.809L280.782 154.607C280.273 154.491 279.896 154.306 279.652 154.053C279.411 153.799 279.29 153.478 279.29 153.09C279.29 152.768 279.38 152.487 279.56 152.245C279.74 152.004 279.989 151.815 280.306 151.68C280.623 151.543 280.986 151.474 281.396 151.474C281.985 151.474 282.45 151.602 282.788 151.858C283.127 152.111 283.35 152.451 283.459 152.877ZM285.795 149.727V157H284.733V149.727H285.795ZM287.223 157V151.545H288.285V157H287.223ZM287.76 150.704C287.575 150.704 287.416 150.642 287.284 150.519C287.154 150.394 287.088 150.245 287.088 150.072C287.088 149.897 287.154 149.747 287.284 149.624C287.416 149.499 287.575 149.436 287.76 149.436C287.944 149.436 288.102 149.499 288.232 149.624C288.365 149.747 288.431 149.897 288.431 150.072C288.431 150.245 288.365 150.394 288.232 150.519C288.102 150.642 287.944 150.704 287.76 150.704ZM292.001 159.159C291.567 159.159 291.194 159.102 290.882 158.989C290.572 158.875 290.319 158.725 290.122 158.538C289.926 158.351 289.779 158.146 289.682 157.923L290.594 157.547C290.658 157.651 290.743 157.761 290.85 157.877C290.959 157.996 291.106 158.096 291.29 158.179C291.477 158.262 291.718 158.303 292.011 158.303C292.414 158.303 292.746 158.205 293.009 158.009C293.272 157.814 293.403 157.504 293.403 157.078V156.006H293.336C293.272 156.122 293.18 156.251 293.059 156.393C292.94 156.535 292.777 156.658 292.569 156.762C292.36 156.866 292.089 156.918 291.756 156.918C291.325 156.918 290.936 156.818 290.591 156.616C290.248 156.413 289.975 156.113 289.774 155.718C289.575 155.32 289.476 154.831 289.476 154.251C289.476 153.671 289.574 153.174 289.77 152.76C289.969 152.346 290.242 152.028 290.587 151.808C290.933 151.586 291.325 151.474 291.763 151.474C292.101 151.474 292.375 151.531 292.583 151.645C292.791 151.756 292.953 151.886 293.069 152.036C293.188 152.185 293.279 152.316 293.343 152.43H293.421V151.545H294.462V157.121C294.462 157.589 294.353 157.974 294.135 158.275C293.917 158.576 293.622 158.798 293.251 158.942C292.881 159.087 292.465 159.159 292.001 159.159ZM291.99 156.038C292.295 156.038 292.553 155.967 292.764 155.825C292.977 155.68 293.138 155.474 293.247 155.207C293.358 154.937 293.414 154.614 293.414 154.237C293.414 153.87 293.359 153.547 293.251 153.268C293.142 152.988 292.982 152.771 292.771 152.614C292.56 152.456 292.3 152.376 291.99 152.376C291.67 152.376 291.404 152.459 291.191 152.625C290.978 152.788 290.817 153.011 290.708 153.293C290.601 153.574 290.548 153.889 290.548 154.237C290.548 154.595 290.603 154.908 290.712 155.178C290.82 155.448 290.981 155.659 291.194 155.81C291.41 155.962 291.675 156.038 291.99 156.038ZM296.947 153.761V157H295.886V149.727H296.933V152.433H297.001C297.128 152.14 297.324 151.906 297.587 151.734C297.849 151.561 298.193 151.474 298.616 151.474C298.99 151.474 299.317 151.551 299.596 151.705C299.878 151.859 300.096 152.089 300.25 152.394C300.406 152.697 300.484 153.076 300.484 153.531V157H299.422V153.658C299.422 153.258 299.319 152.948 299.114 152.728C298.908 152.505 298.621 152.394 298.254 152.394C298.003 152.394 297.778 152.447 297.579 152.554C297.383 152.661 297.228 152.817 297.114 153.023C297.003 153.226 296.947 153.473 296.947 153.761ZM304.447 151.545V152.398H301.468V151.545H304.447ZM302.267 150.239H303.329V155.398C303.329 155.604 303.359 155.759 303.421 155.864C303.483 155.965 303.562 156.035 303.659 156.073C303.758 156.109 303.866 156.126 303.982 156.126C304.067 156.126 304.142 156.121 304.206 156.109C304.27 156.097 304.319 156.087 304.355 156.08L304.547 156.957C304.485 156.981 304.398 157.005 304.284 157.028C304.17 157.054 304.028 157.069 303.858 157.071C303.578 157.076 303.318 157.026 303.077 156.922C302.835 156.818 302.64 156.657 302.491 156.439C302.341 156.221 302.267 155.948 302.267 155.619V150.239ZM310.566 157.11C310.055 157.11 309.608 156.993 309.227 156.759C308.846 156.524 308.55 156.196 308.339 155.775C308.129 155.353 308.023 154.861 308.023 154.298C308.023 153.732 308.129 153.237 308.339 152.813C308.55 152.389 308.846 152.06 309.227 151.826C309.608 151.592 310.055 151.474 310.566 151.474C311.077 151.474 311.524 151.592 311.905 151.826C312.286 152.06 312.582 152.389 312.792 152.813C313.003 153.237 313.109 153.732 313.109 154.298C313.109 154.861 313.003 155.353 312.792 155.775C312.582 156.196 312.286 156.524 311.905 156.759C311.524 156.993 311.077 157.11 310.566 157.11ZM310.569 156.219C310.901 156.219 311.176 156.131 311.393 155.956C311.611 155.781 311.772 155.548 311.876 155.256C311.983 154.965 312.036 154.644 312.036 154.294C312.036 153.946 311.983 153.626 311.876 153.335C311.772 153.042 311.611 152.806 311.393 152.629C311.176 152.451 310.901 152.362 310.569 152.362C310.236 152.362 309.959 152.451 309.739 152.629C309.521 152.806 309.359 153.042 309.252 153.335C309.148 153.626 309.096 153.946 309.096 154.294C309.096 154.644 309.148 154.965 309.252 155.256C309.359 155.548 309.521 155.781 309.739 155.956C309.959 156.131 310.236 156.219 310.569 156.219ZM316.89 151.545V152.398H313.807V151.545H316.89ZM314.652 157V150.913C314.652 150.572 314.727 150.29 314.876 150.065C315.025 149.837 315.223 149.668 315.469 149.557C315.715 149.443 315.983 149.386 316.272 149.386C316.485 149.386 316.667 149.404 316.819 149.44C316.97 149.473 317.083 149.504 317.156 149.532L316.907 150.391C316.858 150.377 316.794 150.361 316.716 150.342C316.637 150.32 316.543 150.31 316.432 150.31C316.173 150.31 315.989 150.374 315.878 150.501C315.769 150.629 315.714 150.814 315.714 151.055V157H314.652ZM320.581 151.545V152.398H317.499V151.545H320.581ZM318.344 157V150.913C318.344 150.572 318.418 150.29 318.568 150.065C318.717 149.837 318.914 149.668 319.161 149.557C319.407 149.443 319.674 149.386 319.963 149.386C320.176 149.386 320.358 149.404 320.51 149.44C320.662 149.473 320.774 149.504 320.847 149.532L320.599 150.391C320.549 150.377 320.485 150.361 320.407 150.342C320.329 150.32 320.234 150.31 320.123 150.31C319.865 150.31 319.68 150.374 319.569 150.501C319.46 150.629 319.406 150.814 319.406 151.055V157H318.344ZM325.559 152.877L324.596 153.048C324.556 152.924 324.492 152.807 324.405 152.696C324.319 152.585 324.203 152.494 324.057 152.423C323.91 152.352 323.726 152.316 323.506 152.316C323.206 152.316 322.955 152.384 322.753 152.518C322.552 152.651 322.452 152.823 322.452 153.033C322.452 153.216 322.519 153.362 322.654 153.474C322.789 153.585 323.007 153.676 323.307 153.747L324.174 153.946C324.676 154.062 325.05 154.241 325.296 154.482C325.542 154.724 325.665 155.037 325.665 155.423C325.665 155.75 325.571 156.041 325.381 156.297C325.194 156.55 324.933 156.749 324.596 156.893C324.263 157.038 323.876 157.11 323.435 157.11C322.824 157.11 322.326 156.98 321.94 156.719C321.554 156.457 321.318 156.084 321.23 155.601L322.256 155.445C322.32 155.712 322.452 155.915 322.65 156.052C322.849 156.187 323.109 156.254 323.428 156.254C323.776 156.254 324.054 156.182 324.263 156.038C324.471 155.891 324.575 155.712 324.575 155.501C324.575 155.331 324.511 155.188 324.383 155.072C324.258 154.956 324.065 154.868 323.805 154.809L322.881 154.607C322.372 154.491 321.996 154.306 321.752 154.053C321.511 153.799 321.39 153.478 321.39 153.09C321.39 152.768 321.48 152.487 321.66 152.245C321.84 152.004 322.088 151.815 322.405 151.68C322.723 151.543 323.086 151.474 323.496 151.474C324.085 151.474 324.549 151.602 324.888 151.858C325.226 152.111 325.45 152.451 325.559 152.877ZM329.184 157.11C328.646 157.11 328.183 156.995 327.795 156.766C327.409 156.534 327.111 156.208 326.9 155.789C326.692 155.368 326.588 154.874 326.588 154.308C326.588 153.75 326.692 153.257 326.9 152.831C327.111 152.405 327.405 152.072 327.781 151.833C328.16 151.594 328.602 151.474 329.109 151.474C329.417 151.474 329.715 151.525 330.004 151.627C330.293 151.729 330.552 151.889 330.782 152.107C331.011 152.324 331.192 152.607 331.325 152.955C331.458 153.301 331.524 153.721 331.524 154.216V154.592H327.188V153.797H330.483C330.483 153.518 330.427 153.27 330.313 153.055C330.199 152.837 330.039 152.665 329.834 152.54C329.63 152.414 329.391 152.352 329.116 152.352C328.818 152.352 328.557 152.425 328.335 152.572C328.115 152.716 327.944 152.906 327.824 153.14C327.705 153.372 327.646 153.624 327.646 153.896V154.518C327.646 154.882 327.71 155.192 327.838 155.448C327.968 155.704 328.149 155.899 328.381 156.034C328.613 156.167 328.884 156.233 329.194 156.233C329.396 156.233 329.579 156.205 329.745 156.148C329.91 156.089 330.054 156.001 330.174 155.885C330.295 155.769 330.387 155.626 330.451 155.455L331.456 155.636C331.376 155.932 331.231 156.192 331.023 156.414C330.817 156.634 330.558 156.806 330.245 156.929C329.935 157.05 329.581 157.11 329.184 157.11ZM335.248 151.545V152.398H332.269V151.545H335.248ZM333.068 150.239H334.129V155.398C334.129 155.604 334.16 155.759 334.222 155.864C334.283 155.965 334.363 156.035 334.46 156.073C334.559 156.109 334.667 156.126 334.783 156.126C334.868 156.126 334.943 156.121 335.007 156.109C335.071 156.097 335.12 156.087 335.156 156.08L335.348 156.957C335.286 156.981 335.198 157.005 335.085 157.028C334.971 157.054 334.829 157.069 334.659 157.071C334.379 157.076 334.119 157.026 333.877 156.922C333.636 156.818 333.441 156.657 333.291 156.439C333.142 156.221 333.068 155.948 333.068 155.619V150.239Z" fill="black"/>
<rect x="541" y="144" width="171.776" height="19" rx="9.5" fill="#D9D9D9"/>
<path d="M551.236 151.638C551.198 151.302 551.042 151.041 550.768 150.857C550.493 150.67 550.147 150.576 549.731 150.576C549.432 150.576 549.174 150.623 548.956 150.718C548.739 150.81 548.569 150.938 548.449 151.102C548.33 151.263 548.271 151.446 548.271 151.652C548.271 151.825 548.311 151.974 548.392 152.099C548.475 152.225 548.582 152.33 548.715 152.415C548.85 152.498 548.994 152.568 549.148 152.625C549.302 152.679 549.45 152.724 549.592 152.76L550.302 152.945C550.534 153.001 550.772 153.078 551.016 153.175C551.26 153.272 551.486 153.4 551.694 153.559C551.903 153.718 552.071 153.914 552.199 154.148C552.329 154.383 552.394 154.663 552.394 154.99C552.394 155.402 552.287 155.768 552.074 156.087C551.864 156.407 551.557 156.659 551.155 156.844C550.755 157.028 550.27 157.121 549.702 157.121C549.158 157.121 548.687 157.034 548.289 156.862C547.891 156.689 547.58 156.444 547.355 156.126C547.13 155.807 547.006 155.428 546.982 154.99H548.083C548.104 155.253 548.189 155.472 548.339 155.647C548.49 155.82 548.683 155.949 548.917 156.034C549.154 156.117 549.413 156.158 549.695 156.158C550.005 156.158 550.281 156.11 550.523 156.013C550.766 155.913 550.958 155.776 551.098 155.601C551.238 155.423 551.307 155.216 551.307 154.979C551.307 154.764 551.246 154.588 551.123 154.45C551.002 154.313 550.837 154.199 550.629 154.109C550.423 154.019 550.19 153.94 549.93 153.871L549.07 153.637C548.488 153.478 548.026 153.245 547.685 152.938C547.347 152.63 547.177 152.223 547.177 151.716C547.177 151.297 547.291 150.931 547.518 150.619C547.746 150.306 548.053 150.063 548.442 149.891C548.83 149.715 549.268 149.628 549.756 149.628C550.248 149.628 550.682 149.714 551.059 149.887C551.438 150.06 551.736 150.298 551.954 150.601C552.171 150.902 552.285 151.247 552.295 151.638H551.236ZM555.207 157.121C554.862 157.121 554.549 157.057 554.27 156.929C553.991 156.799 553.769 156.611 553.606 156.364C553.445 156.118 553.364 155.816 553.364 155.459C553.364 155.151 553.424 154.898 553.542 154.699C553.66 154.5 553.82 154.343 554.021 154.227C554.223 154.111 554.447 154.023 554.696 153.964C554.945 153.905 555.198 153.86 555.456 153.829C555.783 153.791 556.048 153.76 556.251 153.737C556.455 153.71 556.603 153.669 556.695 153.612C556.788 153.555 556.834 153.463 556.834 153.335V153.31C556.834 153 556.746 152.76 556.571 152.589C556.398 152.419 556.14 152.334 555.797 152.334C555.439 152.334 555.158 152.413 554.952 152.572C554.748 152.728 554.607 152.902 554.529 153.094L553.531 152.866C553.65 152.535 553.822 152.268 554.05 152.064C554.279 151.858 554.543 151.709 554.842 151.616C555.14 151.522 555.454 151.474 555.783 151.474C556 151.474 556.231 151.5 556.475 151.553C556.721 151.602 556.951 151.695 557.164 151.83C557.379 151.964 557.556 152.157 557.693 152.408C557.83 152.657 557.899 152.98 557.899 153.378V157H556.862V156.254H556.82C556.751 156.392 556.648 156.527 556.511 156.659C556.373 156.792 556.197 156.902 555.982 156.989C555.766 157.077 555.508 157.121 555.207 157.121ZM555.438 156.268C555.732 156.268 555.983 156.21 556.191 156.094C556.402 155.978 556.562 155.827 556.67 155.64C556.782 155.451 556.837 155.248 556.837 155.033V154.33C556.799 154.367 556.726 154.403 556.617 154.436C556.511 154.467 556.389 154.494 556.251 154.518C556.114 154.539 555.98 154.559 555.85 154.578C555.72 154.595 555.611 154.609 555.523 154.621C555.317 154.647 555.129 154.691 554.959 154.752C554.791 154.814 554.656 154.902 554.554 155.018C554.455 155.132 554.405 155.284 554.405 155.473C554.405 155.736 554.502 155.935 554.696 156.07C554.89 156.202 555.138 156.268 555.438 156.268ZM559.313 157V151.545H560.333V152.433H560.4C560.514 152.133 560.7 151.898 560.958 151.73C561.216 151.56 561.525 151.474 561.884 151.474C562.249 151.474 562.554 151.56 562.801 151.73C563.049 151.901 563.233 152.135 563.351 152.433H563.408C563.538 152.142 563.745 151.91 564.029 151.737C564.313 151.562 564.652 151.474 565.045 151.474C565.54 151.474 565.943 151.629 566.256 151.94C566.571 152.25 566.728 152.717 566.728 153.342V157H565.666V153.442C565.666 153.072 565.566 152.805 565.365 152.639C565.163 152.473 564.923 152.391 564.644 152.391C564.298 152.391 564.029 152.497 563.838 152.71C563.646 152.921 563.55 153.192 563.55 153.523V157H562.492V153.374C562.492 153.078 562.399 152.84 562.215 152.661C562.03 152.481 561.79 152.391 561.494 152.391C561.293 152.391 561.107 152.444 560.936 152.55C560.768 152.655 560.632 152.8 560.528 152.987C560.426 153.174 560.375 153.391 560.375 153.637V157H559.313ZM568.151 159.045V151.545H569.188V152.43H569.277C569.339 152.316 569.427 152.185 569.543 152.036C569.659 151.886 569.82 151.756 570.026 151.645C570.232 151.531 570.504 151.474 570.843 151.474C571.283 151.474 571.676 151.586 572.022 151.808C572.368 152.031 572.639 152.352 572.835 152.771C573.034 153.19 573.134 153.694 573.134 154.283C573.134 154.873 573.035 155.378 572.839 155.8C572.642 156.219 572.372 156.542 572.029 156.769C571.686 156.994 571.294 157.107 570.854 157.107C570.522 157.107 570.251 157.051 570.04 156.94C569.832 156.828 569.669 156.698 569.55 156.549C569.432 156.4 569.341 156.267 569.277 156.151H569.213V159.045H568.151ZM569.192 154.273C569.192 154.656 569.247 154.992 569.359 155.281C569.47 155.57 569.631 155.796 569.842 155.96C570.052 156.121 570.31 156.201 570.616 156.201C570.933 156.201 571.198 156.117 571.411 155.949C571.624 155.778 571.785 155.548 571.894 155.256C572.005 154.965 572.061 154.637 572.061 154.273C572.061 153.913 572.007 153.59 571.898 153.303C571.791 153.017 571.63 152.791 571.415 152.625C571.202 152.459 570.935 152.376 570.616 152.376C570.308 152.376 570.048 152.456 569.835 152.614C569.624 152.773 569.464 152.994 569.355 153.278C569.246 153.562 569.192 153.894 569.192 154.273ZM575.385 149.727V157H574.323V149.727H575.385ZM576.813 157V151.545H577.875V157H576.813ZM577.35 150.704C577.165 150.704 577.006 150.642 576.874 150.519C576.744 150.394 576.678 150.245 576.678 150.072C576.678 149.897 576.744 149.747 576.874 149.624C577.006 149.499 577.165 149.436 577.35 149.436C577.534 149.436 577.692 149.499 577.822 149.624C577.954 149.747 578.021 149.897 578.021 150.072C578.021 150.245 577.954 150.394 577.822 150.519C577.692 150.642 577.534 150.704 577.35 150.704ZM580.365 153.761V157H579.304V151.545H580.323V152.433H580.39C580.516 152.144 580.712 151.912 580.98 151.737C581.25 151.562 581.589 151.474 581.999 151.474C582.371 151.474 582.696 151.553 582.975 151.709C583.255 151.863 583.471 152.092 583.625 152.398C583.779 152.703 583.856 153.081 583.856 153.531V157H582.794V153.658C582.794 153.263 582.691 152.954 582.485 152.732C582.279 152.507 581.997 152.394 581.637 152.394C581.391 152.394 581.172 152.447 580.98 152.554C580.79 152.661 580.64 152.817 580.529 153.023C580.42 153.226 580.365 153.473 580.365 153.761ZM587.567 159.159C587.134 159.159 586.761 159.102 586.449 158.989C586.138 158.875 585.885 158.725 585.689 158.538C585.492 158.351 585.345 158.146 585.248 157.923L586.161 157.547C586.225 157.651 586.31 157.761 586.417 157.877C586.525 157.996 586.672 158.096 586.857 158.179C587.044 158.262 587.284 158.303 587.578 158.303C587.98 158.303 588.313 158.205 588.576 158.009C588.838 157.814 588.97 157.504 588.97 157.078V156.006H588.902C588.838 156.122 588.746 156.251 588.625 156.393C588.507 156.535 588.344 156.658 588.135 156.762C587.927 156.866 587.656 156.918 587.322 156.918C586.891 156.918 586.503 156.818 586.157 156.616C585.814 156.413 585.542 156.113 585.341 155.718C585.142 155.32 585.042 154.831 585.042 154.251C585.042 153.671 585.141 153.174 585.337 152.76C585.536 152.346 585.808 152.028 586.154 151.808C586.499 151.586 586.891 151.474 587.329 151.474C587.668 151.474 587.941 151.531 588.15 151.645C588.358 151.756 588.52 151.886 588.636 152.036C588.754 152.185 588.846 152.316 588.909 152.43H588.988V151.545H590.028V157.121C590.028 157.589 589.919 157.974 589.701 158.275C589.484 158.576 589.189 158.798 588.817 158.942C588.448 159.087 588.031 159.159 587.567 159.159ZM587.556 156.038C587.862 156.038 588.12 155.967 588.331 155.825C588.544 155.68 588.705 155.474 588.814 155.207C588.925 154.937 588.98 154.614 588.98 154.237C588.98 153.87 588.926 153.547 588.817 153.268C588.708 152.988 588.548 152.771 588.338 152.614C588.127 152.456 587.867 152.376 587.556 152.376C587.237 152.376 586.971 152.459 586.757 152.625C586.544 152.788 586.383 153.011 586.275 153.293C586.168 153.574 586.115 153.889 586.115 154.237C586.115 154.595 586.169 154.908 586.278 155.178C586.387 155.448 586.548 155.659 586.761 155.81C586.976 155.962 587.242 156.038 587.556 156.038ZM594.099 159.045V151.545H595.135V152.43H595.224C595.286 152.316 595.375 152.185 595.491 152.036C595.607 151.886 595.768 151.756 595.974 151.645C596.18 151.531 596.452 151.474 596.79 151.474C597.231 151.474 597.624 151.586 597.969 151.808C598.315 152.031 598.586 152.352 598.782 152.771C598.981 153.19 599.081 153.694 599.081 154.283C599.081 154.873 598.983 155.378 598.786 155.8C598.59 156.219 598.32 156.542 597.976 156.769C597.633 156.994 597.241 157.107 596.801 157.107C596.47 157.107 596.198 157.051 595.988 156.94C595.779 156.828 595.616 156.698 595.498 156.549C595.379 156.4 595.288 156.267 595.224 156.151H595.16V159.045H594.099ZM595.139 154.273C595.139 154.656 595.195 154.992 595.306 155.281C595.417 155.57 595.578 155.796 595.789 155.96C596 156.121 596.258 156.201 596.563 156.201C596.88 156.201 597.145 156.117 597.358 155.949C597.572 155.778 597.733 155.548 597.841 155.256C597.953 154.965 598.008 154.637 598.008 154.273C598.008 153.913 597.954 153.59 597.845 153.303C597.738 153.017 597.577 152.791 597.362 152.625C597.149 152.459 596.883 152.376 596.563 152.376C596.255 152.376 595.995 152.456 595.782 152.614C595.571 152.773 595.411 152.994 595.302 153.278C595.193 153.562 595.139 153.894 595.139 154.273ZM602.568 157.11C602.057 157.11 601.61 156.993 601.229 156.759C600.848 156.524 600.552 156.196 600.341 155.775C600.131 155.353 600.025 154.861 600.025 154.298C600.025 153.732 600.131 153.237 600.341 152.813C600.552 152.389 600.848 152.06 601.229 151.826C601.61 151.592 602.057 151.474 602.568 151.474C603.079 151.474 603.526 151.592 603.907 151.826C604.288 152.06 604.584 152.389 604.795 152.813C605.005 153.237 605.111 153.732 605.111 154.298C605.111 154.861 605.005 155.353 604.795 155.775C604.584 156.196 604.288 156.524 603.907 156.759C603.526 156.993 603.079 157.11 602.568 157.11ZM602.572 156.219C602.903 156.219 603.178 156.131 603.395 155.956C603.613 155.781 603.774 155.548 603.878 155.256C603.985 154.965 604.038 154.644 604.038 154.294C604.038 153.946 603.985 153.626 603.878 153.335C603.774 153.042 603.613 152.806 603.395 152.629C603.178 152.451 602.903 152.362 602.572 152.362C602.238 152.362 601.961 152.451 601.741 152.629C601.523 152.806 601.361 153.042 601.254 153.335C601.15 153.626 601.098 153.946 601.098 154.294C601.098 154.644 601.15 154.965 601.254 155.256C601.361 155.548 601.523 155.781 601.741 155.956C601.961 156.131 602.238 156.219 602.572 156.219ZM606.296 157V151.545H607.358V157H606.296ZM606.832 150.704C606.647 150.704 606.489 150.642 606.356 150.519C606.226 150.394 606.161 150.245 606.161 150.072C606.161 149.897 606.226 149.747 606.356 149.624C606.489 149.499 606.647 149.436 606.832 149.436C607.017 149.436 607.174 149.499 607.304 149.624C607.437 149.747 607.503 149.897 607.503 150.072C607.503 150.245 607.437 150.394 607.304 150.519C607.174 150.642 607.017 150.704 606.832 150.704ZM609.848 153.761V157H608.786V151.545H609.805V152.433H609.873C609.998 152.144 610.195 151.912 610.462 151.737C610.732 151.562 611.072 151.474 611.481 151.474C611.853 151.474 612.179 151.553 612.458 151.709C612.737 151.863 612.954 152.092 613.108 152.398C613.262 152.703 613.339 153.081 613.339 153.531V157H612.277V153.658C612.277 153.263 612.174 152.954 611.968 152.732C611.762 152.507 611.479 152.394 611.119 152.394C610.873 152.394 610.654 152.447 610.462 152.554C610.273 152.661 610.122 152.817 610.011 153.023C609.902 153.226 609.848 153.473 609.848 153.761ZM617.309 151.545V152.398H614.329V151.545H617.309ZM615.128 150.239H616.19V155.398C616.19 155.604 616.221 155.759 616.282 155.864C616.344 155.965 616.423 156.035 616.52 156.073C616.62 156.109 616.728 156.126 616.844 156.126C616.929 156.126 617.003 156.121 617.067 156.109C617.131 156.097 617.181 156.087 617.216 156.08L617.408 156.957C617.347 156.981 617.259 157.005 617.145 157.028C617.032 157.054 616.89 157.069 616.719 157.071C616.44 157.076 616.18 157.026 615.938 156.922C615.697 156.818 615.501 156.657 615.352 156.439C615.203 156.221 615.128 155.948 615.128 155.619V150.239ZM622.312 157L620.707 151.545H621.805L622.873 155.551H622.927L623.999 151.545H625.096L626.162 155.533H626.215L627.277 151.545H628.374L626.773 157H625.689L624.581 153.062H624.5L623.392 157H622.312ZM629.382 157V151.545H630.444V157H629.382ZM629.918 150.704C629.733 150.704 629.575 150.642 629.442 150.519C629.312 150.394 629.247 150.245 629.247 150.072C629.247 149.897 629.312 149.747 629.442 149.624C629.575 149.499 629.733 149.436 629.918 149.436C630.103 149.436 630.26 149.499 630.39 149.624C630.523 149.747 630.589 149.897 630.589 150.072C630.589 150.245 630.523 150.394 630.39 150.519C630.26 150.642 630.103 150.704 629.918 150.704ZM634.418 151.545V152.398H631.439V151.545H634.418ZM632.238 150.239H633.3V155.398C633.3 155.604 633.33 155.759 633.392 155.864C633.453 155.965 633.533 156.035 633.63 156.073C633.729 156.109 633.837 156.126 633.953 156.126C634.038 156.126 634.113 156.121 634.177 156.109C634.241 156.097 634.29 156.087 634.326 156.08L634.518 156.957C634.456 156.981 634.368 157.005 634.255 157.028C634.141 157.054 633.999 157.069 633.829 157.071C633.549 157.076 633.289 157.026 633.047 156.922C632.806 156.818 632.611 156.657 632.461 156.439C632.312 156.221 632.238 155.948 632.238 155.619V150.239ZM636.772 153.761V157H635.71V149.727H636.757V152.433H636.825C636.953 152.14 637.148 151.906 637.411 151.734C637.674 151.561 638.017 151.474 638.441 151.474C638.815 151.474 639.141 151.551 639.421 151.705C639.703 151.859 639.92 152.089 640.074 152.394C640.23 152.697 640.309 153.076 640.309 153.531V157H639.247V153.658C639.247 153.258 639.144 152.948 638.938 152.728C638.732 152.505 638.445 152.394 638.078 152.394C637.828 152.394 637.603 152.447 637.404 152.554C637.207 152.661 637.052 152.817 636.939 153.023C636.827 153.226 636.772 153.473 636.772 153.761ZM645.434 149.727V157H644.372V149.727H645.434ZM648.45 157.121C648.104 157.121 647.791 157.057 647.512 156.929C647.233 156.799 647.011 156.611 646.848 156.364C646.687 156.118 646.607 155.816 646.607 155.459C646.607 155.151 646.666 154.898 646.784 154.699C646.902 154.5 647.062 154.343 647.263 154.227C647.465 154.111 647.69 154.023 647.938 153.964C648.187 153.905 648.44 153.86 648.698 153.829C649.025 153.791 649.29 153.76 649.494 153.737C649.697 153.71 649.845 153.669 649.938 153.612C650.03 153.555 650.076 153.463 650.076 153.335V153.31C650.076 153 649.988 152.76 649.813 152.589C649.64 152.419 649.382 152.334 649.039 152.334C648.682 152.334 648.4 152.413 648.194 152.572C647.99 152.728 647.849 152.902 647.771 153.094L646.773 152.866C646.892 152.535 647.065 152.268 647.292 152.064C647.522 151.858 647.786 151.709 648.084 151.616C648.382 151.522 648.696 151.474 649.025 151.474C649.243 151.474 649.473 151.5 649.717 151.553C649.964 151.602 650.193 151.695 650.406 151.83C650.622 151.964 650.798 152.157 650.935 152.408C651.073 152.657 651.141 152.98 651.141 153.378V157H650.104V156.254H650.062C649.993 156.392 649.89 156.527 649.753 156.659C649.616 156.792 649.439 156.902 649.224 156.989C649.008 157.077 648.75 157.121 648.45 157.121ZM648.68 156.268C648.974 156.268 649.225 156.21 649.433 156.094C649.644 155.978 649.804 155.827 649.913 155.64C650.024 155.451 650.08 155.248 650.08 155.033V154.33C650.042 154.367 649.968 154.403 649.859 154.436C649.753 154.467 649.631 154.494 649.494 154.518C649.356 154.539 649.223 154.559 649.092 154.578C648.962 154.595 648.853 154.609 648.766 154.621C648.56 154.647 648.371 154.691 648.201 154.752C648.033 154.814 647.898 154.902 647.796 155.018C647.697 155.132 647.647 155.284 647.647 155.473C647.647 155.736 647.744 155.935 647.938 156.07C648.132 156.202 648.38 156.268 648.68 156.268ZM652.556 157V151.545H653.582V152.412H653.639C653.738 152.118 653.913 151.888 654.164 151.719C654.418 151.549 654.704 151.464 655.024 151.464C655.09 151.464 655.168 151.466 655.258 151.471C655.35 151.476 655.423 151.482 655.475 151.489V152.504C655.432 152.492 655.356 152.479 655.247 152.465C655.138 152.449 655.03 152.44 654.921 152.44C654.67 152.44 654.446 152.494 654.249 152.6C654.055 152.704 653.901 152.85 653.788 153.037C653.674 153.222 653.617 153.432 653.617 153.669V157H652.556ZM658.485 159.159C658.052 159.159 657.679 159.102 657.366 158.989C657.056 158.875 656.803 158.725 656.607 158.538C656.41 158.351 656.263 158.146 656.166 157.923L657.079 157.547C657.143 157.651 657.228 157.761 657.335 157.877C657.443 157.996 657.59 158.096 657.775 158.179C657.962 158.262 658.202 158.303 658.496 158.303C658.898 158.303 659.231 158.205 659.494 158.009C659.756 157.814 659.888 157.504 659.888 157.078V156.006H659.82C659.756 156.122 659.664 156.251 659.543 156.393C659.425 156.535 659.262 156.658 659.053 156.762C658.845 156.866 658.574 156.918 658.24 156.918C657.809 156.918 657.421 156.818 657.075 156.616C656.732 156.413 656.46 156.113 656.259 155.718C656.06 155.32 655.96 154.831 655.96 154.251C655.96 153.671 656.058 153.174 656.255 152.76C656.454 152.346 656.726 152.028 657.072 151.808C657.417 151.586 657.809 151.474 658.247 151.474C658.586 151.474 658.859 151.531 659.067 151.645C659.276 151.756 659.438 151.886 659.554 152.036C659.672 152.185 659.763 152.316 659.827 152.43H659.906V151.545H660.946V157.121C660.946 157.589 660.837 157.974 660.619 158.275C660.402 158.576 660.107 158.798 659.735 158.942C659.366 159.087 658.949 159.159 658.485 159.159ZM658.474 156.038C658.78 156.038 659.038 155.967 659.249 155.825C659.462 155.68 659.623 155.474 659.732 155.207C659.843 154.937 659.898 154.614 659.898 154.237C659.898 153.87 659.844 153.547 659.735 153.268C659.626 152.988 659.466 152.771 659.256 152.614C659.045 152.456 658.785 152.376 658.474 152.376C658.155 152.376 657.888 152.459 657.675 152.625C657.462 152.788 657.301 153.011 657.192 153.293C657.086 153.574 657.033 153.889 657.033 154.237C657.033 154.595 657.087 154.908 657.196 155.178C657.305 155.448 657.466 155.659 657.679 155.81C657.894 155.962 658.16 156.038 658.474 156.038ZM664.721 157.11C664.183 157.11 663.721 156.995 663.332 156.766C662.946 156.534 662.648 156.208 662.438 155.789C662.229 155.368 662.125 154.874 662.125 154.308C662.125 153.75 662.229 153.257 662.438 152.831C662.648 152.405 662.942 152.072 663.318 151.833C663.697 151.594 664.14 151.474 664.646 151.474C664.954 151.474 665.252 151.525 665.541 151.627C665.83 151.729 666.089 151.889 666.319 152.107C666.549 152.324 666.73 152.607 666.862 152.955C666.995 153.301 667.061 153.721 667.061 154.216V154.592H662.725V153.797H666.021C666.021 153.518 665.964 153.27 665.85 153.055C665.737 152.837 665.577 152.665 665.371 152.54C665.167 152.414 664.928 152.352 664.653 152.352C664.355 152.352 664.095 152.425 663.872 152.572C663.652 152.716 663.482 152.906 663.361 153.14C663.242 153.372 663.183 153.624 663.183 153.896V154.518C663.183 154.882 663.247 155.192 663.375 155.448C663.505 155.704 663.686 155.899 663.918 156.034C664.15 156.167 664.421 156.233 664.732 156.233C664.933 156.233 665.116 156.205 665.282 156.148C665.448 156.089 665.591 156.001 665.712 155.885C665.832 155.769 665.925 155.626 665.989 155.455L666.994 155.636C666.913 155.932 666.769 156.192 666.56 156.414C666.354 156.634 666.095 156.806 665.783 156.929C665.473 157.05 665.119 157.11 664.721 157.11ZM673.183 157.11C672.672 157.11 672.226 156.993 671.844 156.759C671.463 156.524 671.167 156.196 670.957 155.775C670.746 155.353 670.641 154.861 670.641 154.298C670.641 153.732 670.746 153.237 670.957 152.813C671.167 152.389 671.463 152.06 671.844 151.826C672.226 151.592 672.672 151.474 673.183 151.474C673.695 151.474 674.141 151.592 674.522 151.826C674.903 152.06 675.199 152.389 675.41 152.813C675.621 153.237 675.726 153.732 675.726 154.298C675.726 154.861 675.621 155.353 675.41 155.775C675.199 156.196 674.903 156.524 674.522 156.759C674.141 156.993 673.695 157.11 673.183 157.11ZM673.187 156.219C673.518 156.219 673.793 156.131 674.011 155.956C674.228 155.781 674.389 155.548 674.494 155.256C674.6 154.965 674.653 154.644 674.653 154.294C674.653 153.946 674.6 153.626 674.494 153.335C674.389 153.042 674.228 152.806 674.011 152.629C673.793 152.451 673.518 152.362 673.187 152.362C672.853 152.362 672.576 152.451 672.356 152.629C672.138 152.806 671.976 153.042 671.869 153.335C671.765 153.626 671.713 153.946 671.713 154.294C671.713 154.644 671.765 154.965 671.869 155.256C671.976 155.548 672.138 155.781 672.356 155.956C672.576 156.131 672.853 156.219 673.187 156.219ZM679.507 151.545V152.398H676.425V151.545H679.507ZM677.27 157V150.913C677.27 150.572 677.344 150.29 677.493 150.065C677.643 149.837 677.84 149.668 678.086 149.557C678.333 149.443 678.6 149.386 678.889 149.386C679.102 149.386 679.284 149.404 679.436 149.44C679.587 149.473 679.7 149.504 679.773 149.532L679.525 150.391C679.475 150.377 679.411 150.361 679.333 150.342C679.255 150.32 679.16 150.31 679.049 150.31C678.791 150.31 678.606 150.374 678.495 150.501C678.386 150.629 678.331 150.814 678.331 151.055V157H677.27ZM683.198 151.545V152.398H680.116V151.545H683.198ZM680.961 157V150.913C680.961 150.572 681.036 150.29 681.185 150.065C681.334 149.837 681.532 149.668 681.778 149.557C682.024 149.443 682.292 149.386 682.58 149.386C682.794 149.386 682.976 149.404 683.127 149.44C683.279 149.473 683.391 149.504 683.465 149.532L683.216 150.391C683.166 150.377 683.102 150.361 683.024 150.342C682.946 150.32 682.852 150.31 682.74 150.31C682.482 150.31 682.298 150.374 682.186 150.501C682.077 150.629 682.023 150.814 682.023 151.055V157H680.961ZM688.176 152.877L687.214 153.048C687.174 152.924 687.11 152.807 687.022 152.696C686.937 152.585 686.821 152.494 686.674 152.423C686.527 152.352 686.344 152.316 686.124 152.316C685.823 152.316 685.572 152.384 685.371 152.518C685.17 152.651 685.069 152.823 685.069 153.033C685.069 153.216 685.136 153.362 685.271 153.474C685.406 153.585 685.624 153.676 685.925 153.747L686.791 153.946C687.293 154.062 687.667 154.241 687.913 154.482C688.16 154.724 688.283 155.037 688.283 155.423C688.283 155.75 688.188 156.041 687.999 156.297C687.812 156.55 687.55 156.749 687.214 156.893C686.88 157.038 686.493 157.11 686.053 157.11C685.442 157.11 684.943 156.98 684.558 156.719C684.172 156.457 683.935 156.084 683.847 155.601L684.874 155.445C684.938 155.712 685.069 155.915 685.268 156.052C685.467 156.187 685.726 156.254 686.045 156.254C686.393 156.254 686.672 156.182 686.88 156.038C687.088 155.891 687.192 155.712 687.192 155.501C687.192 155.331 687.129 155.188 687.001 155.072C686.875 154.956 686.682 154.868 686.422 154.809L685.499 154.607C684.99 154.491 684.613 154.306 684.369 154.053C684.128 153.799 684.007 153.478 684.007 153.09C684.007 152.768 684.097 152.487 684.277 152.245C684.457 152.004 684.705 151.815 685.023 151.68C685.34 151.543 685.703 151.474 686.113 151.474C686.702 151.474 687.166 151.602 687.505 151.858C687.844 152.111 688.067 152.451 688.176 152.877ZM691.801 157.11C691.264 157.11 690.801 156.995 690.412 156.766C690.027 156.534 689.728 156.208 689.518 155.789C689.309 155.368 689.205 154.874 689.205 154.308C689.205 153.75 689.309 153.257 689.518 152.831C689.728 152.405 690.022 152.072 690.398 151.833C690.777 151.594 691.22 151.474 691.726 151.474C692.034 151.474 692.332 151.525 692.621 151.627C692.91 151.729 693.169 151.889 693.399 152.107C693.629 152.324 693.81 152.607 693.942 152.955C694.075 153.301 694.141 153.721 694.141 154.216V154.592H689.805V153.797H693.101C693.101 153.518 693.044 153.27 692.93 153.055C692.817 152.837 692.657 152.665 692.451 152.54C692.247 152.414 692.008 152.352 691.733 152.352C691.435 152.352 691.175 152.425 690.952 152.572C690.732 152.716 690.562 152.906 690.441 153.14C690.323 153.372 690.263 153.624 690.263 153.896V154.518C690.263 154.882 690.327 155.192 690.455 155.448C690.585 155.704 690.766 155.899 690.998 156.034C691.23 156.167 691.501 156.233 691.812 156.233C692.013 156.233 692.196 156.205 692.362 156.148C692.528 156.089 692.671 156.001 692.792 155.885C692.912 155.769 693.005 155.626 693.069 155.455L694.074 155.636C693.993 155.932 693.849 156.192 693.64 156.414C693.434 156.634 693.175 156.806 692.863 156.929C692.553 157.05 692.199 157.11 691.801 157.11ZM697.865 151.545V152.398H694.886V151.545H697.865ZM695.685 150.239H696.747V155.398C696.747 155.604 696.778 155.759 696.839 155.864C696.901 155.965 696.98 156.035 697.077 156.073C697.176 156.109 697.284 156.126 697.4 156.126C697.485 156.126 697.56 156.121 697.624 156.109C697.688 156.097 697.738 156.087 697.773 156.08L697.965 156.957C697.903 156.981 697.816 157.005 697.702 157.028C697.588 157.054 697.446 157.069 697.276 157.071C696.997 157.076 696.736 157.026 696.495 156.922C696.253 156.818 696.058 156.657 695.909 156.439C695.76 156.221 695.685 155.948 695.685 155.619V150.239Z" fill="black"/>
<rect x="26" y="157" width="127" height="19" rx="9.5" fill="#D9D9D9"/>
<path d="M37.8343 163.839V162.894H43.4628V163.839H41.1936V170.167H40.0999V163.839H37.8343ZM45.6832 166.928V170.167H44.6214V162.894H45.669V165.6H45.7364C45.8643 165.306 46.0596 165.073 46.3224 164.9C46.5851 164.728 46.9284 164.641 47.3522 164.641C47.7262 164.641 48.053 164.718 48.3323 164.872C48.614 165.026 48.8318 165.255 48.9857 165.561C49.142 165.864 49.2201 166.243 49.2201 166.697V170.167H48.1583V166.825C48.1583 166.425 48.0553 166.115 47.8494 165.895C47.6434 165.672 47.3569 165.561 46.99 165.561C46.739 165.561 46.5141 165.614 46.3153 165.721C46.1188 165.827 45.9637 165.983 45.8501 166.189C45.7388 166.393 45.6832 166.639 45.6832 166.928ZM50.637 170.167V164.712H51.6988V170.167H50.637ZM51.1732 163.871C50.9886 163.871 50.8299 163.809 50.6974 163.686C50.5672 163.56 50.5021 163.411 50.5021 163.238C50.5021 163.063 50.5672 162.914 50.6974 162.791C50.8299 162.665 50.9886 162.603 51.1732 162.603C51.3579 162.603 51.5153 162.665 51.6455 162.791C51.7781 162.914 51.8444 163.063 51.8444 163.238C51.8444 163.411 51.7781 163.56 51.6455 163.686C51.5153 163.809 51.3579 163.871 51.1732 163.871ZM54.189 166.928V170.167H53.1272V164.712H54.1464V165.6H54.2139C54.3394 165.311 54.5358 165.079 54.8034 164.904C55.0733 164.729 55.413 164.641 55.8225 164.641C56.1942 164.641 56.5197 164.719 56.7991 164.875C57.0785 165.029 57.2951 165.259 57.449 165.564C57.6028 165.87 57.6798 166.247 57.6798 166.697V170.167H56.618V166.825C56.618 166.43 56.515 166.121 56.309 165.898C56.1031 165.673 55.8202 165.561 55.4603 165.561C55.2141 165.561 54.9951 165.614 54.8034 165.721C54.614 165.827 54.4636 165.983 54.3524 166.189C54.2435 166.393 54.189 166.639 54.189 166.928ZM61.8355 170.167V162.894H64.4278C64.9913 162.894 65.4588 162.991 65.8305 163.185C66.2046 163.379 66.4839 163.648 66.6686 163.991C66.8533 164.332 66.9456 164.726 66.9456 165.174C66.9456 165.619 66.8521 166.011 66.6651 166.349C66.4804 166.685 66.201 166.947 65.827 167.134C65.4553 167.321 64.9877 167.415 64.4243 167.415H62.4605V166.47H64.3249C64.68 166.47 64.9688 166.419 65.1913 166.317C65.4162 166.215 65.5808 166.067 65.6849 165.873C65.7891 165.679 65.8412 165.446 65.8412 165.174C65.8412 164.899 65.7879 164.661 65.6814 164.46C65.5772 164.259 65.4127 164.105 65.1878 163.998C64.9652 163.889 64.6729 163.835 64.3106 163.835H62.9328V170.167H61.8355ZM65.4257 166.885L67.2226 170.167H65.9726L64.2112 166.885H65.4257ZM70.4781 170.277C69.9407 170.277 69.4778 170.162 69.0896 169.932C68.7037 169.7 68.4054 169.375 68.1947 168.956C67.9864 168.534 67.8822 168.041 67.8822 167.475C67.8822 166.916 67.9864 166.424 68.1947 165.998C68.4054 165.572 68.699 165.239 69.0754 165C69.4542 164.761 69.8969 164.641 70.4035 164.641C70.7113 164.641 71.0096 164.692 71.2984 164.794C71.5872 164.896 71.8465 165.055 72.0761 165.273C72.3057 165.491 72.4868 165.774 72.6194 166.122C72.752 166.468 72.8183 166.888 72.8183 167.383V167.759H68.4823V166.964H71.7778C71.7778 166.684 71.721 166.437 71.6073 166.221C71.4937 166.004 71.3339 165.832 71.1279 165.706C70.9243 165.581 70.6852 165.518 70.4106 165.518C70.1123 165.518 69.8519 165.592 69.6294 165.738C69.4092 165.883 69.2387 166.072 69.118 166.307C68.9996 166.539 68.9404 166.791 68.9404 167.063V167.684C68.9404 168.049 69.0044 168.359 69.1322 168.615C69.2624 168.871 69.4435 169.066 69.6755 169.201C69.9075 169.333 70.1786 169.4 70.4887 169.4C70.69 169.4 70.8734 169.371 71.0392 169.314C71.2049 169.255 71.3481 169.168 71.4688 169.052C71.5896 168.936 71.6819 168.792 71.7458 168.622L72.7508 168.803C72.6703 169.099 72.5259 169.358 72.3176 169.581C72.1116 169.801 71.8524 169.973 71.5399 170.096C71.2297 170.216 70.8758 170.277 70.4781 170.277ZM76.5923 164.712V165.564H73.5099V164.712H76.5923ZM74.355 170.167V164.08C74.355 163.739 74.4296 163.456 74.5788 163.231C74.7279 163.004 74.9256 162.835 75.1718 162.723C75.418 162.61 75.6855 162.553 75.9744 162.553C76.1874 162.553 76.3697 162.571 76.5212 162.606C76.6727 162.639 76.7852 162.67 76.8586 162.699L76.61 163.558C76.5603 163.544 76.4964 163.527 76.4182 163.508C76.3401 163.487 76.2454 163.476 76.1342 163.476C75.8761 163.476 75.6914 163.54 75.5802 163.668C75.4713 163.796 75.4168 163.981 75.4168 164.222V170.167H74.355ZM77.6878 170.167V164.712H78.7141V165.579H78.7709C78.8703 165.285 79.0455 165.054 79.2964 164.886C79.5498 164.716 79.8362 164.63 80.1558 164.63C80.2221 164.63 80.3002 164.633 80.3902 164.638C80.4825 164.642 80.5547 164.648 80.6068 164.655V165.671C80.5642 165.659 80.4884 165.646 80.3795 165.632C80.2706 165.615 80.1617 165.607 80.0528 165.607C79.8019 165.607 79.5782 165.66 79.3817 165.767C79.1875 165.871 79.0337 166.017 78.92 166.204C78.8064 166.388 78.7496 166.599 78.7496 166.836V170.167H77.6878ZM83.0642 170.287C82.7186 170.287 82.4061 170.223 82.1267 170.096C81.8473 169.965 81.626 169.777 81.4626 169.531C81.3017 169.285 81.2212 168.983 81.2212 168.625C81.2212 168.318 81.2803 168.064 81.3987 167.866C81.5171 167.667 81.6769 167.509 81.8781 167.393C82.0793 167.277 82.3043 167.19 82.5528 167.13C82.8014 167.071 83.0547 167.026 83.3128 166.996C83.6395 166.958 83.9046 166.927 84.1082 166.903C84.3118 166.877 84.4598 166.836 84.5521 166.779C84.6445 166.722 84.6906 166.63 84.6906 166.502V166.477C84.6906 166.167 84.603 165.927 84.4278 165.756C84.255 165.586 83.997 165.5 83.6537 165.5C83.2962 165.5 83.0145 165.58 82.8085 165.738C82.6049 165.895 82.4641 166.069 82.3859 166.26L81.3881 166.033C81.5064 165.702 81.6793 165.434 81.9065 165.231C82.1362 165.025 82.4001 164.875 82.6984 164.783C82.9967 164.688 83.3104 164.641 83.6395 164.641C83.8573 164.641 84.0881 164.667 84.332 164.719C84.5782 164.769 84.8078 164.861 85.0209 164.996C85.2363 165.131 85.4127 165.324 85.55 165.575C85.6873 165.824 85.756 166.147 85.756 166.545V170.167H84.719V169.421H84.6764C84.6078 169.558 84.5048 169.693 84.3675 169.826C84.2302 169.958 84.0538 170.068 83.8383 170.156C83.6229 170.244 83.3649 170.287 83.0642 170.287ZM83.295 169.435C83.5886 169.435 83.8395 169.377 84.0479 169.261C84.2586 169.145 84.4184 168.994 84.5273 168.807C84.6385 168.617 84.6942 168.415 84.6942 168.199V167.496C84.6563 167.534 84.5829 167.57 84.474 167.603C84.3675 167.634 84.2455 167.661 84.1082 167.684C83.9709 167.706 83.8372 167.726 83.707 167.745C83.5767 167.761 83.4678 167.776 83.3802 167.787C83.1743 167.813 82.9861 167.857 82.8156 167.919C82.6475 167.98 82.5126 168.069 82.4108 168.185C82.3114 168.299 82.2616 168.45 82.2616 168.64C82.2616 168.902 82.3587 169.101 82.5528 169.236C82.747 169.369 82.9944 169.435 83.295 169.435ZM89.4678 170.277C88.9398 170.277 88.4853 170.157 88.1041 169.918C87.7254 169.677 87.4342 169.344 87.2306 168.92C87.027 168.496 86.9252 168.011 86.9252 167.464C86.9252 166.91 87.0293 166.421 87.2377 165.998C87.446 165.572 87.7396 165.239 88.1184 165C88.4971 164.761 88.9434 164.641 89.4571 164.641C89.8714 164.641 90.2407 164.718 90.5651 164.872C90.8894 165.023 91.151 165.237 91.3499 165.511C91.5511 165.786 91.6707 166.107 91.7086 166.473H90.6752C90.6184 166.218 90.4881 165.998 90.2845 165.813C90.0833 165.628 89.8134 165.536 89.4749 165.536C89.179 165.536 88.9197 165.614 88.6972 165.77C88.477 165.924 88.3054 166.144 88.1823 166.431C88.0592 166.715 87.9976 167.051 87.9976 167.439C87.9976 167.837 88.058 168.18 88.1787 168.469C88.2995 168.758 88.4699 168.982 88.6901 169.14C88.9126 169.299 89.1742 169.378 89.4749 169.378C89.6761 169.378 89.8584 169.342 90.0218 169.268C90.1875 169.192 90.326 169.085 90.4372 168.945C90.5509 168.805 90.6302 168.637 90.6752 168.441H91.7086C91.6707 168.794 91.5559 169.108 91.3641 169.385C91.1723 169.662 90.9155 169.88 90.5935 170.039C90.2739 170.197 89.8987 170.277 89.4678 170.277ZM95.3902 164.712V165.564H92.4108V164.712H95.3902ZM93.2098 163.405H94.2716V168.565C94.2716 168.771 94.3024 168.926 94.3639 169.03C94.4255 169.132 94.5048 169.202 94.6018 169.24C94.7013 169.275 94.809 169.293 94.925 169.293C95.0102 169.293 95.0848 169.287 95.1487 169.275C95.2126 169.263 95.2624 169.254 95.2979 169.247L95.4896 170.124C95.4281 170.148 95.3405 170.171 95.2268 170.195C95.1132 170.221 94.9712 170.235 94.8007 170.238C94.5213 170.242 94.2609 170.193 94.0195 170.089C93.778 169.984 93.5827 169.823 93.4335 169.606C93.2844 169.388 93.2098 169.114 93.2098 168.785V163.405ZM96.5647 170.167V164.712H97.6265V170.167H96.5647ZM97.101 163.871C96.9163 163.871 96.7577 163.809 96.6251 163.686C96.4949 163.56 96.4298 163.411 96.4298 163.238C96.4298 163.063 96.4949 162.914 96.6251 162.791C96.7577 162.665 96.9163 162.603 97.101 162.603C97.2856 162.603 97.443 162.665 97.5733 162.791C97.7058 162.914 97.7721 163.063 97.7721 163.238C97.7721 163.411 97.7058 163.56 97.5733 163.686C97.443 163.809 97.2856 163.871 97.101 163.871ZM103.721 164.712L101.743 170.167H100.607L98.6253 164.712H99.7652L101.147 168.91H101.203L102.581 164.712H103.721ZM106.884 170.277C106.347 170.277 105.884 170.162 105.496 169.932C105.11 169.7 104.812 169.375 104.601 168.956C104.393 168.534 104.288 168.041 104.288 167.475C104.288 166.916 104.393 166.424 104.601 165.998C104.812 165.572 105.105 165.239 105.482 165C105.86 164.761 106.303 164.641 106.81 164.641C107.118 164.641 107.416 164.692 107.705 164.794C107.993 164.896 108.253 165.055 108.482 165.273C108.712 165.491 108.893 165.774 109.026 166.122C109.158 166.468 109.225 166.888 109.225 167.383V167.759H104.889V166.964H108.184C108.184 166.684 108.127 166.437 108.014 166.221C107.9 166.004 107.74 165.832 107.534 165.706C107.331 165.581 107.091 165.518 106.817 165.518C106.519 165.518 106.258 165.592 106.036 165.738C105.815 165.883 105.645 166.072 105.524 166.307C105.406 166.539 105.347 166.791 105.347 167.063V167.684C105.347 168.049 105.411 168.359 105.538 168.615C105.669 168.871 105.85 169.066 106.082 169.201C106.314 169.333 106.585 169.4 106.895 169.4C107.096 169.4 107.28 169.371 107.445 169.314C107.611 169.255 107.754 169.168 107.875 169.052C107.996 168.936 108.088 168.792 108.152 168.622L109.157 168.803C109.077 169.099 108.932 169.358 108.724 169.581C108.518 169.801 108.259 169.973 107.946 170.096C107.636 170.216 107.282 170.277 106.884 170.277ZM119.452 166.53C119.452 167.307 119.31 167.974 119.026 168.533C118.742 169.089 118.352 169.518 117.857 169.819C117.365 170.117 116.805 170.266 116.178 170.266C115.548 170.266 114.986 170.117 114.491 169.819C113.998 169.518 113.61 169.088 113.326 168.53C113.042 167.971 112.9 167.304 112.9 166.53C112.9 165.754 113.042 165.087 113.326 164.531C113.61 163.972 113.998 163.544 114.491 163.246C114.986 162.945 115.548 162.795 116.178 162.795C116.805 162.795 117.365 162.945 117.857 163.246C118.352 163.544 118.742 163.972 119.026 164.531C119.31 165.087 119.452 165.754 119.452 166.53ZM118.365 166.53C118.365 165.938 118.269 165.44 118.078 165.035C117.888 164.628 117.628 164.32 117.296 164.112C116.967 163.901 116.594 163.796 116.178 163.796C115.759 163.796 115.385 163.901 115.055 164.112C114.726 164.32 114.466 164.628 114.274 165.035C114.085 165.44 113.99 165.938 113.99 166.53C113.99 167.122 114.085 167.622 114.274 168.029C114.466 168.434 114.726 168.741 115.055 168.952C115.385 169.161 115.759 169.265 116.178 169.265C116.594 169.265 116.967 169.161 117.296 168.952C117.628 168.741 117.888 168.434 118.078 168.029C118.269 167.622 118.365 167.122 118.365 166.53ZM120.82 170.167V162.894H121.882V165.596H121.946C122.007 165.483 122.096 165.351 122.212 165.202C122.328 165.053 122.489 164.923 122.695 164.812C122.901 164.698 123.173 164.641 123.512 164.641C123.952 164.641 124.345 164.752 124.691 164.975C125.036 165.197 125.307 165.518 125.504 165.937C125.703 166.356 125.802 166.861 125.802 167.45C125.802 168.04 125.704 168.545 125.507 168.966C125.311 169.385 125.041 169.709 124.698 169.936C124.354 170.161 123.963 170.273 123.522 170.273C123.191 170.273 122.92 170.218 122.709 170.106C122.501 169.995 122.337 169.865 122.219 169.716C122.101 169.567 122.01 169.434 121.946 169.318H121.857V170.167H120.82ZM121.86 167.439C121.86 167.823 121.916 168.159 122.027 168.448C122.139 168.737 122.3 168.963 122.51 169.126C122.721 169.287 122.979 169.368 123.284 169.368C123.602 169.368 123.867 169.284 124.08 169.116C124.293 168.945 124.454 168.714 124.563 168.423C124.674 168.132 124.73 167.804 124.73 167.439C124.73 167.08 124.675 166.756 124.566 166.47C124.46 166.183 124.299 165.957 124.083 165.792C123.87 165.626 123.604 165.543 123.284 165.543C122.977 165.543 122.716 165.622 122.503 165.781C122.292 165.94 122.133 166.161 122.024 166.445C121.915 166.729 121.86 167.061 121.86 167.439ZM126.994 164.712H128.056V170.522C128.056 170.886 127.99 171.194 127.857 171.445C127.727 171.696 127.533 171.887 127.275 172.017C127.019 172.147 126.703 172.212 126.327 172.212C126.289 172.212 126.253 172.212 126.22 172.212C126.185 172.212 126.148 172.211 126.11 172.209V171.296C126.143 171.296 126.173 171.296 126.199 171.296C126.223 171.296 126.25 171.296 126.281 171.296C126.532 171.296 126.713 171.228 126.824 171.094C126.938 170.961 126.994 170.768 126.994 170.515V164.712ZM127.52 163.871C127.335 163.871 127.177 163.809 127.044 163.686C126.914 163.56 126.849 163.411 126.849 163.238C126.849 163.063 126.914 162.914 127.044 162.791C127.177 162.665 127.335 162.603 127.52 162.603C127.705 162.603 127.862 162.665 127.992 162.791C128.125 162.914 128.191 163.063 128.191 163.238C128.191 163.411 128.125 163.56 127.992 163.686C127.862 163.809 127.705 163.871 127.52 163.871ZM131.836 170.277C131.298 170.277 130.835 170.162 130.447 169.932C130.061 169.7 129.763 169.375 129.552 168.956C129.344 168.534 129.24 168.041 129.24 167.475C129.24 166.916 129.344 166.424 129.552 165.998C129.763 165.572 130.056 165.239 130.433 165C130.812 164.761 131.254 164.641 131.761 164.641C132.069 164.641 132.367 164.692 132.656 164.794C132.945 164.896 133.204 165.055 133.434 165.273C133.663 165.491 133.844 165.774 133.977 166.122C134.109 166.468 134.176 166.888 134.176 167.383V167.759H129.84V166.964H133.135C133.135 166.684 133.078 166.437 132.965 166.221C132.851 166.004 132.691 165.832 132.485 165.706C132.282 165.581 132.043 165.518 131.768 165.518C131.47 165.518 131.209 165.592 130.987 165.738C130.767 165.883 130.596 166.072 130.475 166.307C130.357 166.539 130.298 166.791 130.298 167.063V167.684C130.298 168.049 130.362 168.359 130.49 168.615C130.62 168.871 130.801 169.066 131.033 169.201C131.265 169.333 131.536 169.4 131.846 169.4C132.047 169.4 132.231 169.371 132.397 169.314C132.562 169.255 132.706 169.168 132.826 169.052C132.947 168.936 133.039 168.792 133.103 168.622L134.108 168.803C134.028 169.099 133.883 169.358 133.675 169.581C133.469 169.801 133.21 169.973 132.897 170.096C132.587 170.216 132.233 170.277 131.836 170.277ZM137.651 170.277C137.123 170.277 136.669 170.157 136.288 169.918C135.909 169.677 135.618 169.344 135.414 168.92C135.211 168.496 135.109 168.011 135.109 167.464C135.109 166.91 135.213 166.421 135.421 165.998C135.63 165.572 135.923 165.239 136.302 165C136.681 164.761 137.127 164.641 137.641 164.641C138.055 164.641 138.424 164.718 138.749 164.872C139.073 165.023 139.335 165.237 139.533 165.511C139.735 165.786 139.854 166.107 139.892 166.473H138.859C138.802 166.218 138.672 165.998 138.468 165.813C138.267 165.628 137.997 165.536 137.658 165.536C137.363 165.536 137.103 165.614 136.881 165.77C136.661 165.924 136.489 166.144 136.366 166.431C136.243 166.715 136.181 167.051 136.181 167.439C136.181 167.837 136.242 168.18 136.362 168.469C136.483 168.758 136.654 168.982 136.874 169.14C137.096 169.299 137.358 169.378 137.658 169.378C137.86 169.378 138.042 169.342 138.205 169.268C138.371 169.192 138.51 169.085 138.621 168.945C138.734 168.805 138.814 168.637 138.859 168.441H139.892C139.854 168.794 139.739 169.108 139.548 169.385C139.356 169.662 139.099 169.88 138.777 170.039C138.457 170.197 138.082 170.277 137.651 170.277ZM143.574 164.712V165.564H140.594V164.712H143.574ZM141.393 163.405H142.455V168.565C142.455 168.771 142.486 168.926 142.548 169.03C142.609 169.132 142.688 169.202 142.785 169.24C142.885 169.275 142.993 169.293 143.109 169.293C143.194 169.293 143.268 169.287 143.332 169.275C143.396 169.263 143.446 169.254 143.481 169.247L143.673 170.124C143.612 170.148 143.524 170.171 143.41 170.195C143.297 170.221 143.155 170.235 142.984 170.238C142.705 170.242 142.445 170.193 142.203 170.089C141.962 169.984 141.766 169.823 141.617 169.606C141.468 169.388 141.393 169.114 141.393 168.785V163.405Z" fill="black"/>
</svg>
