# 3ds Max Wavefront OBJ Exporter v0.97b - (c)2007 guruware
# File Created: 14.05.2014 09:45:05

#
# object diamond
#

v  0.8296 -1.2260 0.0993
v  0.0687 -0.9154 0.4403
v  -0.0157 -1.8703 0.1686
v  -0.8101 -1.2001 0.0993
v  0.0000 0.0000 0.0000
# 5 vertices

vn -0.4082 0.0023 0.9129
vn -0.0470 -0.1441 0.9884
vn 0.0136 0.2725 0.9620
vn 0.0136 0.2725 0.9620
vn -0.0470 -0.1441 0.9884
vn 0.5624 -0.1491 0.8133
vn -0.4082 0.0023 0.9129
vn 0.0064 -0.4331 0.9013
vn -0.0470 -0.1441 0.9884
vn -0.0470 -0.1441 0.9884
vn 0.0064 -0.4331 0.9013
vn 0.5624 -0.1491 0.8133
# 12 vertex normals

vt 0.0005 0.6554 0.2258
vt 0.4641 0.4895 0.9995
vt 0.5155 0.9995 0.3830
vt 0.9995 0.6415 0.2258
vt 0.5059 0.0005 0.0005
# 5 texture coords

g diamond
s 1
f 1/1/1 2/2/2 3/3/3 
f 3/3/4 2/2/5 4/4/6 
f 1/1/7 5/5/8 2/2/9 
f 2/2/10 5/5/11 4/4/12 
# 4 faces

