# Blender v2.74 (sub 1) OBJ File: ''
# www.blender.org
o *Low_Poly_Cage_Object_Hard_Edges
v 1.943507 0.508036 -1.592281
v 2.107614 0.508036 -1.482663
v 2.449521 0.488479 -1.824468
v 2.128585 0.488479 -2.038910
v 2.299613 0.488479 -1.947493
v 1.371446 0.488479 -2.038911
v 1.556521 0.508036 -1.592281
v 1.557022 0.488479 -2.095205
v 1.749942 0.508036 -1.630755
v 1.750014 0.488479 -2.114213
v 1.943008 0.488479 -2.095204
v 0.759456 0.488478 -1.149089
v 1.242863 0.508036 -1.125317
v 1.282694 0.508036 -1.318454
v 1.241054 0.508036 -0.999965
v 1.404163 1.991022 -1.470837
v 1.562835 1.991022 -1.576858
v 0.779424 0.488478 -1.318100
v 0.836066 0.488478 -1.503532
v 0.927482 0.488478 -1.674560
v 1.392414 0.508036 -1.482663
v 1.050509 0.488479 -1.824469
v 1.200417 0.488479 -1.947494
v 1.045653 0.000001 -1.829349
v 2.217180 0.508036 -1.318531
v 2.257220 0.508036 -1.125348
v 3.244951 0.500000 -0.998419
v 1.944330 0.000001 -2.101959
v 0.759036 0.490664 -1.000091
v 1.260313 1.991947 -1.124492
v 2.571915 0.488478 -1.674109
v 1.262952 1.987566 -0.512344
v 1.258535 1.991947 -1.000000
v 2.257646 0.991947 -1.125383
v 1.742349 1.338912 -0.491922
v 1.737780 1.012433 -0.487743
v 1.749600 1.002205 0.338769
v 2.749665 2.005398 -0.498647
v 2.751468 1.995249 0.000001
v 3.237765 1.987766 0.987768
v 1.789551 1.459725 -0.491917
v 1.772673 1.337582 0.331349
v 1.910827 1.504754 -0.494606
v 1.811144 1.440610 0.334181
v 3.244998 1.498359 -1.000471
v 3.244897 1.998278 -0.500098
v 3.244951 1.000111 -0.998420
v 2.762234 2.487766 -0.512439
v 2.248409 1.505048 0.000014
v 2.237045 1.512189 -0.487733
v 1.913130 1.485972 0.336428
v 2.739949 1.459781 0.460675
v 2.743154 1.504701 0.339180
v 2.751610 2.000000 -0.995047
v 3.237767 2.487766 -0.987130
v 2.217502 0.991947 -1.318668
v 3.236114 1.014146 -1.464072
v 1.247039 0.505369 1.002986
v 3.236051 0.486563 1.487635
v 3.245048 0.500000 0.998392
v 1.823750 1.336860 0.425785
v 1.838725 1.415558 0.410810
v 1.915869 1.440647 0.438951
v 2.762233 1.987766 0.987768
v 2.740478 1.339273 0.508397
v 1.918689 1.337589 0.477553
v 1.911217 1.002237 0.500469
v 2.737380 1.013392 0.513985
v 1.797217 1.001093 0.452814
v 2.751467 1.000113 0.995250
v 3.236114 1.486113 -1.464072
v 2.737625 1.513908 0.013451
v 3.237767 2.487766 -0.512439
v 2.762235 2.487766 -0.987130
v 2.262845 0.513640 -1.013084
v 2.262854 0.986288 -1.013046
v 2.263385 1.987300 -0.012013
v 2.250323 1.994856 -0.501713
v 1.263017 0.987695 0.987799
v 1.255368 0.998060 -0.500076
v 0.764556 0.483837 1.484228
v 2.105114 1.000113 -1.480799
v 2.095839 1.991022 -1.470836
v 1.937167 1.991022 -1.576858
v 1.750001 1.991022 -1.614088
v 2.217502 1.508664 -1.318668
v 2.257646 1.508664 -1.125383
v 2.263514 1.513400 -1.013716
v 2.672637 0.492003 -1.499570
v 1.298142 1.991021 -1.312165
v 0.752595 0.000000 -1.149444
v 0.750001 0.001820 -1.001026
v 1.750001 0.000001 -2.121099
v 2.201860 1.991022 -1.312165
v 2.240145 1.991947 -1.124494
v 2.105115 1.500461 -1.480798
v 2.250326 1.994950 -0.998421
v 0.829726 0.000000 -1.506191
v 3.232361 0.482503 -1.478687
v 2.303404 0.000001 -1.953226
v 2.686244 0.000000 -1.512435
v 1.368811 0.000001 -2.045276
v 2.454349 0.000001 -1.829348
v 2.131192 0.000001 -2.045275
v 3.233541 0.000000 -1.488606
v 3.240885 -0.000000 1.490798
v 0.760153 -0.000000 1.488610
v 0.921775 0.000000 -1.678404
v 2.577618 0.000276 -1.677898
v 1.555673 0.000001 -2.101959
v 1.196599 0.000001 -1.953227
v 0.772735 0.001026 -1.319715
vt 0.753906 0.851074
vt 0.785645 0.846680
vt 0.815430 0.903809
vt 0.775391 0.913574
vt 0.794922 0.909180
vt 0.698730 0.920898
vt 0.694336 0.854492
vt 0.717285 0.919434
vt 0.724609 0.854004
vt 0.736328 0.916016
vt 0.755859 0.915527
vt 0.589355 0.908691
vt 0.604492 0.847656
vt 0.634277 0.851562
vt 0.585938 0.842285
vt 0.667969 0.661133
vt 0.692871 0.661621
vt 0.605957 0.913574
vt 0.625000 0.916504
vt 0.643066 0.917480
vt 0.664551 0.854492
vt 0.661621 0.917480
vt 0.680176 0.920410
vt 0.659180 0.982422
vt 0.813965 0.838867
vt 0.835938 0.823730
vt 0.954590 0.870117
vt 0.764648 0.978516
vt 0.575195 0.908203
vt 0.619141 0.658691
vt 0.836914 0.897949
vt 0.539062 0.651367
vt 0.603027 0.656738
vt 0.819336 0.769043
vt 0.222656 0.643066
vt 0.226074 0.605469
vt 0.310547 0.549316
vt 0.852051 0.079590
vt 0.788574 0.079590
vt 0.663086 0.017578
vt 0.226562 0.660645
vt 0.316895 0.593750
vt 0.236816 0.673340
vt 0.320801 0.606445
vt 0.849121 0.491211
vt 0.788086 0.552246
vt 0.849121 0.424805
vt 0.912109 0.675781
vt 0.912109 0.737793
vt 0.849121 0.737793
vt 0.327148 0.674805
vt 0.270996 0.694824
vt 0.327148 0.618164
vt 0.424805 0.661621
vt 0.414062 0.673340
vt 0.914551 0.079590
vt 0.852051 0.017578
vt 0.849121 0.615234
vt 0.161133 0.919922
vt 0.138184 0.789551
vt 0.196289 0.789551
vt 0.472168 0.268066
vt 0.410156 0.017578
vt 0.472168 0.017578
vt 0.327148 0.591309
vt 0.327637 0.601074
vt 0.334473 0.606445
vt 0.663086 0.079590
vt 0.428711 0.645020
vt 0.338867 0.592773
vt 0.347168 0.548828
vt 0.431152 0.608398
vt 0.327148 0.544434
vt 0.535156 0.079590
vt 0.075195 0.732422
vt 0.138184 0.732910
vt 0.075195 0.789062
vt 0.382812 0.696289
vt 0.849121 0.675781
vt 0.914551 0.017578
vt 0.788086 0.615234
vt 0.259766 0.912109
vt 0.199707 0.912598
vt 0.327148 0.743652
vt 0.260742 0.753906
vt 0.390625 0.753418
vt 0.515137 0.704590
vt 0.327148 0.446289
vt 0.478027 0.573242
vt 0.177734 0.570801
vt 0.410156 0.330566
vt 0.137695 0.935547
vt 0.912109 0.615234
vt 0.852051 0.144531
vt 0.912109 0.552246
vt 0.535156 0.268066
vt 0.975586 0.166504
vt 0.988770 0.186523
vt 0.993164 0.210449
vt 0.788574 0.144531
vt 0.055664 0.921387
vt 0.031738 0.915527
vt 0.976074 0.491211
vt 0.017090 0.914551
vt 0.017090 0.789062
vt 0.859863 0.889648
vt 0.644043 0.660156
vt 0.582520 0.973145
vt 0.568848 0.970703
vt 0.743164 0.980957
vt 0.774414 0.784180
vt 0.797363 0.777344
vt 0.761719 0.657715
vt 0.782227 0.650879
vt 0.798340 0.712402
vt 0.740723 0.660156
vt 0.716309 0.661133
vt 0.833496 0.766602
vt 0.803711 0.642578
vt 0.823730 0.702637
vt 0.770508 0.720215
vt 0.836426 0.695312
vt 0.818359 0.636719
vt 0.618652 0.979492
vt 0.281250 0.908203
vt 0.928223 0.922363
vt 0.849609 0.814941
vt 0.808594 0.971191
vt 0.321777 0.842285
vt 0.330078 0.777832
vt 0.524902 0.777832
vt 0.185059 0.914062
vt 0.260254 0.789551
vt 0.914551 0.144531
vt 0.931152 0.147461
vt 0.849121 0.360352
vt 0.976074 0.552246
vt 0.982910 0.360352
vt 0.912109 0.360352
vt 0.982910 0.298828
vt 0.139648 0.700195
vt 0.955078 0.152344
vt 0.074707 0.936035
vt 0.596680 0.552246
vt 0.852051 0.271484
vt 0.929688 0.271484
vt 0.914551 0.271484
vt 0.974609 0.254395
vt 0.954102 0.267090
vt 0.988281 0.234375
vt 0.596680 0.360352
vt 0.700684 0.983887
vt 0.830566 0.965332
vt 0.786133 0.975098
vt 0.912109 0.298828
vt 0.534180 0.360352
vt 0.533691 0.298828
vt 0.348633 0.330566
vt 0.348633 0.017578
vt 0.281250 0.971680
vt 0.638672 0.981934
vt 0.877930 0.954590
vt 0.854004 0.959961
vt 0.722168 0.982422
vt 0.679688 0.983398
vt 0.598633 0.976074
vt 0.312500 0.417969
vt 0.333984 0.350586
vt 0.323730 0.395996
vt 0.086914 0.398438
vt 0.016602 0.398438
vt 0.016113 0.015137
vt 0.334473 0.331543
vt 0.333984 0.015137
vt 0.231934 0.471680
vt 0.206543 0.474121
vt 0.255371 0.464355
vt 0.182129 0.472168
vt 0.136230 0.454102
vt 0.158203 0.464355
vt 0.101562 0.418945
vt 0.117188 0.438477
vt 0.277344 0.453613
vt 0.296387 0.437500
vt 0.331543 0.372070
vn 0.255700 0.741800 -0.620000
vn 0.475200 0.740600 -0.475000
vn 0.521500 0.676900 -0.519400
vn 0.281700 0.676900 -0.680000
vn 0.409000 0.677200 -0.611600
vn -0.281700 0.676900 -0.680000
vn -0.256300 0.742400 -0.618900
vn -0.143200 0.677200 -0.721700
vn -0.000000 0.742200 -0.670200
vn 0.000000 0.677300 -0.735600
vn 0.143200 0.677200 -0.721700
vn -0.726800 0.685000 -0.049200
vn -0.691700 0.718200 -0.075700
vn -0.618800 0.741700 -0.258800
vn -0.713600 0.700600 -0.001600
vn -0.524300 0.671100 -0.524100
vn -0.284100 0.669900 -0.686000
vn -0.718500 0.679000 -0.150600
vn -0.679600 0.677100 -0.282200
vn -0.611600 0.677200 -0.409000
vn -0.473800 0.742200 -0.473900
vn -0.520200 0.677300 -0.520200
vn -0.409000 0.677200 -0.611600
vn -0.518100 -0.680600 -0.518100
vn 0.614000 0.742700 -0.267300
vn 0.681100 0.724900 -0.103000
vn 0.906600 0.284000 -0.312100
vn 0.142900 -0.680600 -0.718600
vn -0.712100 0.702000 -0.003800
vn -0.716300 0.693500 -0.077400
vn 0.601200 0.679400 -0.420600
vn -0.577500 0.583200 0.571200
vn -0.693200 0.720700 0.003800
vn 0.680200 -0.725900 -0.102100
vn -0.647700 0.136700 0.749500
vn -0.584300 0.573000 0.574600
vn -0.621100 0.769900 0.146700
vn -0.300700 0.905300 0.299900
vn -0.316000 0.897400 0.308000
vn 0.576000 0.577600 0.578400
vn -0.404700 0.426300 0.809000
vn -0.946800 0.201800 0.250600
vn -0.132700 0.646100 0.751600
vn -0.716900 0.657600 0.231300
vn 0.901300 0.301100 -0.311300
vn 0.902500 0.311500 0.297400
vn 0.903800 -0.293600 -0.311300
vn -0.571000 0.590900 0.569800
vn -0.323100 0.892500 0.314600
vn -0.574100 0.579800 0.578100
vn -0.216200 0.953200 0.211000
vn -0.805400 0.430100 0.407700
vn -0.744300 0.655500 0.127900
vn -0.292200 0.326500 -0.898900
vn 0.574600 0.583800 -0.573600
vn 0.607800 -0.740300 -0.287400
vn 0.581100 -0.564100 -0.586500
vn -0.308600 0.899700 0.308700
vn 0.576500 0.571600 0.583900
vn 0.913100 0.249000 0.322900
vn -0.699500 0.191400 0.688500
vn -0.619700 0.484400 0.617500
vn -0.235200 0.656700 0.716500
vn -0.567800 0.582100 0.581900
vn -0.750800 0.131500 0.647300
vn -0.243100 0.205800 0.947900
vn -0.140500 0.770100 0.622200
vn -0.577900 0.577100 0.577100
vn -0.404000 0.824500 0.396200
vn -0.292500 0.303000 0.907000
vn 0.580400 0.566100 -0.585300
vn -0.577800 0.580000 0.574200
vn 0.574000 0.587800 0.570100
vn -0.571200 0.587300 -0.573300
vn 0.571500 0.560100 -0.599700
vn 0.572500 -0.559800 -0.599000
vn -0.571900 0.584800 0.575200
vn -0.306200 0.902300 0.303400
vn -0.572800 0.587500 0.571600
vn -0.901200 0.308500 0.304200
vn -0.578900 0.573300 0.579800
vn 0.500100 -0.152700 -0.852400
vn 0.519300 0.676900 -0.521600
vn 0.280100 0.671800 -0.685600
vn -0.000900 0.669700 -0.742600
vn 0.600000 0.749500 -0.279500
vn 0.672700 0.732400 -0.104600
vn 0.562300 0.577300 -0.591900
vn 0.287700 0.826800 -0.483400
vn -0.688700 0.665400 -0.287900
vn -0.719600 -0.693000 -0.044000
vn -0.716600 -0.697500 -0.000400
vn 0.000000 -0.680600 -0.732700
vn 0.678300 0.677100 -0.285300
vn 0.708400 0.696600 -0.113300
vn 0.476400 0.166400 -0.863300
vn 0.284800 0.902400 -0.323300
vn -0.676400 -0.680800 -0.280900
vn 0.586200 0.570100 -0.575600
vn 0.407000 -0.680600 -0.609200
vn 0.282600 -0.816600 -0.503300
vn -0.280400 -0.680500 -0.676900
vn 0.519400 -0.680100 -0.517300
vn 0.280400 -0.680600 -0.676900
vn 0.583500 -0.576100 -0.572300
vn 0.580500 -0.572900 0.578600
vn -0.579100 -0.572900 0.579900
vn -0.609200 -0.680600 -0.407100
vn 0.596400 -0.677500 -0.430400
vn -0.142900 -0.680600 -0.718600
vn -0.407100 -0.680600 -0.609200
vn -0.736000 -0.659000 -0.154900
vn 0.000000 -1.000000 -0.000000
vn 0.002300 -0.999900 0.012300
vn 0.000000 -1.000000 -0.000700
vn -0.000900 -1.000000 0.000200
vn 0.022100 -0.999600 -0.016200
vn -0.061400 -0.998000 -0.013300
s 1
f 1/1/1 2/2/2 3/3/3
f 4/4/4 1/1/1 5/5/5
f 6/6/6 7/7/7 8/8/8
f 7/7/7 9/9/9 10/10/10
f 9/9/9 1/1/1 10/10/10
f 11/11/11 1/1/1 4/4/4
f 12/12/12 13/13/13 14/14/14
f 15/15/15 13/13/13 12/12/12
f 16/16/16 17/17/17 7/7/7
f 18/18/18 14/14/14 19/19/19
f 19/19/19 14/14/14 20/20/20
f 14/14/14 21/21/21 22/22/22
f 22/22/22 21/21/21 7/7/7
f 23/23/23 7/7/7 6/6/6
f 24/24/24 22/22/22 23/23/23
f 3/3/3 2/2/2 25/25/25
f 5/5/5 1/1/1 3/3/3
f 26/26/26 27/27/27 25/25/25
f 8/8/8 7/7/7 10/10/10
f 10/10/10 1/1/1 11/11/11
f 10/10/10 11/11/11 28/28/28
f 18/18/18 12/12/12 14/14/14
f 29/29/29 15/15/15 12/12/12
f 30/30/30 13/13/13 15/15/15
f 20/20/20 14/14/14 22/22/22
f 23/23/23 22/22/22 7/7/7
f 31/31/31 3/3/3 25/25/25
f 32/32/32 33/33/33 15/15/15
f 21/21/21 16/16/16 7/7/7
f 7/7/7 17/17/17 9/9/9
f 33/33/33 30/30/30 15/15/15
f 26/26/26 25/25/25 34/34/34
f 13/13/13 30/30/30 14/14/14
f 35/35/35 36/36/36 37/37/37
f 38/38/38 39/39/39 40/40/40
f 41/41/41 35/35/35 42/42/42
f 43/43/43 41/41/41 44/44/44
f 45/45/45 46/46/46 47/47/47
f 48/48/48 38/49/38 46/50/46
f 49/51/49 50/52/50 51/53/51
f 52/54/52 53/55/53 51/53/51
f 54/56/54 38/38/38 48/57/48
f 55/58/55 46/46/46 45/45/45
f 56/59/56 57/60/57 47/61/47
f 58/62/58 59/63/59 60/64/60
f 61/65/61 62/66/62 44/44/44
f 63/67/63 62/66/62 61/65/61
f 44/44/44 62/66/62 63/67/63
f 64/68/64 40/40/40 39/39/39
f 65/69/65 52/54/52 63/67/63
f 51/53/51 53/55/53 49/51/49
f 66/70/66 67/71/67 68/72/68
f 66/70/66 61/65/61 69/73/69
f 61/65/61 42/42/42 37/37/37
f 50/52/50 43/43/43 51/53/51
f 40/40/40 64/68/64 60/64/60
f 60/64/60 70/74/70 58/62/58
f 64/68/64 70/74/70 60/64/60
f 45/75/45 47/76/47 71/77/71
f 46/57/46 38/38/38 40/40/40
f 53/55/53 72/78/72 49/51/49
f 42/42/42 35/35/35 37/37/37
f 73/79/73 48/48/48 46/50/46
f 74/80/74 54/56/54 48/57/48
f 44/44/44 41/41/41 42/42/42
f 51/53/51 43/43/43 44/44/44
f 46/46/46 55/58/55 73/81/73
f 75/82/75 76/83/76 47/61/47
f 77/84/77 78/85/78 49/51/49
f 77/84/77 49/51/49 39/86/39
f 39/86/39 72/78/72 53/55/53
f 64/87/64 39/86/39 53/55/53
f 69/73/69 37/37/37 79/88/79
f 79/88/79 70/89/70 68/72/68
f 53/55/53 52/54/52 64/87/64
f 63/67/63 52/54/52 51/53/51
f 67/71/67 69/73/69 79/88/79
f 70/89/70 65/69/65 68/72/68
f 70/89/70 64/87/64 65/69/65
f 42/42/42 61/65/61 44/44/44
f 66/70/66 63/67/63 61/65/61
f 51/53/51 44/44/44 63/67/63
f 66/70/66 65/69/65 63/67/63
f 65/69/65 66/70/66 68/72/68
f 67/71/67 66/70/66 69/73/69
f 69/73/69 61/65/61 37/37/37
f 52/54/52 65/69/65 64/87/64
f 37/37/37 36/36/36 80/90/80
f 79/88/79 37/37/37 80/90/80
f 67/71/67 79/88/79 68/72/68
f 78/85/78 50/52/50 49/51/49
f 49/51/49 72/78/72 39/86/39
f 58/62/58 81/91/81 59/63/59
f 71/77/71 57/60/57 82/92/82
f 82/92/82 57/60/57 56/59/56
f 55/58/55 74/93/74 48/48/48
f 39/39/39 38/38/38 78/94/78
f 55/58/55 54/95/54 74/93/74
f 47/76/47 57/60/57 71/77/71
f 70/74/70 79/96/79 58/62/58
f 83/97/83 84/98/84 85/99/85
f 73/79/73 55/58/55 48/48/48
f 77/100/77 39/39/39 78/94/78
f 86/101/86 87/102/87 71/77/71
f 54/95/54 45/45/45 88/103/88
f 54/95/54 55/58/55 45/45/45
f 87/102/87 88/104/88 45/105/45
f 87/102/87 45/105/45 71/77/71
f 31/31/31 25/25/25 89/106/89
f 30/30/30 90/107/90 14/14/14
f 12/12/12 91/108/91 92/109/92
f 8/8/8 10/10/10 93/110/93
f 82/111/82 56/112/56 25/25/25
f 83/113/83 94/114/94 86/115/86
f 84/116/84 1/1/1 85/117/85
f 26/26/26 34/34/34 76/118/76
f 94/114/94 95/119/95 87/120/87
f 84/116/84 96/121/96 82/111/82
f 88/122/88 87/120/87 97/123/97
f 18/18/18 19/19/19 98/124/98
f 27/27/27 89/106/89 25/25/25
f 81/125/81 15/15/15 29/29/29
f 99/126/99 89/106/89 27/27/27
f 75/127/75 27/27/27 26/26/26
f 87/120/87 95/119/95 97/123/97
f 91/108/91 12/12/12 18/18/18
f 17/17/17 85/117/85 9/9/9
f 84/116/84 83/113/83 96/121/96
f 1/1/1 82/111/82 2/2/2
f 90/107/90 16/16/16 21/21/21
f 4/4/4 5/5/5 100/128/100
f 93/110/93 10/10/10 28/28/28
f 81/125/81 58/129/58 15/15/15
f 79/130/79 80/131/80 15/15/15
f 25/25/25 56/112/56 34/34/34
f 80/131/80 32/32/32 15/15/15
f 58/129/58 79/130/79 15/15/15
f 2/2/2 82/111/82 25/25/25
f 96/121/96 83/113/83 86/115/86
f 85/117/85 1/1/1 9/9/9
f 75/127/75 26/26/26 76/118/76
f 86/115/86 94/114/94 87/120/87
f 1/1/1 84/116/84 82/111/82
f 14/14/14 90/107/90 21/21/21
f 29/29/29 12/12/12 92/109/92
f 76/83/76 34/132/34 47/61/47
f 27/133/27 75/82/75 47/61/47
f 97/134/97 95/135/95 85/99/85
f 38/38/38 54/56/54 97/134/97
f 47/47/47 46/46/46 27/136/27
f 97/137/97 54/95/54 88/103/88
f 34/132/34 56/59/56 47/61/47
f 89/138/89 99/139/99 101/140/101
f 78/94/78 38/38/38 97/134/97
f 78/94/78 97/134/97 85/99/85
f 78/85/78 32/141/32 50/52/50
f 41/41/41 43/43/43 32/141/32
f 35/35/35 32/141/32 36/36/36
f 35/35/35 41/41/41 32/141/32
f 32/141/32 43/43/43 50/52/50
f 32/141/32 80/90/80 36/36/36
f 94/142/94 83/97/83 85/99/85
f 86/101/86 71/77/71 96/143/96
f 46/46/46 40/144/40 27/136/27
f 95/135/95 94/142/94 85/99/85
f 32/145/32 78/94/78 85/99/85
f 30/146/30 33/147/33 16/148/16
f 90/149/90 30/146/30 16/148/16
f 85/99/85 17/150/17 16/148/16
f 32/145/32 85/99/85 16/148/16
f 33/147/33 32/145/32 16/148/16
f 96/143/96 71/77/71 82/92/82
f 60/151/60 27/136/27 40/144/40
f 102/152/102 6/6/6 8/8/8
f 23/23/23 6/6/6 102/152/102
f 5/5/5 3/3/3 103/153/103
f 11/11/11 4/4/4 104/154/104
f 28/28/28 11/11/11 104/154/104
f 3/3/3 31/31/31 103/153/103
f 105/155/105 60/151/60 59/156/59
f 106/157/106 105/155/105 59/156/59
f 81/91/81 107/158/107 106/159/106
f 59/63/59 81/91/81 106/159/106
f 29/29/29 92/109/92 107/160/107
f 108/161/108 20/20/20 22/22/22
f 19/19/19 20/20/20 108/161/108
f 89/106/89 101/162/101 109/163/109
f 31/31/31 109/163/109 103/153/103
f 110/164/110 102/152/102 8/8/8
f 110/164/110 8/8/8 93/110/93
f 111/165/111 23/23/23 102/152/102
f 111/165/111 24/24/24 23/23/23
f 24/24/24 108/161/108 22/22/22
f 98/124/98 19/19/19 108/161/108
f 112/166/112 18/18/18 98/124/98
f 112/166/112 91/108/91 18/18/18
f 104/154/104 4/4/4 100/128/100
f 81/125/81 29/29/29 107/160/107
f 31/31/31 89/106/89 109/163/109
f 100/128/100 5/5/5 103/153/103
f 105/155/105 99/139/99 27/136/27
f 99/139/99 105/155/105 101/140/101
f 27/136/27 60/151/60 105/155/105
s off
f 108/167/113 91/168/113 98/169/113
f 101/170/113 105/171/113 106/172/113
f 101/170/114 92/173/114 91/168/114
f 106/172/115 107/174/115 92/173/115
f 101/170/113 110/175/113 93/176/113
f 106/172/116 92/173/116 101/170/116
f 102/177/113 110/175/113 101/170/113
f 28/178/113 101/170/113 93/176/113
f 100/179/113 101/170/113 104/180/113
f 109/181/117 101/170/117 103/182/117
f 91/168/113 102/177/113 101/170/113
f 91/168/113 111/183/113 102/177/113
f 111/183/113 91/168/113 24/184/113
f 91/168/113 108/167/113 24/184/113
f 101/170/113 28/178/113 104/180/113
f 101/170/113 100/179/113 103/182/113
f 91/168/118 112/185/118 98/169/118
