<?xml version="1.0" encoding="UTF-8" standalone="no"?>
<svg
   width="450"
   height="300"
   viewBox="0 0 450 300"
   fill="none"
   version="1.1"
   id="svg25"
   sodipodi:docname="UITKShaderPreview-Vector.svg"
   inkscape:version="1.4.2 (f4327f4, 2025-05-13)"
   xmlns:inkscape="http://www.inkscape.org/namespaces/inkscape"
   xmlns:sodipodi="http://sodipodi.sourceforge.net/DTD/sodipodi-0.dtd"
   xmlns="http://www.w3.org/2000/svg"
   xmlns:svg="http://www.w3.org/2000/svg">
  <sodipodi:namedview
     id="namedview25"
     pagecolor="#6a6a6a"
     bordercolor="#000000"
     borderopacity="0.25"
     inkscape:showpageshadow="2"
     inkscape:pageopacity="0.0"
     inkscape:pagecheckerboard="0"
     inkscape:deskcolor="#d1d1d1"
     inkscape:zoom="2.7506454"
     inkscape:cx="155.78162"
     inkscape:cy="168.86946"
     inkscape:window-width="2560"
     inkscape:window-height="1369"
     inkscape:window-x="-8"
     inkscape:window-y="-8"
     inkscape:window-maximized="1"
     inkscape:current-layer="g24" />
  <g
     clip-path="url(#clip0_1281_494)"
     id="g24">
    <rect
       x="53"
       width="397"
       height="300"
       fill="url(#paint0_radial_1281_494)"
       id="rect1" />
    <path
       d="m 32.488616,55.522571 h 12.074675 v 15.786678 q -2.389335,0.810668 -4.992003,1.280001 -2.560002,0.469334 -5.845338,0.469334 -6.826672,0 -10.496008,-4.01067 -3.669336,-4.010669 -3.669336,-11.690675 0,-4.77867 1.834668,-8.27734 1.877335,-3.498669 5.418671,-5.41867 3.541336,-1.920002 8.66134,-1.920002 2.432001,0 4.77867,0.512001 2.346668,0.512 4.26667,1.365334 l -2.133335,5.162671 q -1.408001,-0.725334 -3.200003,-1.194668 -1.792001,-0.469334 -3.754669,-0.469334 -2.816002,0 -4.90667,1.280001 -2.048002,1.280001 -3.200003,3.62667 -1.109334,2.304001 -1.109334,5.461337 0,2.986669 0.810667,5.290671 0.810668,2.304001 2.560002,3.626669 1.749335,1.280001 4.565337,1.280001 1.365334,0 2.304002,-0.128 0.981334,-0.128 1.792001,-0.298667 V 60.898575 H 32.488616 Z M 60.947344,42.167894 q 11.904009,0 11.904009,8.874674 0,3.114669 -1.578668,5.077337 -1.578668,1.962668 -3.925336,3.072002 l 8.661339,13.44001 H 68.542016 L 61.758011,60.941242 H 58.131342 V 72.631917 H 51.603337 V 42.167894 Z m -0.128,5.077337 h -2.688002 v 8.66134 h 2.688002 q 2.602668,0 4.010669,-1.066667 1.408001,-1.066668 1.408001,-3.49867 0,-2.048001 -1.322667,-3.072002 -1.280001,-1.024001 -4.096003,-1.024001 z M 98.451376,72.631917 96.104708,65.463912 H 85.3527 l -2.346668,7.168005 H 75.966026 L 86.675368,42.039894 h 8.021339 L 105.49138,72.631917 Z M 92.478039,53.389236 q -0.170667,-0.640001 -0.554667,-1.920001 -0.341334,-1.280001 -0.682668,-2.602669 -0.341333,-1.365334 -0.554667,-2.218668 -0.170667,0.981334 -0.512,2.261335 -0.298667,1.237334 -0.597334,2.474668 -0.298667,1.194668 -0.512,2.005335 l -2.176002,6.613338 h 7.722673 z m 41.941351,3.498669 q 0,5.248004 -1.96267,8.746673 -1.96267,3.49867 -5.54667,5.248004 -3.58401,1.749335 -8.49068,1.749335 h -9.30134 V 42.167894 h 10.06934 q 7.16801,0 11.17868,3.797336 4.05334,3.75467 4.05334,10.922675 z m -6.82668,0.256 q 0,-4.90667 -2.176,-7.253338 -2.176,-2.389335 -6.4,-2.389335 h -3.37067 v 19.754681 h 2.73067 q 9.216,0 9.216,-10.112008 z m 24.3627,15.488012 h -13.86668 v -3.669336 l 3.712,-1.706668 V 47.543898 l -3.712,-1.706668 v -3.669336 h 13.86668 v 3.669336 l -3.71201,1.706668 v 19.712015 l 3.71201,1.706668 z m 22.74135,0 H 157.16074 V 42.167894 h 17.53602 v 5.290671 h -11.09335 v 6.698672 h 10.32535 v 5.29067 h -10.32535 v 7.850673 h 11.09335 z m 33.36533,0 h -8.19201 L 186.60074,49.5919 h -0.17067 q 0.0853,2.176001 0.17067,4.352003 0.128,2.176002 0.21333,4.352003 v 14.336011 h -5.76 V 42.167894 h 8.14934 l 13.22667,22.826684 h 0.128 q -0.0427,-2.133335 -0.128,-4.224003 -0.0853,-2.090668 -0.17066,-4.181337 V 42.167894 h 5.80267 z m 19.41334,0 h -6.52801 V 47.586565 h -8.23467 v -5.418671 h 22.99735 v 5.418671 h -8.23467 z"
       id="text25"
       style="font-weight:bold;font-size:42.6667px;-inkscape-font-specification:'sans-serif Bold';white-space:pre;fill:#ffffff;stroke-width:1.12252"
       transform="rotate(-89.931963,122.54789,155.20333)"
       aria-label="GRADIENT" />
    <path
       fill-rule="evenodd"
       clip-rule="evenodd"
       d="M76.1176 0.00830078H107.404C122.743 4.78958 137.709 10.8978 152.158 18.275C185.247 34.9416 217.327 49.0416 251.408 49.075C285.489 49.1083 317.585 35.0583 350.658 18.3916C365.195 10.9624 380.252 4.81495 395.687 0.00830078H426.989C401.535 3.54163 376.066 12.5416 350.658 25.375C317.585 42.0416 285.489 56.0916 251.408 56.0416C217.327 56.0083 185.247 41.9083 152.158 25.2583C126.811 12.4916 101.465 3.5083 76.1176 0.00830078ZM145.043 0.00830078H179.154C202.944 10.4583 226.657 17.925 251.408 17.9583C276.251 17.9916 300.026 10.5083 323.907 0.00830078H357.988C355.545 1.17497 353.101 2.34163 350.658 3.57497C317.585 20.2416 285.474 34.3083 251.424 34.275C217.327 34.225 185.247 20.1416 152.174 3.47497C149.776 2.27497 147.41 1.14163 145.043 0.00830078ZM449.985 10.8583L450 10.825V28.825C416.896 28.825 383.732 39.0916 350.658 55.7583C317.585 72.425 285.489 86.475 251.424 86.475C217.343 86.475 185.247 72.375 152.174 55.725C119.116 39.075 86.0273 28.825 53 28.825V10.8583C86.0273 10.8583 119.116 21.1083 152.174 37.7416C185.247 54.4083 217.343 68.5083 251.424 68.5083C285.489 68.5083 317.585 54.4583 350.658 37.7916C383.732 21.125 416.881 10.8583 449.985 10.8583ZM53 61.345V69.1121C86.0273 69.1121 119.116 79.3794 152.174 96.0136C185.247 112.681 217.327 126.799 251.424 126.815C285.489 126.832 317.585 112.765 350.658 96.0803C383.732 79.4127 416.881 69.1621 449.985 69.1288L450 69.0788V61.4284L449.985 61.3617C416.881 61.3617 383.716 71.6623 350.658 88.3299C317.585 104.997 285.489 119.032 251.408 119.015C217.343 119.015 185.247 104.914 152.158 88.2632C119.116 71.5956 86.0579 61.345 53 61.345ZM449.985 84.663L450 84.7463V99.2805L449.985 99.3972C416.881 99.4305 383.732 109.698 350.658 126.365C317.585 143.05 285.489 157.1 251.424 157.1C217.327 157.084 185.247 142.966 152.174 126.299C119.116 109.648 86.0273 99.3972 53 99.3972V84.6797C86.0579 84.6797 119.116 94.9302 152.158 111.564C185.247 128.215 217.343 142.333 251.408 142.333C285.489 142.333 317.585 128.265 350.658 111.598C383.716 94.9302 416.881 84.663 449.985 84.663ZM152.174 287.175C161.069 291.694 170.066 295.973 179.154 300.008H145.073C114.382 285.408 83.6606 276.575 53 276.575V260.242C86.0273 260.242 119.116 270.508 152.174 287.175ZM323.907 300.008H357.972C388.618 285.458 419.339 276.608 450 276.575V260.258C416.896 260.292 383.732 270.592 350.658 287.258C341.695 291.792 332.793 296.092 323.907 300.008Z"
       fill="#FFBE0A"
       id="path1" />
    <path
       fill-rule="evenodd"
       clip-rule="evenodd"
       d="M152.174 3.47497C149.776 2.27497 147.41 1.14163 145.043 0.00830078H179.154C202.944 10.4583 226.657 17.925 251.408 17.9583C276.251 17.9916 300.026 10.5083 323.907 0.00830078H357.988C355.545 1.17497 353.101 2.34163 350.658 3.57497C317.585 20.2416 285.474 34.3083 251.424 34.275C217.327 34.225 185.247 20.1416 152.174 3.47497ZM53 28.625V11.7083V11.675V11.4916C86.0579 11.4916 119.116 21.7416 152.158 38.3916C185.247 55.0416 217.343 69.1583 251.408 69.1583C285.489 69.1583 317.585 55.0916 350.658 38.425C383.732 21.7583 416.896 11.5083 450 11.5083V28.825C416.896 28.825 383.732 39.0916 350.658 55.7583C317.585 72.425 285.489 86.475 251.424 86.475C217.343 86.475 185.247 72.375 152.174 55.725C119.116 39.075 86.0273 28.825 53 28.825V28.675V28.625ZM53 276.475V260.342V260.325V260.242C86.0273 260.242 119.116 270.508 152.174 287.175C161.069 291.694 170.066 295.973 179.154 300.008H145.073C114.382 285.408 83.6606 276.575 53 276.575V276.492V276.475ZM350.658 287.258C383.732 270.592 416.896 260.292 450 260.258V276.575C419.339 276.608 388.618 285.458 357.972 300.008H323.907C332.793 296.092 341.695 291.792 350.658 287.258Z"
       fill="#FB5609"
       id="path2" />
    <path
       fill-rule="evenodd"
       clip-rule="evenodd"
       d="M53 61.345V61.4117V61.445V69.1121C86.0273 69.1121 119.116 79.3794 152.174 96.0136C185.247 112.681 217.327 126.799 251.424 126.815C285.489 126.832 317.585 112.765 350.658 96.0803C383.732 79.4127 416.881 69.1621 449.985 69.1288L450 69.0788V61.4284L449.985 61.3617C416.881 61.3617 383.716 71.6623 350.658 88.3299C317.585 104.997 285.489 119.032 251.408 119.015C217.343 119.015 185.247 104.914 152.158 88.2632C119.116 71.5956 86.0579 61.345 53 61.345ZM53 84.6797V84.7463V84.763V99.2638V99.2805V99.3972C86.0273 99.3972 119.116 109.648 152.174 126.299C185.247 142.966 217.327 157.084 251.424 157.1C285.489 157.1 317.585 143.05 350.658 126.365C383.732 109.698 416.881 99.4305 449.985 99.3972L450 99.2805V84.7463L449.985 84.663C416.881 84.663 383.716 94.9302 350.658 111.598C317.585 128.265 285.489 142.333 251.408 142.333C217.343 142.333 185.247 128.215 152.158 111.564C119.116 94.9302 86.0579 84.6797 53 84.6797Z"
       fill="#FF006F"
       id="path3" />
    <path
       d="M450 280.475V276.575C419.339 276.608 388.618 285.458 357.972 300.008H366.523H372.051H395.733H426.974H450V298.342V291.375V288.992V286.692V282.842V280.475Z"
       fill="#FFBE0A"
       id="path4" />
    <path
       fill-rule="evenodd"
       clip-rule="evenodd"
       d="M136.507 300.008H145.073C114.382 285.408 83.6606 276.575 53 276.575V280.475V282.825V286.676V288.992V291.358V291.408V291.425V298.342V300.008H131.01H136.507Z"
       fill="#FFBE0A"
       id="path5" />
    <path
       fill-rule="evenodd"
       clip-rule="evenodd"
       d="M265.991 300.008H292.473H295.206H302.301H316.623H323.907C332.793 296.092 341.695 291.792 350.658 287.258C383.732 270.592 416.896 260.292 450 260.258V257.156V251.739V243.142L449.985 243.175C416.881 243.208 383.732 253.508 350.658 270.175C322.334 284.442 294.727 296.775 265.991 300.008Z"
       fill="#FFBE0A"
       id="path6" />
    <path
       fill-rule="evenodd"
       clip-rule="evenodd"
       d="M237.101 300.008H210.496H207.87H200.76H186.377H179.154C170.066 295.973 161.069 291.694 152.174 287.175C119.116 270.508 86.0273 260.242 53 260.242V257.189V251.722V249.394V248.628V243.158C86.0273 243.158 119.116 253.425 152.174 270.058C180.574 284.375 208.258 296.758 237.101 300.008Z"
       fill="#FFBE0A"
       id="path7" />
    <path
       fill-rule="evenodd"
       clip-rule="evenodd"
       d="M53 153.808V163.783V163.899V163.933V182.332V182.365V182.465V188.792C86.0426 188.792 119.116 199.058 152.158 215.692C185.247 232.358 217.343 246.442 251.408 246.458C285.489 246.475 317.585 232.442 350.658 215.775C383.732 199.092 416.896 188.792 450 188.792V153.775L449.985 153.808C416.881 153.808 383.732 164.125 350.658 180.792C317.585 197.458 285.474 211.492 251.424 211.475C217.343 211.458 185.247 197.375 152.174 180.708C119.116 164.075 86.0273 153.808 53 153.808Z"
       fill="#FFBE0A"
       id="path8" />
    <path
       fill-rule="evenodd"
       clip-rule="evenodd"
       d="M53 188.792V193.442V197.353V197.419V197.453V215.887V215.904V215.97C86.0273 215.97 119.116 226.238 152.174 242.872C185.247 259.539 217.327 273.64 251.424 273.673C285.474 273.707 317.585 259.656 350.658 242.988C383.732 226.321 416.881 216.02 449.985 215.987L450 215.904V197.419V193.442V188.792C416.896 188.792 383.732 199.092 350.658 215.775C317.585 232.442 285.489 246.475 251.408 246.458C217.343 246.442 185.247 232.358 152.158 215.692C119.116 199.058 86.0426 188.792 53 188.792Z"
       fill="#FF006F"
       id="path9" />
    <path
       fill-rule="evenodd"
       clip-rule="evenodd"
       d="M152.174 126.299C119.116 109.648 86.0273 99.3972 53 99.3972V101.003V105.652V110.325V110.408V110.442V123.525V128.965C86.0579 128.965 119.116 139.216 152.158 155.867C185.247 172.518 217.343 186.619 251.408 186.619C285.489 186.635 317.585 172.601 350.658 155.934C383.716 139.266 416.881 128.965 449.985 128.965L450 128.999V123.525V110.325V99.2805L449.985 99.3972C416.881 99.4305 383.732 109.698 350.658 126.365C317.585 143.05 285.489 157.1 251.424 157.1C217.327 157.084 185.247 142.966 152.174 126.299Z"
       fill="#FB5609"
       id="path10" />
    <path
       fill-rule="evenodd"
       clip-rule="evenodd"
       d="M450 84.7463V69.0788L449.985 69.1288C416.881 69.1621 383.732 79.4127 350.658 96.0803C317.585 112.765 285.489 126.832 251.424 126.815C217.327 126.799 185.247 112.681 152.174 96.0136C119.116 79.3794 86.0273 69.1121 53 69.1121V76.904V79.1872V84.6797C86.0579 84.6797 119.116 94.9302 152.158 111.564C185.247 128.215 217.343 142.333 251.408 142.333C285.489 142.333 317.585 128.265 350.658 111.598C383.716 94.9302 416.881 84.663 449.985 84.663L450 84.7463Z"
       fill="#3884FF"
       id="path11" />
    <path
       fill-rule="evenodd"
       clip-rule="evenodd"
       d="M53 56.675V59.0217V59.8383V61.345C86.0579 61.345 119.116 71.5956 152.158 88.2632C185.247 104.914 217.343 119.015 251.408 119.015C285.489 119.032 317.585 104.997 350.658 88.3299C383.716 71.6623 416.881 61.3617 449.985 61.3617L450 61.4284V56.675C416.896 56.7083 383.732 66.975 350.658 83.6416C317.585 100.308 285.489 114.375 251.424 114.358C217.327 114.342 185.247 100.225 152.174 83.575C119.116 66.925 86.0273 56.675 53 56.675Z"
       fill="#FFBE0A"
       id="path12" />
    <path
       fill-rule="evenodd"
       clip-rule="evenodd"
       d="M450 53.5583V44.9083L449.985 45.0083C416.881 45.0083 383.732 55.3083 350.658 71.975C317.585 88.6416 285.474 102.675 251.424 102.675C217.343 102.642 185.247 88.575 152.174 71.9083C119.116 55.2583 86.0273 45.0083 53 45.0083V53.5583V56.675C86.0273 56.675 119.116 66.925 152.174 83.575C185.247 100.225 217.327 114.342 251.424 114.358C285.489 114.375 317.585 100.308 350.658 83.6416C383.732 66.975 416.896 56.7083 450 56.675V53.5583Z"
       fill="#FB5609"
       id="path13" />
    <path
       fill-rule="evenodd"
       clip-rule="evenodd"
       d="M449.985 0.00830078V1.74154H449.969C416.867 1.74154 383.719 11.991 350.662 28.6567C317.59 45.3225 285.496 59.3883 251.416 59.3883C217.336 59.3883 185.242 45.2891 152.17 28.6234C119.113 11.991 86.0413 1.72487 53 1.72487V4.62471V6.94125V8.5083V10.825V10.8416V10.8583C86.0273 10.8583 119.116 21.1083 152.174 37.7416C185.247 54.4083 217.343 68.5083 251.424 68.5083C285.489 68.5083 317.585 54.4583 350.658 37.7916C383.732 21.125 416.881 10.8583 449.985 10.8583L450 10.825V8.52497V0.00830078H449.985Z"
       fill="#FFBE0A"
       id="path14" />
    <path
       fill-rule="evenodd"
       clip-rule="evenodd"
       d="M449.985 0.00830078H426.989C401.535 3.54163 376.066 12.5416 350.658 25.375C317.585 42.0416 285.489 56.0916 251.408 56.0416C217.327 56.0083 185.247 41.9083 152.158 25.2583C126.811 12.4916 101.465 3.5083 76.1176 0.00830078H53V1.72487C86.0413 1.72487 119.113 11.991 152.17 28.6234C185.242 45.2891 217.336 59.3883 251.416 59.3883C285.496 59.3883 317.59 45.3225 350.662 28.6567C383.719 11.991 416.867 1.74154 449.969 1.74154H449.985V0.00830078Z"
       fill="#3884FF"
       id="path15" />
    <path
       fill-rule="evenodd"
       clip-rule="evenodd"
       d="M114.731 0.00830078H107.404C122.743 4.78958 137.709 10.8978 152.158 18.275C185.247 34.9416 217.327 49.0416 251.408 49.075C285.489 49.1083 317.585 35.0583 350.658 18.3916C365.195 10.9624 380.252 4.81495 395.687 0.00830078H388.345H381.81C371.21 3.97718 360.808 8.54986 350.647 13.7075C317.575 30.3733 285.48 44.4225 251.401 44.3892C217.321 44.3558 185.242 30.2566 152.155 13.5909C142.076 8.48189 131.761 3.94825 121.251 0.00830078H114.731Z"
       fill="#3884FF"
       id="path16" />
    <path
       fill-rule="evenodd"
       clip-rule="evenodd"
       d="M302.301 0.00830078H295.206H292.458H265.96H237.101H210.511H207.87H200.76C217.389 5.74195 234.154 9.39216 251.408 9.40882C268.754 9.42549 285.596 5.77529 302.301 0.00830078Z"
       fill="#FFBE0A"
       id="path17" />
    <path
       d="M265.329 67.6167L305.565 90.9208C307.012 91.7354 307.047 94.0375 305.565 94.8167L257.741 122.512C256.294 123.362 254.6 123.292 253.224 122.512L205.435 94.8167C203.988 94.0021 203.918 91.7 205.435 90.9208L245.635 67.6167V22L143 81.4646V200.394L182.388 177.585V130.977C182.353 129.313 184.329 128.144 185.776 129.029L233.6 156.725C235.047 157.575 235.859 159.098 235.859 160.656V216.048C235.894 217.713 233.953 218.881 232.506 217.996L192.271 194.692L152.847 217.535L255.482 277L358.118 217.535L318.765 194.727L278.529 218.031C277.118 218.881 275.106 217.783 275.176 216.083V160.692C275.176 159.027 276.094 157.54 277.435 156.76L325.224 129.065C326.635 128.179 328.647 129.312 328.612 131.012V177.621L368 200.429V81.4646L265.329 22V67.6167Z"
       fill="white"
       id="path18" />
  </g>
  <defs
     id="defs25">
    <rect
       x="17.086899"
       y="33.810247"
       width="314.47165"
       height="74.527964"
       id="rect26" />
    <radialGradient
       id="paint0_radial_1281_494"
       cx="0"
       cy="0"
       r="1"
       gradientUnits="userSpaceOnUse"
       gradientTransform="translate(252 142) rotate(90.1813) scale(158.001 209.088)">
      <stop
         offset="0.576627"
         stop-color="#C093FF"
         id="stop24" />
      <stop
         offset="1"
         stop-color="#400099"
         id="stop25" />
    </radialGradient>
    <clipPath
       id="clip0_1281_494">
      <rect
         width="450"
         height="300"
         fill="white"
         id="rect25" />
    </clipPath>
  </defs>
</svg>
