<svg width="450" height="300" viewBox="0 0 450 300" fill="none" xmlns="http://www.w3.org/2000/svg">
<g clip-path="url(#clip0_1281_494)">
<rect x="53" width="397" height="300" fill="url(#paint0_radial_1281_494)"/>
<path fill-rule="evenodd" clip-rule="evenodd" d="M76.1176 0.00830078H107.404C122.743 4.78958 137.709 10.8978 152.158 18.275C185.247 34.9416 217.327 49.0416 251.408 49.075C285.489 49.1083 317.585 35.0583 350.658 18.3916C365.195 10.9624 380.252 4.81495 395.687 0.00830078H426.989C401.535 3.54163 376.066 12.5416 350.658 25.375C317.585 42.0416 285.489 56.0916 251.408 56.0416C217.327 56.0083 185.247 41.9083 152.158 25.2583C126.811 12.4916 101.465 3.5083 76.1176 0.00830078ZM145.043 0.00830078H179.154C202.944 10.4583 226.657 17.925 251.408 17.9583C276.251 17.9916 300.026 10.5083 323.907 0.00830078H357.988C355.545 1.17497 353.101 2.34163 350.658 3.57497C317.585 20.2416 285.474 34.3083 251.424 34.275C217.327 34.225 185.247 20.1416 152.174 3.47497C149.776 2.27497 147.41 1.14163 145.043 0.00830078ZM449.985 10.8583L450 10.825V28.825C416.896 28.825 383.732 39.0916 350.658 55.7583C317.585 72.425 285.489 86.475 251.424 86.475C217.343 86.475 185.247 72.375 152.174 55.725C119.116 39.075 86.0273 28.825 53 28.825V10.8583C86.0273 10.8583 119.116 21.1083 152.174 37.7416C185.247 54.4083 217.343 68.5083 251.424 68.5083C285.489 68.5083 317.585 54.4583 350.658 37.7916C383.732 21.125 416.881 10.8583 449.985 10.8583ZM53 61.345V69.1121C86.0273 69.1121 119.116 79.3794 152.174 96.0136C185.247 112.681 217.327 126.799 251.424 126.815C285.489 126.832 317.585 112.765 350.658 96.0803C383.732 79.4127 416.881 69.1621 449.985 69.1288L450 69.0788V61.4284L449.985 61.3617C416.881 61.3617 383.716 71.6623 350.658 88.3299C317.585 104.997 285.489 119.032 251.408 119.015C217.343 119.015 185.247 104.914 152.158 88.2632C119.116 71.5956 86.0579 61.345 53 61.345ZM449.985 84.663L450 84.7463V99.2805L449.985 99.3972C416.881 99.4305 383.732 109.698 350.658 126.365C317.585 143.05 285.489 157.1 251.424 157.1C217.327 157.084 185.247 142.966 152.174 126.299C119.116 109.648 86.0273 99.3972 53 99.3972V84.6797C86.0579 84.6797 119.116 94.9302 152.158 111.564C185.247 128.215 217.343 142.333 251.408 142.333C285.489 142.333 317.585 128.265 350.658 111.598C383.716 94.9302 416.881 84.663 449.985 84.663ZM152.174 287.175C161.069 291.694 170.066 295.973 179.154 300.008H145.073C114.382 285.408 83.6606 276.575 53 276.575V260.242C86.0273 260.242 119.116 270.508 152.174 287.175ZM323.907 300.008H357.972C388.618 285.458 419.339 276.608 450 276.575V260.258C416.896 260.292 383.732 270.592 350.658 287.258C341.695 291.792 332.793 296.092 323.907 300.008Z" fill="#FFBE0A"/>
<path fill-rule="evenodd" clip-rule="evenodd" d="M152.174 3.47497C149.776 2.27497 147.41 1.14163 145.043 0.00830078H179.154C202.944 10.4583 226.657 17.925 251.408 17.9583C276.251 17.9916 300.026 10.5083 323.907 0.00830078H357.988C355.545 1.17497 353.101 2.34163 350.658 3.57497C317.585 20.2416 285.474 34.3083 251.424 34.275C217.327 34.225 185.247 20.1416 152.174 3.47497ZM53 28.625V11.7083V11.675V11.4916C86.0579 11.4916 119.116 21.7416 152.158 38.3916C185.247 55.0416 217.343 69.1583 251.408 69.1583C285.489 69.1583 317.585 55.0916 350.658 38.425C383.732 21.7583 416.896 11.5083 450 11.5083V28.825C416.896 28.825 383.732 39.0916 350.658 55.7583C317.585 72.425 285.489 86.475 251.424 86.475C217.343 86.475 185.247 72.375 152.174 55.725C119.116 39.075 86.0273 28.825 53 28.825V28.675V28.625ZM53 276.475V260.342V260.325V260.242C86.0273 260.242 119.116 270.508 152.174 287.175C161.069 291.694 170.066 295.973 179.154 300.008H145.073C114.382 285.408 83.6606 276.575 53 276.575V276.492V276.475ZM350.658 287.258C383.732 270.592 416.896 260.292 450 260.258V276.575C419.339 276.608 388.618 285.458 357.972 300.008H323.907C332.793 296.092 341.695 291.792 350.658 287.258Z" fill="#FB5609"/>
<path fill-rule="evenodd" clip-rule="evenodd" d="M53 61.345V61.4117V61.445V69.1121C86.0273 69.1121 119.116 79.3794 152.174 96.0136C185.247 112.681 217.327 126.799 251.424 126.815C285.489 126.832 317.585 112.765 350.658 96.0803C383.732 79.4127 416.881 69.1621 449.985 69.1288L450 69.0788V61.4284L449.985 61.3617C416.881 61.3617 383.716 71.6623 350.658 88.3299C317.585 104.997 285.489 119.032 251.408 119.015C217.343 119.015 185.247 104.914 152.158 88.2632C119.116 71.5956 86.0579 61.345 53 61.345ZM53 84.6797V84.7463V84.763V99.2638V99.2805V99.3972C86.0273 99.3972 119.116 109.648 152.174 126.299C185.247 142.966 217.327 157.084 251.424 157.1C285.489 157.1 317.585 143.05 350.658 126.365C383.732 109.698 416.881 99.4305 449.985 99.3972L450 99.2805V84.7463L449.985 84.663C416.881 84.663 383.716 94.9302 350.658 111.598C317.585 128.265 285.489 142.333 251.408 142.333C217.343 142.333 185.247 128.215 152.158 111.564C119.116 94.9302 86.0579 84.6797 53 84.6797Z" fill="#FF006F"/>
<path d="M450 280.475V276.575C419.339 276.608 388.618 285.458 357.972 300.008H366.523H372.051H395.733H426.974H450V298.342V291.375V288.992V286.692V282.842V280.475Z" fill="#FFBE0A"/>
<path fill-rule="evenodd" clip-rule="evenodd" d="M136.507 300.008H145.073C114.382 285.408 83.6606 276.575 53 276.575V280.475V282.825V286.676V288.992V291.358V291.408V291.425V298.342V300.008H131.01H136.507Z" fill="#FFBE0A"/>
<path fill-rule="evenodd" clip-rule="evenodd" d="M265.991 300.008H292.473H295.206H302.301H316.623H323.907C332.793 296.092 341.695 291.792 350.658 287.258C383.732 270.592 416.896 260.292 450 260.258V257.156V251.739V243.142L449.985 243.175C416.881 243.208 383.732 253.508 350.658 270.175C322.334 284.442 294.727 296.775 265.991 300.008Z" fill="#FFBE0A"/>
<path fill-rule="evenodd" clip-rule="evenodd" d="M237.101 300.008H210.496H207.87H200.76H186.377H179.154C170.066 295.973 161.069 291.694 152.174 287.175C119.116 270.508 86.0273 260.242 53 260.242V257.189V251.722V249.394V248.628V243.158C86.0273 243.158 119.116 253.425 152.174 270.058C180.574 284.375 208.258 296.758 237.101 300.008Z" fill="#FFBE0A"/>
<path fill-rule="evenodd" clip-rule="evenodd" d="M53 153.808V163.783V163.899V163.933V182.332V182.365V182.465V188.792C86.0426 188.792 119.116 199.058 152.158 215.692C185.247 232.358 217.343 246.442 251.408 246.458C285.489 246.475 317.585 232.442 350.658 215.775C383.732 199.092 416.896 188.792 450 188.792V153.775L449.985 153.808C416.881 153.808 383.732 164.125 350.658 180.792C317.585 197.458 285.474 211.492 251.424 211.475C217.343 211.458 185.247 197.375 152.174 180.708C119.116 164.075 86.0273 153.808 53 153.808Z" fill="#FFBE0A"/>
<path fill-rule="evenodd" clip-rule="evenodd" d="M53 188.792V193.442V197.353V197.419V197.453V215.887V215.904V215.97C86.0273 215.97 119.116 226.238 152.174 242.872C185.247 259.539 217.327 273.64 251.424 273.673C285.474 273.707 317.585 259.656 350.658 242.988C383.732 226.321 416.881 216.02 449.985 215.987L450 215.904V197.419V193.442V188.792C416.896 188.792 383.732 199.092 350.658 215.775C317.585 232.442 285.489 246.475 251.408 246.458C217.343 246.442 185.247 232.358 152.158 215.692C119.116 199.058 86.0426 188.792 53 188.792Z" fill="#FF006F"/>
<path fill-rule="evenodd" clip-rule="evenodd" d="M152.174 126.299C119.116 109.648 86.0273 99.3972 53 99.3972V101.003V105.652V110.325V110.408V110.442V123.525V128.965C86.0579 128.965 119.116 139.216 152.158 155.867C185.247 172.518 217.343 186.619 251.408 186.619C285.489 186.635 317.585 172.601 350.658 155.934C383.716 139.266 416.881 128.965 449.985 128.965L450 128.999V123.525V110.325V99.2805L449.985 99.3972C416.881 99.4305 383.732 109.698 350.658 126.365C317.585 143.05 285.489 157.1 251.424 157.1C217.327 157.084 185.247 142.966 152.174 126.299Z" fill="#FB5609"/>
<path fill-rule="evenodd" clip-rule="evenodd" d="M450 84.7463V69.0788L449.985 69.1288C416.881 69.1621 383.732 79.4127 350.658 96.0803C317.585 112.765 285.489 126.832 251.424 126.815C217.327 126.799 185.247 112.681 152.174 96.0136C119.116 79.3794 86.0273 69.1121 53 69.1121V76.904V79.1872V84.6797C86.0579 84.6797 119.116 94.9302 152.158 111.564C185.247 128.215 217.343 142.333 251.408 142.333C285.489 142.333 317.585 128.265 350.658 111.598C383.716 94.9302 416.881 84.663 449.985 84.663L450 84.7463Z" fill="#3884FF"/>
<path fill-rule="evenodd" clip-rule="evenodd" d="M53 56.675V59.0217V59.8383V61.345C86.0579 61.345 119.116 71.5956 152.158 88.2632C185.247 104.914 217.343 119.015 251.408 119.015C285.489 119.032 317.585 104.997 350.658 88.3299C383.716 71.6623 416.881 61.3617 449.985 61.3617L450 61.4284V56.675C416.896 56.7083 383.732 66.975 350.658 83.6416C317.585 100.308 285.489 114.375 251.424 114.358C217.327 114.342 185.247 100.225 152.174 83.575C119.116 66.925 86.0273 56.675 53 56.675Z" fill="#FFBE0A"/>
<path fill-rule="evenodd" clip-rule="evenodd" d="M450 53.5583V44.9083L449.985 45.0083C416.881 45.0083 383.732 55.3083 350.658 71.975C317.585 88.6416 285.474 102.675 251.424 102.675C217.343 102.642 185.247 88.575 152.174 71.9083C119.116 55.2583 86.0273 45.0083 53 45.0083V53.5583V56.675C86.0273 56.675 119.116 66.925 152.174 83.575C185.247 100.225 217.327 114.342 251.424 114.358C285.489 114.375 317.585 100.308 350.658 83.6416C383.732 66.975 416.896 56.7083 450 56.675V53.5583Z" fill="#FB5609"/>
<path fill-rule="evenodd" clip-rule="evenodd" d="M449.985 0.00830078V1.74154H449.969C416.867 1.74154 383.719 11.991 350.662 28.6567C317.59 45.3225 285.496 59.3883 251.416 59.3883C217.336 59.3883 185.242 45.2891 152.17 28.6234C119.113 11.991 86.0413 1.72487 53 1.72487V4.62471V6.94125V8.5083V10.825V10.8416V10.8583C86.0273 10.8583 119.116 21.1083 152.174 37.7416C185.247 54.4083 217.343 68.5083 251.424 68.5083C285.489 68.5083 317.585 54.4583 350.658 37.7916C383.732 21.125 416.881 10.8583 449.985 10.8583L450 10.825V8.52497V0.00830078H449.985Z" fill="#FFBE0A"/>
<path fill-rule="evenodd" clip-rule="evenodd" d="M449.985 0.00830078H426.989C401.535 3.54163 376.066 12.5416 350.658 25.375C317.585 42.0416 285.489 56.0916 251.408 56.0416C217.327 56.0083 185.247 41.9083 152.158 25.2583C126.811 12.4916 101.465 3.5083 76.1176 0.00830078H53V1.72487C86.0413 1.72487 119.113 11.991 152.17 28.6234C185.242 45.2891 217.336 59.3883 251.416 59.3883C285.496 59.3883 317.59 45.3225 350.662 28.6567C383.719 11.991 416.867 1.74154 449.969 1.74154H449.985V0.00830078Z" fill="#3884FF"/>
<path fill-rule="evenodd" clip-rule="evenodd" d="M114.731 0.00830078H107.404C122.743 4.78958 137.709 10.8978 152.158 18.275C185.247 34.9416 217.327 49.0416 251.408 49.075C285.489 49.1083 317.585 35.0583 350.658 18.3916C365.195 10.9624 380.252 4.81495 395.687 0.00830078H388.345H381.81C371.21 3.97718 360.808 8.54986 350.647 13.7075C317.575 30.3733 285.48 44.4225 251.401 44.3892C217.321 44.3558 185.242 30.2566 152.155 13.5909C142.076 8.48189 131.761 3.94825 121.251 0.00830078H114.731Z" fill="#3884FF"/>
<path fill-rule="evenodd" clip-rule="evenodd" d="M302.301 0.00830078H295.206H292.458H265.96H237.101H210.511H207.87H200.76C217.389 5.74195 234.154 9.39216 251.408 9.40882C268.754 9.42549 285.596 5.77529 302.301 0.00830078Z" fill="#FFBE0A"/>
<path d="M265.329 67.6167L305.565 90.9208C307.012 91.7354 307.047 94.0375 305.565 94.8167L257.741 122.512C256.294 123.362 254.6 123.292 253.224 122.512L205.435 94.8167C203.988 94.0021 203.918 91.7 205.435 90.9208L245.635 67.6167V22L143 81.4646V200.394L182.388 177.585V130.977C182.353 129.313 184.329 128.144 185.776 129.029L233.6 156.725C235.047 157.575 235.859 159.098 235.859 160.656V216.048C235.894 217.713 233.953 218.881 232.506 217.996L192.271 194.692L152.847 217.535L255.482 277L358.118 217.535L318.765 194.727L278.529 218.031C277.118 218.881 275.106 217.783 275.176 216.083V160.692C275.176 159.027 276.094 157.54 277.435 156.76L325.224 129.065C326.635 128.179 328.647 129.312 328.612 131.012V177.621L368 200.429V81.4646L265.329 22V67.6167Z" fill="white"/>
<path d="M39.0004 91.0107L9.90945 91.0107L9.90945 79.5334C9.90945 77.3364 10.3024 75.4614 11.0884 73.9084C11.8649 72.3459 12.9682 71.1574 14.3981 70.343C15.8185 69.5192 17.4899 69.1072 19.4123 69.1072C21.3441 69.1072 23.006 69.5239 24.3981 70.3572C25.7807 71.1906 26.8413 72.398 27.5799 73.9794C28.3185 75.5514 28.6879 77.4548 28.6879 79.6896V87.3743H23.7447V80.6839C23.7447 79.5097 23.5837 78.5343 23.2617 77.7578C22.9397 76.9813 22.4568 76.4036 21.8129 76.0249C21.1689 75.6366 20.3687 75.4425 19.4123 75.4425C18.4464 75.4425 17.632 75.6366 16.9691 76.0249C16.3062 76.4036 15.8043 76.986 15.4634 77.772C15.113 78.5485 14.9379 79.5286 14.9379 80.7124L14.9379 84.8601L39.0004 84.8601V91.0107ZM25.7617 75.3004L39.0004 68.0703V74.8601L25.7617 81.9339L25.7617 75.3004Z" fill="white"/>
<path d="M24.4549 94.7668C27.6272 94.7668 30.3261 95.3681 32.5515 96.5707C34.7769 97.7639 36.4767 99.3927 37.6509 101.457C38.8157 103.512 39.3981 105.823 39.3981 108.389C39.3981 110.974 38.811 113.294 37.6367 115.349C36.4625 117.404 34.7627 119.028 32.5373 120.221C30.3119 121.414 27.6178 122.011 24.4549 122.011C21.2826 122.011 18.5837 121.414 16.3583 120.221C14.1329 119.028 12.4379 117.404 11.2731 115.349C10.0988 113.294 9.51172 110.974 9.51172 108.389C9.51172 105.823 10.0988 103.512 11.2731 101.457C12.4379 99.3927 14.1329 97.7639 16.3583 96.5707C18.5837 95.3681 21.2826 94.7668 24.4549 94.7668ZM24.4549 101.003C22.4 101.003 20.667 101.31 19.256 101.926C17.8451 102.532 16.775 103.389 16.0458 104.497C15.3166 105.605 14.9521 106.902 14.9521 108.389C14.9521 109.876 15.3166 111.173 16.0458 112.281C16.775 113.389 17.8451 114.251 19.256 114.866C20.667 115.472 22.4 115.775 24.4549 115.775C26.5098 115.775 28.2428 115.472 29.6538 114.866C31.0647 114.251 32.1348 113.389 32.864 112.281C33.5932 111.173 33.9577 109.876 33.9577 108.389C33.9577 106.902 33.5932 105.605 32.864 104.497C32.1348 103.389 31.0647 102.532 29.6538 101.926C28.2428 101.31 26.5098 101.003 24.4549 101.003Z" fill="white"/>
<path d="M14.9805 147.198H9.90945L9.90945 123.306H14.9805L14.9805 132.212H39.0004L39.0004 138.292H14.9805L14.9805 147.198Z" fill="white"/>
<path d="M20.0941 149.701L20.0941 155.922C19.2892 156.036 18.5742 156.268 17.9492 156.618C17.3148 156.969 16.775 157.419 16.3299 157.968C15.8848 158.517 15.5439 159.152 15.3072 159.871C15.0704 160.582 14.9521 161.353 14.9521 162.187C14.9521 163.692 15.3261 165.004 16.0742 166.121C16.8129 167.239 17.8924 168.105 19.3129 168.721C20.7238 169.336 22.4379 169.644 24.4549 169.644C26.5288 169.644 28.2712 169.336 29.6822 168.721C31.0932 168.096 32.1585 167.225 32.8782 166.107C33.5979 164.99 33.9577 163.697 33.9577 162.229C33.9577 161.405 33.8488 160.643 33.631 159.942C33.4132 159.232 33.096 158.602 32.6793 158.053C32.2532 157.504 31.7371 157.049 31.131 156.689C30.525 156.32 29.8337 156.064 29.0572 155.922L29.0856 149.701C30.4208 149.862 31.7087 150.264 32.9492 150.908C34.1803 151.543 35.2835 152.4 36.2589 153.479C37.2248 154.549 37.9918 155.828 38.56 157.314C39.1187 158.792 39.3981 160.463 39.3981 162.329C39.3981 164.923 38.811 167.243 37.6367 169.289C36.4625 171.325 34.7627 172.935 32.5373 174.118C30.3119 175.293 27.6178 175.88 24.4549 175.88C21.2826 175.88 18.5837 175.283 16.3583 174.09C14.1329 172.897 12.4379 171.278 11.2731 169.232C10.0988 167.187 9.51172 164.886 9.51172 162.329C9.51172 160.643 9.74846 159.081 10.2219 157.641C10.6954 156.192 11.3867 154.909 12.2958 153.792C13.1954 152.674 14.2987 151.765 15.6055 151.064C16.9123 150.354 18.4085 149.9 20.0941 149.701Z" fill="white"/>
<path d="M39.0004 199.061H9.90945L9.90945 179.458H14.9805L14.9805 192.91H21.9123V180.467H26.9833V192.91H33.9293V179.402H39.0004V199.061Z" fill="white"/>
<path d="M9.90945 222.927L32.0117 215.896V215.626L9.90945 208.58L9.90945 201.762L39.0004 211.79L39.0004 219.717L9.90945 229.759L9.90945 222.927Z" fill="white"/>
</g>
<defs>
<radialGradient id="paint0_radial_1281_494" cx="0" cy="0" r="1" gradientUnits="userSpaceOnUse" gradientTransform="translate(252 142) rotate(90.1813) scale(158.001 209.088)">
<stop offset="0.576627" stop-color="#C093FF"/>
<stop offset="1" stop-color="#400099"/>
</radialGradient>
<clipPath id="clip0_1281_494">
<rect width="450" height="300" fill="white"/>
</clipPath>
</defs>
</svg>
