<svg width="565" height="246" viewBox="0 0 565 246" fill="none" xmlns="http://www.w3.org/2000/svg">
<rect width="565" height="246" fill="white"/>
<circle cx="335" cy="95" r="58" fill="#D9D9D9"/>
<circle cx="343" cy="85" r="44" fill="white" fill-opacity="0.27"/>
<rect x="519.625" y="116" width="41" height="41" rx="6" transform="rotate(180 519.625 116)" fill="#2596F1"/>
<path d="M476.831 106.715C476.831 107.069 476.643 107.398 476.337 107.577L463.475 115.117C462.808 115.508 461.969 115.027 461.969 114.255V76.6106C461.969 75.869 462.748 75.3854 463.412 75.7143L465 76.5L476.324 82.9128C476.638 83.0903 476.831 83.4227 476.831 83.7829V106.715Z" fill="#2596F1"/>
<rect x="69.8916" y="95.3345" width="17.1404" height="74.2751" fill="#886D46"/>
<circle cx="63.2185" cy="84.4401" r="37.9538" fill="#659369"/>
<circle cx="105.662" cy="81.1752" r="29.7917" fill="#659369"/>
<circle cx="93.4184" cy="99.9481" r="29.7917" fill="#659369"/>
<circle cx="59.9538" cy="78.7266" r="37.9538" fill="#82B287"/>
<circle cx="80.3591" cy="51.7917" r="29.7917" fill="#82B287"/>
<circle cx="102.397" cy="75.4618" r="29.7917" fill="#82B287"/>
<circle cx="90.1536" cy="94.2346" r="29.7917" fill="#82B287"/>
<circle cx="50.1592" cy="46.8944" r="17.5485" fill="#82B287"/>
<rect x="51.8706" y="169.82" width="52.5468" height="4.17986" fill="#AAAAAA"/>
<g opacity="0.5">
<rect x="371.029" y="96.2296" width="10.7266" height="46.482" transform="rotate(-180 371.029 96.2296)" fill="#886D46" fill-opacity="0.84"/>
<circle cx="375.205" cy="103.047" r="23.7518" transform="rotate(-180 375.205 103.047)" fill="#659369"/>
<circle cx="348.644" cy="105.091" r="18.6439" transform="rotate(-180 348.644 105.091)" fill="#659369"/>
<circle cx="356.306" cy="93.3424" r="18.6439" transform="rotate(-180 356.306 93.3424)" fill="#659369"/>
<circle cx="377.248" cy="106.623" r="23.7518" transform="rotate(-180 377.248 106.623)" fill="#82B287"/>
<circle cx="364.478" cy="123.479" r="18.6439" transform="rotate(-180 364.478 123.479)" fill="#82B287"/>
<circle cx="350.687" cy="108.666" r="18.6439" transform="rotate(-180 350.687 108.666)" fill="#82B287"/>
<circle cx="358.349" cy="96.9179" r="18.6439" transform="rotate(-180 358.349 96.9179)" fill="#82B287"/>
<circle cx="383.378" cy="126.544" r="10.982" transform="rotate(-180 383.378 126.544)" fill="#82B287"/>
<rect x="382.307" y="49.6158" width="32.8842" height="2.61579" transform="rotate(-180 382.307 49.6158)" fill="#AAAAAA"/>
</g>
<path d="M455.5 97.5L367 49H302.5L77 172" stroke="#D4973C" stroke-opacity="0.5"/>
<path d="M456 96L368 142H302L78.5 22.5" stroke="#AA2B2B" stroke-opacity="0.5"/>
<circle cx="77" cy="170" r="4" fill="#D9D9D9"/>
<circle cx="78" cy="22" r="4" fill="#D9D9D9"/>
<circle cx="455.819" cy="96.8187" r="2.81875" transform="rotate(180 455.819 96.8187)" fill="#90BEE4"/>
<rect x="255" y="161" width="175.182" height="19" rx="9.5" fill="#D9D9D9"/>
<path d="M266.834 167.839V166.894H272.463V167.839H270.194V174.167H269.1V167.839H266.834ZM273.055 174.167V168.712H274.081V169.579H274.138C274.237 169.285 274.413 169.054 274.664 168.886C274.917 168.716 275.203 168.63 275.523 168.63C275.589 168.63 275.667 168.633 275.757 168.638C275.85 168.642 275.922 168.648 275.974 168.655V169.671C275.931 169.659 275.856 169.646 275.747 169.632C275.638 169.615 275.529 169.607 275.42 169.607C275.169 169.607 274.945 169.66 274.749 169.767C274.555 169.871 274.401 170.017 274.287 170.204C274.174 170.388 274.117 170.599 274.117 170.836V174.167H273.055ZM278.431 174.287C278.086 174.287 277.773 174.223 277.494 174.096C277.215 173.965 276.993 173.777 276.83 173.531C276.669 173.285 276.588 172.983 276.588 172.625C276.588 172.318 276.648 172.064 276.766 171.866C276.884 171.667 277.044 171.509 277.245 171.393C277.447 171.277 277.671 171.19 277.92 171.13C278.169 171.071 278.422 171.026 278.68 170.996C279.007 170.958 279.272 170.927 279.475 170.903C279.679 170.877 279.827 170.836 279.919 170.779C280.012 170.722 280.058 170.63 280.058 170.502V170.477C280.058 170.167 279.97 169.927 279.795 169.756C279.622 169.586 279.364 169.5 279.021 169.5C278.663 169.5 278.382 169.58 278.176 169.738C277.972 169.895 277.831 170.069 277.753 170.26L276.755 170.033C276.874 169.702 277.046 169.434 277.274 169.231C277.503 169.025 277.767 168.875 278.066 168.783C278.364 168.688 278.678 168.641 279.007 168.641C279.224 168.641 279.455 168.667 279.699 168.719C279.945 168.769 280.175 168.861 280.388 168.996C280.603 169.131 280.78 169.324 280.917 169.575C281.054 169.824 281.123 170.147 281.123 170.545V174.167H280.086V173.421H280.044C279.975 173.558 279.872 173.693 279.735 173.826C279.597 173.958 279.421 174.068 279.206 174.156C278.99 174.244 278.732 174.287 278.431 174.287ZM278.662 173.435C278.956 173.435 279.207 173.377 279.415 173.261C279.626 173.145 279.786 172.994 279.894 172.807C280.006 172.617 280.061 172.415 280.061 172.199V171.496C280.023 171.534 279.95 171.57 279.841 171.603C279.735 171.634 279.613 171.661 279.475 171.684C279.338 171.706 279.204 171.726 279.074 171.745C278.944 171.761 278.835 171.776 278.747 171.787C278.541 171.813 278.353 171.857 278.183 171.919C278.015 171.98 277.88 172.069 277.778 172.185C277.679 172.299 277.629 172.45 277.629 172.64C277.629 172.902 277.726 173.101 277.92 173.236C278.114 173.369 278.362 173.435 278.662 173.435ZM283.599 170.928V174.167H282.537V168.712H283.557V169.6H283.624C283.75 169.311 283.946 169.079 284.214 168.904C284.483 168.729 284.823 168.641 285.233 168.641C285.604 168.641 285.93 168.719 286.209 168.875C286.489 169.029 286.705 169.259 286.859 169.564C287.013 169.87 287.09 170.247 287.09 170.697V174.167H286.028V170.825C286.028 170.43 285.925 170.121 285.719 169.898C285.513 169.673 285.23 169.561 284.87 169.561C284.624 169.561 284.405 169.614 284.214 169.721C284.024 169.827 283.874 169.983 283.763 170.189C283.654 170.393 283.599 170.639 283.599 170.928ZM292.601 170.044L291.639 170.214C291.599 170.091 291.535 169.974 291.447 169.863C291.362 169.751 291.246 169.66 291.099 169.589C290.952 169.518 290.769 169.483 290.549 169.483C290.248 169.483 289.997 169.55 289.796 169.685C289.595 169.818 289.494 169.989 289.494 170.2C289.494 170.382 289.562 170.529 289.696 170.64C289.831 170.752 290.049 170.843 290.35 170.914L291.216 171.113C291.718 171.229 292.092 171.407 292.339 171.649C292.585 171.89 292.708 172.204 292.708 172.59C292.708 172.917 292.613 173.208 292.424 173.464C292.237 173.717 291.975 173.916 291.639 174.06C291.305 174.205 290.918 174.277 290.478 174.277C289.867 174.277 289.369 174.147 288.983 173.886C288.597 173.623 288.36 173.25 288.272 172.768L289.299 172.611C289.363 172.879 289.494 173.081 289.693 173.219C289.892 173.353 290.151 173.421 290.471 173.421C290.819 173.421 291.097 173.349 291.305 173.204C291.513 173.058 291.618 172.879 291.618 172.668C291.618 172.498 291.554 172.354 291.426 172.238C291.3 172.122 291.107 172.035 290.847 171.976L289.924 171.773C289.415 171.657 289.038 171.473 288.794 171.219C288.553 170.966 288.432 170.645 288.432 170.257C288.432 169.935 288.522 169.653 288.702 169.412C288.882 169.17 289.131 168.982 289.448 168.847C289.765 168.71 290.129 168.641 290.538 168.641C291.128 168.641 291.592 168.769 291.93 169.025C292.269 169.278 292.492 169.618 292.601 170.044ZM293.875 176.212V168.712H294.912V169.596H295.001C295.063 169.483 295.151 169.351 295.267 169.202C295.383 169.053 295.544 168.923 295.75 168.812C295.956 168.698 296.228 168.641 296.567 168.641C297.007 168.641 297.4 168.752 297.746 168.975C298.092 169.197 298.363 169.518 298.559 169.937C298.758 170.356 298.858 170.861 298.858 171.45C298.858 172.04 298.759 172.545 298.563 172.966C298.366 173.385 298.096 173.709 297.753 173.936C297.41 174.161 297.018 174.273 296.578 174.273C296.246 174.273 295.975 174.218 295.764 174.106C295.556 173.995 295.393 173.865 295.274 173.716C295.156 173.567 295.065 173.434 295.001 173.318H294.937V176.212H293.875ZM294.916 171.439C294.916 171.823 294.971 172.159 295.083 172.448C295.194 172.737 295.355 172.963 295.566 173.126C295.776 173.287 296.034 173.368 296.34 173.368C296.657 173.368 296.922 173.284 297.135 173.116C297.348 172.945 297.509 172.714 297.618 172.423C297.729 172.132 297.785 171.804 297.785 171.439C297.785 171.08 297.731 170.756 297.622 170.47C297.515 170.183 297.354 169.957 297.139 169.792C296.926 169.626 296.659 169.543 296.34 169.543C296.032 169.543 295.772 169.622 295.559 169.781C295.348 169.94 295.188 170.161 295.079 170.445C294.97 170.729 294.916 171.061 294.916 171.439ZM301.635 174.287C301.289 174.287 300.976 174.223 300.697 174.096C300.418 173.965 300.196 173.777 300.033 173.531C299.872 173.285 299.791 172.983 299.791 172.625C299.791 172.318 299.851 172.064 299.969 171.866C300.087 171.667 300.247 171.509 300.448 171.393C300.65 171.277 300.875 171.19 301.123 171.13C301.372 171.071 301.625 171.026 301.883 170.996C302.21 170.958 302.475 170.927 302.679 170.903C302.882 170.877 303.03 170.836 303.122 170.779C303.215 170.722 303.261 170.63 303.261 170.502V170.477C303.261 170.167 303.173 169.927 302.998 169.756C302.825 169.586 302.567 169.5 302.224 169.5C301.867 169.5 301.585 169.58 301.379 169.738C301.175 169.895 301.034 170.069 300.956 170.26L299.958 170.033C300.077 169.702 300.25 169.434 300.477 169.231C300.706 169.025 300.97 168.875 301.269 168.783C301.567 168.688 301.881 168.641 302.21 168.641C302.428 168.641 302.658 168.667 302.902 168.719C303.148 168.769 303.378 168.861 303.591 168.996C303.807 169.131 303.983 169.324 304.12 169.575C304.258 169.824 304.326 170.147 304.326 170.545V174.167H303.289V173.421H303.247C303.178 173.558 303.075 173.693 302.938 173.826C302.8 173.958 302.624 174.068 302.409 174.156C302.193 174.244 301.935 174.287 301.635 174.287ZM301.865 173.435C302.159 173.435 302.41 173.377 302.618 173.261C302.829 173.145 302.989 172.994 303.098 172.807C303.209 172.617 303.264 172.415 303.264 172.199V171.496C303.227 171.534 303.153 171.57 303.044 171.603C302.938 171.634 302.816 171.661 302.679 171.684C302.541 171.706 302.407 171.726 302.277 171.745C302.147 171.761 302.038 171.776 301.951 171.787C301.745 171.813 301.556 171.857 301.386 171.919C301.218 171.98 301.083 172.069 300.981 172.185C300.882 172.299 300.832 172.45 300.832 172.64C300.832 172.902 300.929 173.101 301.123 173.236C301.317 173.369 301.565 173.435 301.865 173.435ZM305.741 174.167V168.712H306.767V169.579H306.824C306.923 169.285 307.098 169.054 307.349 168.886C307.602 168.716 307.889 168.63 308.209 168.63C308.275 168.63 308.353 168.633 308.443 168.638C308.535 168.642 308.607 168.648 308.66 168.655V169.671C308.617 169.659 308.541 169.646 308.432 169.632C308.323 169.615 308.214 169.607 308.106 169.607C307.855 169.607 307.631 169.66 307.434 169.767C307.24 169.871 307.086 170.017 306.973 170.204C306.859 170.388 306.802 170.599 306.802 170.836V174.167H305.741ZM311.734 174.277C311.197 174.277 310.734 174.162 310.345 173.932C309.96 173.7 309.661 173.375 309.451 172.956C309.242 172.534 309.138 172.041 309.138 171.475C309.138 170.916 309.242 170.424 309.451 169.998C309.661 169.572 309.955 169.239 310.331 169C310.71 168.761 311.153 168.641 311.659 168.641C311.967 168.641 312.265 168.692 312.554 168.794C312.843 168.896 313.102 169.055 313.332 169.273C313.562 169.491 313.743 169.774 313.875 170.122C314.008 170.468 314.074 170.888 314.074 171.383V171.759H309.738V170.964H313.034C313.034 170.684 312.977 170.437 312.863 170.221C312.75 170.004 312.59 169.832 312.384 169.706C312.18 169.581 311.941 169.518 311.666 169.518C311.368 169.518 311.108 169.592 310.885 169.738C310.665 169.883 310.495 170.072 310.374 170.307C310.255 170.539 310.196 170.791 310.196 171.063V171.684C310.196 172.049 310.26 172.359 310.388 172.615C310.518 172.871 310.699 173.066 310.931 173.201C311.163 173.333 311.434 173.4 311.745 173.4C311.946 173.4 312.129 173.371 312.295 173.314C312.461 173.255 312.604 173.168 312.725 173.052C312.845 172.936 312.938 172.792 313.002 172.622L314.007 172.803C313.926 173.099 313.782 173.358 313.573 173.581C313.367 173.801 313.108 173.973 312.796 174.096C312.486 174.216 312.132 174.277 311.734 174.277ZM316.314 170.928V174.167H315.252V168.712H316.271V169.6H316.339C316.464 169.311 316.661 169.079 316.928 168.904C317.198 168.729 317.538 168.641 317.948 168.641C318.319 168.641 318.645 168.719 318.924 168.875C319.203 169.029 319.42 169.259 319.574 169.564C319.728 169.87 319.805 170.247 319.805 170.697V174.167H318.743V170.825C318.743 170.43 318.64 170.121 318.434 169.898C318.228 169.673 317.945 169.561 317.585 169.561C317.339 169.561 317.12 169.614 316.928 169.721C316.739 169.827 316.589 169.983 316.477 170.189C316.368 170.393 316.314 170.639 316.314 170.928ZM323.775 168.712V169.564H320.796V168.712H323.775ZM321.595 167.405H322.656V172.565C322.656 172.771 322.687 172.926 322.749 173.03C322.81 173.132 322.89 173.202 322.987 173.24C323.086 173.275 323.194 173.293 323.31 173.293C323.395 173.293 323.47 173.287 323.533 173.275C323.597 173.263 323.647 173.254 323.683 173.247L323.874 174.124C323.813 174.148 323.725 174.171 323.612 174.195C323.498 174.221 323.356 174.235 323.185 174.238C322.906 174.242 322.646 174.193 322.404 174.089C322.163 173.984 321.967 173.823 321.818 173.606C321.669 173.388 321.595 173.114 321.595 172.785V167.405ZM327.681 174.167V166.894H330.274C330.837 166.894 331.305 166.991 331.676 167.185C332.05 167.379 332.33 167.648 332.514 167.991C332.699 168.332 332.791 168.726 332.791 169.174C332.791 169.619 332.698 170.011 332.511 170.349C332.326 170.685 332.047 170.947 331.673 171.134C331.301 171.321 330.833 171.415 330.27 171.415H328.306V170.47H330.171C330.526 170.47 330.814 170.419 331.037 170.317C331.262 170.215 331.426 170.067 331.531 169.873C331.635 169.679 331.687 169.446 331.687 169.174C331.687 168.899 331.634 168.661 331.527 168.46C331.423 168.259 331.258 168.105 331.033 167.998C330.811 167.889 330.519 167.835 330.156 167.835H328.779V174.167H327.681ZM331.271 170.885L333.068 174.167H331.818L330.057 170.885H331.271ZM336.324 174.277C335.786 174.277 335.324 174.162 334.935 173.932C334.549 173.7 334.251 173.375 334.04 172.956C333.832 172.534 333.728 172.041 333.728 171.475C333.728 170.916 333.832 170.424 334.04 169.998C334.251 169.572 334.545 169.239 334.921 169C335.3 168.761 335.743 168.641 336.249 168.641C336.557 168.641 336.855 168.692 337.144 168.794C337.433 168.896 337.692 169.055 337.922 169.273C338.151 169.491 338.333 169.774 338.465 170.122C338.598 170.468 338.664 170.888 338.664 171.383V171.759H334.328V170.964H337.624C337.624 170.684 337.567 170.437 337.453 170.221C337.339 170.004 337.18 169.832 336.974 169.706C336.77 169.581 336.531 169.518 336.256 169.518C335.958 169.518 335.698 169.592 335.475 169.738C335.255 169.883 335.084 170.072 334.964 170.307C334.845 170.539 334.786 170.791 334.786 171.063V171.684C334.786 172.049 334.85 172.359 334.978 172.615C335.108 172.871 335.289 173.066 335.521 173.201C335.753 173.333 336.024 173.4 336.334 173.4C336.536 173.4 336.719 173.371 336.885 173.314C337.051 173.255 337.194 173.168 337.315 173.052C337.435 172.936 337.528 172.792 337.592 172.622L338.597 172.803C338.516 173.099 338.372 173.358 338.163 173.581C337.957 173.801 337.698 173.973 337.386 174.096C337.075 174.216 336.722 174.277 336.324 174.277ZM342.438 168.712V169.564H339.356V168.712H342.438ZM340.201 174.167V168.08C340.201 167.739 340.275 167.456 340.424 167.231C340.574 167.004 340.771 166.835 341.018 166.723C341.264 166.61 341.531 166.553 341.82 166.553C342.033 166.553 342.215 166.571 342.367 166.606C342.518 166.639 342.631 166.67 342.704 166.699L342.456 167.558C342.406 167.544 342.342 167.527 342.264 167.508C342.186 167.487 342.091 167.476 341.98 167.476C341.722 167.476 341.537 167.54 341.426 167.668C341.317 167.796 341.263 167.981 341.263 168.222V174.167H340.201ZM343.533 174.167V168.712H344.56V169.579H344.617C344.716 169.285 344.891 169.054 345.142 168.886C345.395 168.716 345.682 168.63 346.002 168.63C346.068 168.63 346.146 168.633 346.236 168.638C346.328 168.642 346.4 168.648 346.453 168.655V169.671C346.41 169.659 346.334 169.646 346.225 169.632C346.116 169.615 346.007 169.607 345.899 169.607C345.648 169.607 345.424 169.66 345.227 169.767C345.033 169.871 344.879 170.017 344.766 170.204C344.652 170.388 344.595 170.599 344.595 170.836V174.167H343.533ZM348.91 174.287C348.564 174.287 348.252 174.223 347.972 174.096C347.693 173.965 347.472 173.777 347.308 173.531C347.147 173.285 347.067 172.983 347.067 172.625C347.067 172.318 347.126 172.064 347.244 171.866C347.363 171.667 347.523 171.509 347.724 171.393C347.925 171.277 348.15 171.19 348.399 171.13C348.647 171.071 348.9 171.026 349.158 170.996C349.485 170.958 349.75 170.927 349.954 170.903C350.158 170.877 350.305 170.836 350.398 170.779C350.49 170.722 350.536 170.63 350.536 170.502V170.477C350.536 170.167 350.449 169.927 350.274 169.756C350.101 169.586 349.843 169.5 349.499 169.5C349.142 169.5 348.86 169.58 348.654 169.738C348.451 169.895 348.31 170.069 348.232 170.26L347.234 170.033C347.352 169.702 347.525 169.434 347.752 169.231C347.982 169.025 348.246 168.875 348.544 168.783C348.842 168.688 349.156 168.641 349.485 168.641C349.703 168.641 349.934 168.667 350.178 168.719C350.424 168.769 350.654 168.861 350.867 168.996C351.082 169.131 351.258 169.324 351.396 169.575C351.533 169.824 351.602 170.147 351.602 170.545V174.167H350.565V173.421H350.522C350.453 173.558 350.35 173.693 350.213 173.826C350.076 173.958 349.899 174.068 349.684 174.156C349.469 174.244 349.211 174.287 348.91 174.287ZM349.141 173.435C349.434 173.435 349.685 173.377 349.894 173.261C350.104 173.145 350.264 172.994 350.373 172.807C350.484 172.617 350.54 172.415 350.54 172.199V171.496C350.502 171.534 350.429 171.57 350.32 171.603C350.213 171.634 350.091 171.661 349.954 171.684C349.817 171.706 349.683 171.726 349.553 171.745C349.422 171.761 349.314 171.776 349.226 171.787C349.02 171.813 348.832 171.857 348.661 171.919C348.493 171.98 348.358 172.069 348.256 172.185C348.157 172.299 348.107 172.45 348.107 172.64C348.107 172.902 348.204 173.101 348.399 173.236C348.593 173.369 348.84 173.435 349.141 173.435ZM355.313 174.277C354.786 174.277 354.331 174.157 353.95 173.918C353.571 173.677 353.28 173.344 353.076 172.92C352.873 172.496 352.771 172.011 352.771 171.464C352.771 170.91 352.875 170.421 353.083 169.998C353.292 169.572 353.585 169.239 353.964 169C354.343 168.761 354.789 168.641 355.303 168.641C355.717 168.641 356.086 168.718 356.411 168.872C356.735 169.023 356.997 169.237 357.196 169.511C357.397 169.786 357.516 170.107 357.554 170.473H356.521C356.464 170.218 356.334 169.998 356.13 169.813C355.929 169.628 355.659 169.536 355.321 169.536C355.025 169.536 354.765 169.614 354.543 169.77C354.323 169.924 354.151 170.144 354.028 170.431C353.905 170.715 353.843 171.051 353.843 171.439C353.843 171.837 353.904 172.18 354.024 172.469C354.145 172.758 354.316 172.982 354.536 173.14C354.758 173.299 355.02 173.378 355.321 173.378C355.522 173.378 355.704 173.342 355.867 173.268C356.033 173.192 356.172 173.085 356.283 172.945C356.397 172.805 356.476 172.637 356.521 172.441H357.554C357.516 172.794 357.402 173.108 357.21 173.385C357.018 173.662 356.761 173.88 356.439 174.039C356.12 174.197 355.744 174.277 355.313 174.277ZM361.236 168.712V169.564H358.256V168.712H361.236ZM359.055 167.405H360.117V172.565C360.117 172.771 360.148 172.926 360.21 173.03C360.271 173.132 360.35 173.202 360.448 173.24C360.547 173.275 360.655 173.293 360.771 173.293C360.856 173.293 360.93 173.287 360.994 173.275C361.058 173.263 361.108 173.254 361.144 173.247L361.335 174.124C361.274 174.148 361.186 174.171 361.073 174.195C360.959 174.221 360.817 174.235 360.646 174.238C360.367 174.242 360.107 174.193 359.865 174.089C359.624 173.984 359.428 173.823 359.279 173.606C359.13 173.388 359.055 173.114 359.055 172.785V167.405ZM362.41 174.167V168.712H363.472V174.167H362.41ZM362.947 167.871C362.762 167.871 362.603 167.809 362.471 167.686C362.341 167.56 362.275 167.411 362.275 167.238C362.275 167.063 362.341 166.914 362.471 166.791C362.603 166.665 362.762 166.603 362.947 166.603C363.131 166.603 363.289 166.665 363.419 166.791C363.552 166.914 363.618 167.063 363.618 167.238C363.618 167.411 363.552 167.56 363.419 167.686C363.289 167.809 363.131 167.871 362.947 167.871ZM369.567 168.712L367.589 174.167H366.453L364.471 168.712H365.611L366.992 172.91H367.049L368.427 168.712H369.567ZM372.73 174.277C372.193 174.277 371.73 174.162 371.342 173.932C370.956 173.7 370.657 173.375 370.447 172.956C370.238 172.534 370.134 172.041 370.134 171.475C370.134 170.916 370.238 170.424 370.447 169.998C370.657 169.572 370.951 169.239 371.327 169C371.706 168.761 372.149 168.641 372.655 168.641C372.963 168.641 373.262 168.692 373.55 168.794C373.839 168.896 374.098 169.055 374.328 169.273C374.558 169.491 374.739 169.774 374.871 170.122C375.004 170.468 375.07 170.888 375.07 171.383V171.759H370.734V170.964H374.03C374.03 170.684 373.973 170.437 373.859 170.221C373.746 170.004 373.586 169.832 373.38 169.706C373.176 169.581 372.937 169.518 372.663 169.518C372.364 169.518 372.104 169.592 371.881 169.738C371.661 169.883 371.491 170.072 371.37 170.307C371.252 170.539 371.192 170.791 371.192 171.063V171.684C371.192 172.049 371.256 172.359 371.384 172.615C371.514 172.871 371.695 173.066 371.927 173.201C372.159 173.333 372.431 173.4 372.741 173.4C372.942 173.4 373.125 173.371 373.291 173.314C373.457 173.255 373.6 173.168 373.721 173.052C373.842 172.936 373.934 172.792 373.998 172.622L375.003 172.803C374.922 173.099 374.778 173.358 374.57 173.581C374.364 173.801 374.104 173.973 373.792 174.096C373.482 174.216 373.128 174.277 372.73 174.277ZM382.947 168.804C382.909 168.468 382.753 168.208 382.478 168.023C382.203 167.836 381.858 167.743 381.441 167.743C381.143 167.743 380.885 167.79 380.667 167.885C380.449 167.977 380.28 168.105 380.159 168.268C380.041 168.429 379.981 168.613 379.981 168.819C379.981 168.991 380.022 169.141 380.102 169.266C380.185 169.392 380.293 169.497 380.425 169.582C380.56 169.665 380.705 169.735 380.859 169.792C381.012 169.846 381.16 169.891 381.302 169.927L382.013 170.111C382.245 170.168 382.483 170.245 382.726 170.342C382.97 170.439 383.196 170.567 383.405 170.726C383.613 170.884 383.781 171.081 383.909 171.315C384.039 171.549 384.104 171.83 384.104 172.157C384.104 172.569 383.998 172.934 383.785 173.254C383.574 173.574 383.267 173.826 382.865 174.01C382.465 174.195 381.981 174.287 381.413 174.287C380.868 174.287 380.397 174.201 379.999 174.028C379.601 173.855 379.29 173.61 379.065 173.293C378.84 172.973 378.716 172.595 378.692 172.157H379.793C379.815 172.42 379.9 172.638 380.049 172.814C380.2 172.987 380.393 173.116 380.628 173.201C380.865 173.284 381.124 173.325 381.405 173.325C381.716 173.325 381.991 173.277 382.233 173.179C382.477 173.08 382.668 172.943 382.808 172.768C382.948 172.59 383.018 172.383 383.018 172.146C383.018 171.931 382.956 171.754 382.833 171.617C382.712 171.48 382.548 171.366 382.339 171.276C382.133 171.186 381.9 171.107 381.64 171.038L380.78 170.804C380.198 170.645 379.736 170.412 379.396 170.104C379.057 169.796 378.888 169.389 378.888 168.883C378.888 168.464 379.001 168.098 379.229 167.785C379.456 167.473 379.764 167.23 380.152 167.057C380.54 166.882 380.978 166.795 381.466 166.795C381.958 166.795 382.393 166.881 382.769 167.054C383.148 167.227 383.446 167.464 383.664 167.768C383.882 168.068 383.995 168.414 384.005 168.804H382.947ZM385.33 176.212V168.712H386.367V169.596H386.456C386.518 169.483 386.606 169.351 386.722 169.202C386.838 169.053 386.999 168.923 387.205 168.812C387.411 168.698 387.684 168.641 388.022 168.641C388.462 168.641 388.855 168.752 389.201 168.975C389.547 169.197 389.818 169.518 390.014 169.937C390.213 170.356 390.313 170.861 390.313 171.45C390.313 172.04 390.214 172.545 390.018 172.966C389.821 173.385 389.551 173.709 389.208 173.936C388.865 174.161 388.473 174.273 388.033 174.273C387.701 174.273 387.43 174.218 387.22 174.106C387.011 173.995 386.848 173.865 386.73 173.716C386.611 173.567 386.52 173.434 386.456 173.318H386.392V176.212H385.33ZM386.371 171.439C386.371 171.823 386.426 172.159 386.538 172.448C386.649 172.737 386.81 172.963 387.021 173.126C387.231 173.287 387.489 173.368 387.795 173.368C388.112 173.368 388.377 173.284 388.59 173.116C388.803 172.945 388.964 172.714 389.073 172.423C389.185 172.132 389.24 171.804 389.24 171.439C389.24 171.08 389.186 170.756 389.077 170.47C388.97 170.183 388.809 169.957 388.594 169.792C388.381 169.626 388.114 169.543 387.795 169.543C387.487 169.543 387.227 169.622 387.014 169.781C386.803 169.94 386.643 170.161 386.534 170.445C386.425 170.729 386.371 171.061 386.371 171.439ZM392.564 170.928V174.167H391.502V166.894H392.55V169.6H392.617C392.745 169.306 392.94 169.073 393.203 168.9C393.466 168.728 393.809 168.641 394.233 168.641C394.607 168.641 394.934 168.718 395.213 168.872C395.495 169.026 395.713 169.255 395.867 169.561C396.023 169.864 396.101 170.243 396.101 170.697V174.167H395.039V170.825C395.039 170.425 394.936 170.115 394.73 169.895C394.524 169.672 394.238 169.561 393.871 169.561C393.62 169.561 393.395 169.614 393.196 169.721C393 169.827 392.845 169.983 392.731 170.189C392.62 170.393 392.564 170.639 392.564 170.928ZM399.869 174.277C399.331 174.277 398.868 174.162 398.48 173.932C398.094 173.7 397.796 173.375 397.585 172.956C397.377 172.534 397.273 172.041 397.273 171.475C397.273 170.916 397.377 170.424 397.585 169.998C397.796 169.572 398.09 169.239 398.466 169C398.845 168.761 399.288 168.641 399.794 168.641C400.102 168.641 400.4 168.692 400.689 168.794C400.978 168.896 401.237 169.055 401.467 169.273C401.696 169.491 401.877 169.774 402.01 170.122C402.143 170.468 402.209 170.888 402.209 171.383V171.759H397.873V170.964H401.168C401.168 170.684 401.112 170.437 400.998 170.221C400.884 170.004 400.725 169.832 400.519 169.706C400.315 169.581 400.076 169.518 399.801 169.518C399.503 169.518 399.243 169.592 399.02 169.738C398.8 169.883 398.629 170.072 398.509 170.307C398.39 170.539 398.331 170.791 398.331 171.063V171.684C398.331 172.049 398.395 172.359 398.523 172.615C398.653 172.871 398.834 173.066 399.066 173.201C399.298 173.333 399.569 173.4 399.879 173.4C400.081 173.4 400.264 173.371 400.43 173.314C400.596 173.255 400.739 173.168 400.859 173.052C400.98 172.936 401.073 172.792 401.136 172.622L402.141 172.803C402.061 173.099 401.917 173.358 401.708 173.581C401.502 173.801 401.243 173.973 400.93 174.096C400.62 174.216 400.266 174.277 399.869 174.277ZM403.387 174.167V168.712H404.413V169.579H404.47C404.57 169.285 404.745 169.054 404.996 168.886C405.249 168.716 405.535 168.63 405.855 168.63C405.921 168.63 405.999 168.633 406.089 168.638C406.182 168.642 406.254 168.648 406.306 168.655V169.671C406.263 169.659 406.188 169.646 406.079 169.632C405.97 169.615 405.861 169.607 405.752 169.607C405.501 169.607 405.277 169.66 405.081 169.767C404.887 169.871 404.733 170.017 404.619 170.204C404.506 170.388 404.449 170.599 404.449 170.836V174.167H403.387ZM409.38 174.277C408.843 174.277 408.38 174.162 407.992 173.932C407.606 173.7 407.308 173.375 407.097 172.956C406.889 172.534 406.785 172.041 406.785 171.475C406.785 170.916 406.889 170.424 407.097 169.998C407.308 169.572 407.601 169.239 407.978 169C408.357 168.761 408.799 168.641 409.306 168.641C409.614 168.641 409.912 168.692 410.201 168.794C410.49 168.896 410.749 169.055 410.978 169.273C411.208 169.491 411.389 169.774 411.522 170.122C411.654 170.468 411.721 170.888 411.721 171.383V171.759H407.385V170.964H410.68C410.68 170.684 410.623 170.437 410.51 170.221C410.396 170.004 410.236 169.832 410.03 169.706C409.827 169.581 409.588 169.518 409.313 169.518C409.015 169.518 408.754 169.592 408.532 169.738C408.312 169.883 408.141 170.072 408.02 170.307C407.902 170.539 407.843 170.791 407.843 171.063V171.684C407.843 172.049 407.907 172.359 408.035 172.615C408.165 172.871 408.346 173.066 408.578 173.201C408.81 173.333 409.081 173.4 409.391 173.4C409.592 173.4 409.776 173.371 409.942 173.314C410.107 173.255 410.25 173.168 410.371 173.052C410.492 172.936 410.584 172.792 410.648 172.622L411.653 172.803C411.573 173.099 411.428 173.358 411.22 173.581C411.014 173.801 410.755 173.973 410.442 174.096C410.132 174.216 409.778 174.277 409.38 174.277Z" fill="black"/>
<rect x="482" y="123" width="33" height="19" rx="9.5" fill="#D9D9D9"/>
<path d="M487.435 128.727L489.459 134.651H489.54L491.565 128.727H492.751L490.134 136H488.866L486.249 128.727H487.435ZM493.716 136V130.545H494.778V136H493.716ZM494.252 129.704C494.067 129.704 493.909 129.642 493.776 129.519C493.646 129.394 493.581 129.245 493.581 129.072C493.581 128.897 493.646 128.747 493.776 128.624C493.909 128.499 494.067 128.436 494.252 128.436C494.437 128.436 494.594 128.499 494.724 128.624C494.857 128.747 494.923 128.897 494.923 129.072C494.923 129.245 494.857 129.394 494.724 129.519C494.594 129.642 494.437 129.704 494.252 129.704ZM498.557 136.11C498.019 136.11 497.557 135.995 497.168 135.766C496.782 135.534 496.484 135.208 496.273 134.789C496.065 134.368 495.961 133.874 495.961 133.308C495.961 132.75 496.065 132.257 496.273 131.831C496.484 131.405 496.778 131.072 497.154 130.833C497.533 130.594 497.976 130.474 498.482 130.474C498.79 130.474 499.088 130.525 499.377 130.627C499.666 130.729 499.925 130.889 500.155 131.107C500.384 131.324 500.566 131.607 500.698 131.955C500.831 132.301 500.897 132.721 500.897 133.216V133.592H496.561V132.797H499.857C499.857 132.518 499.8 132.27 499.686 132.055C499.572 131.837 499.413 131.665 499.207 131.54C499.003 131.414 498.764 131.352 498.489 131.352C498.191 131.352 497.931 131.425 497.708 131.572C497.488 131.716 497.317 131.906 497.197 132.14C497.078 132.372 497.019 132.624 497.019 132.896V133.518C497.019 133.882 497.083 134.192 497.211 134.448C497.341 134.704 497.522 134.899 497.754 135.034C497.986 135.167 498.257 135.233 498.567 135.233C498.769 135.233 498.952 135.205 499.118 135.148C499.284 135.089 499.427 135.001 499.548 134.885C499.668 134.769 499.761 134.626 499.825 134.455L500.83 134.636C500.749 134.932 500.605 135.192 500.396 135.414C500.19 135.634 499.931 135.806 499.619 135.929C499.308 136.05 498.955 136.11 498.557 136.11ZM503.248 136L501.643 130.545H502.74L503.809 134.551H503.862L504.935 130.545H506.032L507.097 134.533H507.151L508.212 130.545H509.31L507.708 136H506.625L505.517 132.062H505.435L504.327 136H503.248Z" fill="black"/>
<rect x="41" y="180" width="76" height="19" rx="9.5" fill="#D9D9D9"/>
<path d="M48.3444 193.167V185.894H52.9041V186.839H49.4417V189.054H52.6661V189.996H49.4417V192.222H52.9467V193.167H48.3444ZM55.3464 189.928V193.167H54.2846V187.712H55.3038V188.6H55.3712C55.4967 188.311 55.6932 188.079 55.9607 187.904C56.2306 187.729 56.5703 187.641 56.9799 187.641C57.3516 187.641 57.6771 187.719 57.9565 187.875C58.2358 188.029 58.4524 188.259 58.6063 188.564C58.7602 188.87 58.8371 189.247 58.8371 189.697V193.167H57.7753V189.825C57.7753 189.43 57.6724 189.121 57.4664 188.898C57.2604 188.673 56.9775 188.561 56.6177 188.561C56.3715 188.561 56.1525 188.614 55.9607 188.721C55.7713 188.827 55.621 188.983 55.5097 189.189C55.4008 189.393 55.3464 189.639 55.3464 189.928ZM64.732 187.712L62.754 193.167H61.6177L59.6361 187.712H60.7761L62.1574 191.91H62.2143L63.5921 187.712H64.732ZM65.7299 193.167V187.712H66.7917V193.167H65.7299ZM66.2661 186.871C66.0815 186.871 65.9228 186.809 65.7903 186.686C65.6601 186.56 65.5949 186.411 65.5949 186.238C65.5949 186.063 65.6601 185.914 65.7903 185.791C65.9228 185.665 66.0815 185.603 66.2661 185.603C66.4508 185.603 66.6082 185.665 66.7384 185.791C66.871 185.914 66.9373 186.063 66.9373 186.238C66.9373 186.411 66.871 186.56 66.7384 186.686C66.6082 186.809 66.4508 186.871 66.2661 186.871ZM68.2201 193.167V187.712H69.2464V188.579H69.3032C69.4027 188.285 69.5778 188.054 69.8288 187.886C70.0821 187.716 70.3686 187.63 70.6882 187.63C70.7545 187.63 70.8326 187.633 70.9225 187.638C71.0149 187.642 71.0871 187.648 71.1392 187.655V188.671C71.0965 188.659 71.0208 188.646 70.9119 188.632C70.803 188.615 70.6941 188.607 70.5852 188.607C70.3342 188.607 70.1105 188.66 69.914 188.767C69.7199 188.871 69.566 189.017 69.4524 189.204C69.3387 189.388 69.2819 189.599 69.2819 189.836V193.167H68.2201ZM74.1603 193.277C73.6489 193.277 73.2027 193.16 72.8215 192.925C72.4404 192.691 72.1444 192.363 71.9337 191.942C71.723 191.52 71.6177 191.028 71.6177 190.464C71.6177 189.898 71.723 189.404 71.9337 188.98C72.1444 188.556 72.4404 188.227 72.8215 187.993C73.2027 187.758 73.6489 187.641 74.1603 187.641C74.6717 187.641 75.1179 187.758 75.4991 187.993C75.8802 188.227 76.1762 188.556 76.3869 188.98C76.5976 189.404 76.7029 189.898 76.7029 190.464C76.7029 191.028 76.5976 191.52 76.3869 191.942C76.1762 192.363 75.8802 192.691 75.4991 192.925C75.1179 193.16 74.6717 193.277 74.1603 193.277ZM74.1638 192.385C74.4953 192.385 74.7699 192.298 74.9877 192.123C75.2055 191.947 75.3665 191.714 75.4707 191.423C75.5772 191.132 75.6305 190.811 75.6305 190.461C75.6305 190.113 75.5772 189.793 75.4707 189.502C75.3665 189.208 75.2055 188.973 74.9877 188.795C74.7699 188.618 74.4953 188.529 74.1638 188.529C73.83 188.529 73.553 188.618 73.3329 188.795C73.1151 188.973 72.9529 189.208 72.8464 189.502C72.7422 189.793 72.6901 190.113 72.6901 190.461C72.6901 190.811 72.7422 191.132 72.8464 191.423C72.9529 191.714 73.1151 191.947 73.3329 192.123C73.553 192.298 73.83 192.385 74.1638 192.385ZM78.9499 189.928V193.167H77.8881V187.712H78.9073V188.6H78.9747C79.1002 188.311 79.2967 188.079 79.5642 187.904C79.8341 187.729 80.1738 187.641 80.5834 187.641C80.9551 187.641 81.2806 187.719 81.56 187.875C81.8393 188.029 82.0559 188.259 82.2098 188.564C82.3637 188.87 82.4407 189.247 82.4407 189.697V193.167H81.3789V189.825C81.3789 189.43 81.2759 189.121 81.0699 188.898C80.8639 188.673 80.581 188.561 80.2212 188.561C79.975 188.561 79.756 188.614 79.5642 188.721C79.3748 188.827 79.2245 188.983 79.1132 189.189C79.0043 189.393 78.9499 189.639 78.9499 189.928ZM83.8647 193.167V187.712H84.8838V188.6H84.9513C85.0649 188.299 85.2508 188.065 85.5088 187.897C85.7669 187.726 86.0758 187.641 86.4357 187.641C86.8003 187.641 87.1057 187.726 87.3519 187.897C87.6005 188.067 87.7839 188.302 87.9023 188.6H87.9591C88.0893 188.309 88.2965 188.077 88.5806 187.904C88.8647 187.729 89.2032 187.641 89.5962 187.641C90.091 187.641 90.4946 187.796 90.8071 188.106C91.122 188.416 91.2794 188.884 91.2794 189.509V193.167H90.2176V189.608C90.2176 189.239 90.117 188.972 89.9158 188.806C89.7146 188.64 89.4743 188.557 89.1949 188.557C88.8493 188.557 88.5806 188.664 88.3888 188.877C88.197 189.088 88.1012 189.359 88.1012 189.69V193.167H87.0429V189.541C87.0429 189.245 86.9506 189.007 86.7659 188.827C86.5813 188.647 86.341 188.557 86.0451 188.557C85.8438 188.557 85.658 188.611 85.4875 188.717C85.3194 188.821 85.1833 188.967 85.0791 189.154C84.9773 189.341 84.9264 189.558 84.9264 189.804V193.167H83.8647ZM95.0534 193.277C94.516 193.277 94.0532 193.162 93.6649 192.932C93.279 192.7 92.9807 192.375 92.77 191.956C92.5617 191.534 92.4575 191.041 92.4575 190.475C92.4575 189.916 92.5617 189.424 92.77 188.998C92.9807 188.572 93.2743 188.239 93.6507 188C94.0295 187.761 94.4722 187.641 94.9788 187.641C95.2866 187.641 95.5849 187.692 95.8737 187.794C96.1625 187.896 96.4218 188.055 96.6514 188.273C96.8811 188.491 97.0622 188.774 97.1947 189.122C97.3273 189.468 97.3936 189.888 97.3936 190.383V190.759H93.0577V189.964H96.3531C96.3531 189.684 96.2963 189.437 96.1827 189.221C96.069 189.004 95.9092 188.832 95.7033 188.706C95.4997 188.581 95.2605 188.518 94.9859 188.518C94.6876 188.518 94.4272 188.592 94.2047 188.738C93.9845 188.883 93.8141 189.072 93.6933 189.307C93.5749 189.539 93.5158 189.791 93.5158 190.063V190.684C93.5158 191.049 93.5797 191.359 93.7075 191.615C93.8377 191.871 94.0188 192.066 94.2508 192.201C94.4829 192.333 94.7539 192.4 95.0641 192.4C95.2653 192.4 95.4488 192.371 95.6145 192.314C95.7802 192.255 95.9234 192.168 96.0442 192.052C96.1649 191.936 96.2572 191.792 96.3212 191.622L97.3261 191.803C97.2456 192.099 97.1012 192.358 96.8929 192.581C96.6869 192.801 96.4277 192.973 96.1152 193.096C95.8051 193.216 95.4511 193.277 95.0534 193.277ZM99.6335 189.928V193.167H98.5717V187.712H99.5909V188.6H99.6583C99.7838 188.311 99.9803 188.079 100.248 187.904C100.518 187.729 100.857 187.641 101.267 187.641C101.639 187.641 101.964 187.719 102.244 187.875C102.523 188.029 102.74 188.259 102.893 188.564C103.047 188.87 103.124 189.247 103.124 189.697V193.167H102.062V189.825C102.062 189.43 101.959 189.121 101.754 188.898C101.548 188.673 101.265 188.561 100.905 188.561C100.659 188.561 100.44 188.614 100.248 188.721C100.058 188.827 99.9081 188.983 99.7968 189.189C99.6879 189.393 99.6335 189.639 99.6335 189.928ZM107.094 187.712V188.564H104.115V187.712H107.094ZM104.914 186.405H105.976V191.565C105.976 191.771 106.007 191.926 106.068 192.03C106.13 192.132 106.209 192.202 106.306 192.24C106.405 192.275 106.513 192.293 106.629 192.293C106.714 192.293 106.789 192.287 106.853 192.275C106.917 192.263 106.967 192.254 107.002 192.247L107.194 193.124C107.132 193.148 107.045 193.171 106.931 193.195C106.817 193.221 106.675 193.235 106.505 193.238C106.226 193.242 105.965 193.193 105.724 193.089C105.482 192.984 105.287 192.823 105.138 192.606C104.989 192.388 104.914 192.114 104.914 191.785V186.405Z" fill="black"/>
<rect x="173" y="49" width="85" height="19" rx="9.5" fill="#D9D9D9"/>
<path d="M181.442 54.8939V62.1667H180.344V54.8939H181.442ZM184.016 58.928V62.1667H182.955V56.7121H183.974V57.5999H184.041C184.167 57.3111 184.363 57.0791 184.631 56.9039C184.901 56.7287 185.24 56.6411 185.65 56.6411C186.021 56.6411 186.347 56.7192 186.626 56.8755C186.906 57.0293 187.122 57.259 187.276 57.5644C187.43 57.8698 187.507 58.2474 187.507 58.6972V62.1667H186.445V58.825C186.445 58.4297 186.342 58.1207 186.136 57.8982C185.93 57.6733 185.647 57.5608 185.288 57.5608C185.041 57.5608 184.822 57.6141 184.631 57.7206C184.441 57.8272 184.291 57.9834 184.18 58.1894C184.071 58.393 184.016 58.6392 184.016 58.928ZM193.402 56.7121L191.424 62.1667H190.288L188.306 56.7121H189.446L190.827 60.9096H190.884L192.262 56.7121H193.402ZM196.565 62.2767C196.028 62.2767 195.565 62.1619 195.177 61.9323C194.791 61.7003 194.492 61.3748 194.282 60.9557C194.073 60.5343 193.969 60.0407 193.969 59.4749C193.969 58.9162 194.073 58.4238 194.282 57.9976C194.492 57.5715 194.786 57.2389 195.162 56.9998C195.541 56.7606 195.984 56.6411 196.491 56.6411C196.798 56.6411 197.097 56.692 197.385 56.7938C197.674 56.8956 197.933 57.0554 198.163 57.2732C198.393 57.491 198.574 57.7739 198.706 58.1219C198.839 58.4676 198.905 58.8878 198.905 59.3826V59.759H194.569V58.9635H197.865C197.865 58.6842 197.808 58.4368 197.694 58.2213C197.581 58.0035 197.421 57.8319 197.215 57.7064C197.011 57.581 196.772 57.5182 196.498 57.5182C196.199 57.5182 195.939 57.5916 195.716 57.7384C195.496 57.8828 195.326 58.0722 195.205 58.3066C195.087 58.5386 195.027 58.7907 195.027 59.063V59.6844C195.027 60.049 195.091 60.3591 195.219 60.6148C195.349 60.8705 195.531 61.0658 195.763 61.2007C195.995 61.3333 196.266 61.3996 196.576 61.3996C196.777 61.3996 196.96 61.3712 197.126 61.3144C197.292 61.2552 197.435 61.1676 197.556 61.0516C197.677 60.9356 197.769 60.7924 197.833 60.6219L198.838 60.803C198.757 61.0989 198.613 61.3582 198.405 61.5807C198.199 61.8009 197.939 61.9725 197.627 62.0956C197.317 62.2164 196.963 62.2767 196.565 62.2767ZM200.083 62.1667V56.7121H201.11V57.5786H201.167C201.266 57.285 201.441 57.0542 201.692 56.8861C201.945 56.7157 202.232 56.6304 202.551 56.6304C202.618 56.6304 202.696 56.6328 202.786 56.6375C202.878 56.6423 202.95 56.6482 203.002 56.6553V57.6709C202.96 57.6591 202.884 57.6461 202.775 57.6319C202.666 57.6153 202.557 57.607 202.448 57.607C202.198 57.607 201.974 57.6603 201.777 57.7668C201.583 57.871 201.429 58.0166 201.316 58.2036C201.202 58.3882 201.145 58.5989 201.145 58.8357V62.1667H200.083ZM208.009 58.0438L207.046 58.2142C207.006 58.0911 206.942 57.9739 206.855 57.8627C206.769 57.7514 206.653 57.6603 206.507 57.5892C206.36 57.5182 206.176 57.4827 205.956 57.4827C205.655 57.4827 205.404 57.5502 205.203 57.6851C205.002 57.8177 204.901 57.9893 204.901 58.2C204.901 58.3823 204.969 58.5291 205.104 58.6404C205.239 58.7516 205.457 58.8428 205.757 58.9138L206.624 59.1127C207.126 59.2287 207.5 59.4074 207.746 59.6489C207.992 59.8904 208.115 60.2041 208.115 60.59C208.115 60.9167 208.02 61.2078 207.831 61.4635C207.644 61.7168 207.382 61.9157 207.046 62.0601C206.712 62.2045 206.325 62.2767 205.885 62.2767C205.274 62.2767 204.776 62.1465 204.39 61.8861C204.004 61.6233 203.767 61.2505 203.68 60.7675L204.706 60.6113C204.77 60.8788 204.901 61.0812 205.1 61.2185C205.299 61.3534 205.558 61.4209 205.878 61.4209C206.226 61.4209 206.504 61.3487 206.712 61.2043C206.921 61.0575 207.025 60.8788 207.025 60.6681C207.025 60.4976 206.961 60.3544 206.833 60.2384C206.708 60.1224 206.515 60.0348 206.254 59.9756L205.331 59.7732C204.822 59.6572 204.446 59.4725 204.202 59.2192C203.96 58.9659 203.84 58.6451 203.84 58.2569C203.84 57.9349 203.93 57.6532 204.11 57.4117C204.289 57.1702 204.538 56.982 204.855 56.8471C205.172 56.7097 205.536 56.6411 205.945 56.6411C206.535 56.6411 206.999 56.7689 207.337 57.0246C207.676 57.2779 207.9 57.6177 208.009 58.0438ZM209.283 62.1667V56.7121H210.344V62.1667H209.283ZM209.819 55.8705C209.634 55.8705 209.476 55.8089 209.343 55.6858C209.213 55.5604 209.148 55.4112 209.148 55.2384C209.148 55.0632 209.213 54.9141 209.343 54.7909C209.476 54.6655 209.634 54.6027 209.819 54.6027C210.004 54.6027 210.161 54.6655 210.291 54.7909C210.424 54.9141 210.49 55.0632 210.49 55.2384C210.49 55.4112 210.424 55.5604 210.291 55.6858C210.161 55.8089 210.004 55.8705 209.819 55.8705ZM214.07 62.2767C213.559 62.2767 213.113 62.1596 212.732 61.9252C212.351 61.6908 212.055 61.3629 211.844 60.9415C211.633 60.5201 211.528 60.0277 211.528 59.4642C211.528 58.8984 211.633 58.4036 211.844 57.9799C212.055 57.5561 212.351 57.227 212.732 56.9927C213.113 56.7583 213.559 56.6411 214.07 56.6411C214.582 56.6411 215.028 56.7583 215.409 56.9927C215.79 57.227 216.086 57.5561 216.297 57.9799C216.508 58.4036 216.613 58.8984 216.613 59.4642C216.613 60.0277 216.508 60.5201 216.297 60.9415C216.086 61.3629 215.79 61.6908 215.409 61.9252C215.028 62.1596 214.582 62.2767 214.07 62.2767ZM214.074 61.3854C214.405 61.3854 214.68 61.2978 214.898 61.1226C215.116 60.9474 215.277 60.7142 215.381 60.423C215.487 60.1319 215.541 59.8111 215.541 59.4607C215.541 59.1127 215.487 58.7931 215.381 58.5019C215.277 58.2083 215.116 57.9728 214.898 57.7952C214.68 57.6177 214.405 57.5289 214.074 57.5289C213.74 57.5289 213.463 57.6177 213.243 57.7952C213.025 57.9728 212.863 58.2083 212.757 58.5019C212.652 58.7931 212.6 59.1127 212.6 59.4607C212.6 59.8111 212.652 60.1319 212.757 60.423C212.863 60.7142 213.025 60.9474 213.243 61.1226C213.463 61.2978 213.74 61.3854 214.074 61.3854ZM218.86 58.928V62.1667H217.798V56.7121H218.817V57.5999H218.885C219.01 57.3111 219.207 57.0791 219.474 56.9039C219.744 56.7287 220.084 56.6411 220.494 56.6411C220.865 56.6411 221.191 56.7192 221.47 56.8755C221.749 57.0293 221.966 57.259 222.12 57.5644C222.274 57.8698 222.351 58.2474 222.351 58.6972V62.1667H221.289V58.825C221.289 58.4297 221.186 58.1207 220.98 57.8982C220.774 57.6733 220.491 57.5608 220.131 57.5608C219.885 57.5608 219.666 57.6141 219.474 57.7206C219.285 57.8272 219.135 57.9834 219.023 58.1894C218.914 58.393 218.86 58.6392 218.86 58.928ZM226.507 62.1667V54.8939H229.099C229.665 54.8939 230.133 54.9969 230.505 55.2029C230.877 55.4088 231.155 55.6906 231.34 56.048C231.524 56.4032 231.617 56.8033 231.617 57.2483C231.617 57.6958 231.523 58.0982 231.336 58.4557C231.151 58.8108 230.872 59.0926 230.498 59.3009C230.126 59.5069 229.659 59.6098 229.095 59.6098H227.313V58.6794H228.996C229.353 58.6794 229.643 58.6179 229.866 58.4948C230.088 58.3693 230.252 58.1989 230.356 57.9834C230.46 57.768 230.512 57.523 230.512 57.2483C230.512 56.9737 230.46 56.7299 230.356 56.5168C230.252 56.3037 230.087 56.1368 229.862 56.0161C229.64 55.8953 229.346 55.835 228.982 55.835H227.604V62.1667H226.507ZM235.047 62.2767C234.536 62.2767 234.089 62.1596 233.708 61.9252C233.327 61.6908 233.031 61.3629 232.82 60.9415C232.61 60.5201 232.504 60.0277 232.504 59.4642C232.504 58.8984 232.61 58.4036 232.82 57.9799C233.031 57.5561 233.327 57.227 233.708 56.9927C234.089 56.7583 234.536 56.6411 235.047 56.6411C235.558 56.6411 236.005 56.7583 236.386 56.9927C236.767 57.227 237.063 57.5561 237.274 57.9799C237.484 58.4036 237.59 58.8984 237.59 59.4642C237.59 60.0277 237.484 60.5201 237.274 60.9415C237.063 61.3629 236.767 61.6908 236.386 61.9252C236.005 62.1596 235.558 62.2767 235.047 62.2767ZM235.051 61.3854C235.382 61.3854 235.657 61.2978 235.874 61.1226C236.092 60.9474 236.253 60.7142 236.357 60.423C236.464 60.1319 236.517 59.8111 236.517 59.4607C236.517 59.1127 236.464 58.7931 236.357 58.5019C236.253 58.2083 236.092 57.9728 235.874 57.7952C235.657 57.6177 235.382 57.5289 235.051 57.5289C234.717 57.5289 234.44 57.6177 234.22 57.7952C234.002 57.9728 233.84 58.2083 233.733 58.5019C233.629 58.7931 233.577 59.1127 233.577 59.4607C233.577 59.8111 233.629 60.1319 233.733 60.423C233.84 60.7142 234.002 60.9474 234.22 61.1226C234.44 61.2978 234.717 61.3854 235.051 61.3854ZM238.775 62.1667V56.7121H239.837V62.1667H238.775ZM239.311 55.8705C239.126 55.8705 238.968 55.8089 238.835 55.6858C238.705 55.5604 238.64 55.4112 238.64 55.2384C238.64 55.0632 238.705 54.9141 238.835 54.7909C238.968 54.6655 239.126 54.6027 239.311 54.6027C239.496 54.6027 239.653 54.6655 239.783 54.7909C239.916 54.9141 239.982 55.0632 239.982 55.2384C239.982 55.4112 239.916 55.5604 239.783 55.6858C239.653 55.8089 239.496 55.8705 239.311 55.8705ZM242.327 58.928V62.1667H241.265V56.7121H242.284V57.5999H242.352C242.477 57.3111 242.674 57.0791 242.941 56.9039C243.211 56.7287 243.551 56.6411 243.96 56.6411C244.332 56.6411 244.658 56.7192 244.937 56.8755C245.216 57.0293 245.433 57.259 245.587 57.5644C245.741 57.8698 245.818 58.2474 245.818 58.6972V62.1667H244.756V58.825C244.756 58.4297 244.653 58.1207 244.447 57.8982C244.241 57.6733 243.958 57.5608 243.598 57.5608C243.352 57.5608 243.133 57.6141 242.941 57.7206C242.752 57.8272 242.601 57.9834 242.49 58.1894C242.381 58.393 242.327 58.6392 242.327 58.928ZM249.788 56.7121V57.5644H246.808V56.7121H249.788ZM247.607 55.4053H248.669V60.5651C248.669 60.7711 248.7 60.9261 248.761 61.0303C248.823 61.1321 248.902 61.2019 248.999 61.2398C249.099 61.2753 249.207 61.2931 249.323 61.2931C249.408 61.2931 249.482 61.2872 249.546 61.2753C249.61 61.2635 249.66 61.254 249.695 61.2469L249.887 62.124C249.826 62.1477 249.738 62.1714 249.624 62.1951C249.511 62.2211 249.369 62.2353 249.198 62.2377C248.919 62.2424 248.659 62.1927 248.417 62.0885C248.176 61.9844 247.98 61.8234 247.831 61.6056C247.682 61.3878 247.607 61.1143 247.607 60.7853V55.4053Z" fill="black"/>
<rect x="245" y="187" width="195.848" height="19" rx="9.5" fill="#D9D9D9"/>
<path d="M250.44 193.672V192.727H256.069V193.672H253.8V200H252.706V193.672H250.44ZM258.289 196.761V200H257.227V192.727H258.275V195.433H258.343C258.47 195.14 258.666 194.906 258.928 194.734C259.191 194.561 259.535 194.474 259.958 194.474C260.332 194.474 260.659 194.551 260.938 194.705C261.22 194.859 261.438 195.089 261.592 195.394C261.748 195.697 261.826 196.076 261.826 196.531V200H260.764V196.658C260.764 196.258 260.661 195.948 260.455 195.728C260.249 195.505 259.963 195.394 259.596 195.394C259.345 195.394 259.12 195.447 258.921 195.554C258.725 195.661 258.57 195.817 258.456 196.023C258.345 196.226 258.289 196.473 258.289 196.761ZM265.594 200.11C265.057 200.11 264.594 199.995 264.205 199.766C263.82 199.534 263.521 199.208 263.311 198.789C263.102 198.368 262.998 197.874 262.998 197.308C262.998 196.75 263.102 196.257 263.311 195.831C263.521 195.405 263.815 195.072 264.191 194.833C264.57 194.594 265.013 194.474 265.519 194.474C265.827 194.474 266.125 194.525 266.414 194.627C266.703 194.729 266.962 194.889 267.192 195.107C267.422 195.324 267.603 195.607 267.735 195.955C267.868 196.301 267.934 196.721 267.934 197.216V197.592H263.598V196.797H266.894C266.894 196.518 266.837 196.27 266.723 196.055C266.61 195.837 266.45 195.665 266.244 195.54C266.04 195.414 265.801 195.352 265.526 195.352C265.228 195.352 264.968 195.425 264.745 195.572C264.525 195.716 264.355 195.906 264.234 196.14C264.115 196.372 264.056 196.624 264.056 196.896V197.518C264.056 197.882 264.12 198.192 264.248 198.448C264.378 198.704 264.559 198.899 264.791 199.034C265.023 199.167 265.294 199.233 265.605 199.233C265.806 199.233 265.989 199.205 266.155 199.148C266.321 199.089 266.464 199.001 266.585 198.885C266.705 198.769 266.798 198.626 266.862 198.455L267.867 198.636C267.786 198.932 267.642 199.192 267.433 199.414C267.227 199.634 266.968 199.806 266.656 199.929C266.346 200.05 265.992 200.11 265.594 200.11ZM271.844 200V192.727H274.436C275 192.727 275.467 192.824 275.839 193.018C276.213 193.213 276.492 193.481 276.677 193.825C276.862 194.165 276.954 194.56 276.954 195.007C276.954 195.452 276.86 195.844 276.673 196.183C276.489 196.519 276.209 196.78 275.835 196.967C275.464 197.154 274.996 197.248 274.433 197.248H272.469V196.303H274.333C274.688 196.303 274.977 196.252 275.2 196.151C275.425 196.049 275.589 195.901 275.693 195.707C275.798 195.513 275.85 195.279 275.85 195.007C275.85 194.732 275.796 194.495 275.69 194.293C275.586 194.092 275.421 193.938 275.196 193.832C274.974 193.723 274.681 193.668 274.319 193.668H272.941V200H271.844ZM275.434 196.719L277.231 200H275.981L274.22 196.719H275.434ZM280.487 200.11C279.949 200.11 279.486 199.995 279.098 199.766C278.712 199.534 278.414 199.208 278.203 198.789C277.995 198.368 277.891 197.874 277.891 197.308C277.891 196.75 277.995 196.257 278.203 195.831C278.414 195.405 278.707 195.072 279.084 194.833C279.463 194.594 279.905 194.474 280.412 194.474C280.72 194.474 281.018 194.525 281.307 194.627C281.596 194.729 281.855 194.889 282.085 195.107C282.314 195.324 282.495 195.607 282.628 195.955C282.76 196.301 282.827 196.721 282.827 197.216V197.592H278.491V196.797H281.786C281.786 196.518 281.729 196.27 281.616 196.055C281.502 195.837 281.342 195.665 281.136 195.54C280.933 195.414 280.694 195.352 280.419 195.352C280.121 195.352 279.86 195.425 279.638 195.572C279.418 195.716 279.247 195.906 279.126 196.14C279.008 196.372 278.949 196.624 278.949 196.896V197.518C278.949 197.882 279.013 198.192 279.141 198.448C279.271 198.704 279.452 198.899 279.684 199.034C279.916 199.167 280.187 199.233 280.497 199.233C280.698 199.233 280.882 199.205 281.048 199.148C281.213 199.089 281.357 199.001 281.477 198.885C281.598 198.769 281.69 198.626 281.754 198.455L282.759 198.636C282.679 198.932 282.534 199.192 282.326 199.414C282.12 199.634 281.861 199.806 281.548 199.929C281.238 200.05 280.884 200.11 280.487 200.11ZM286.601 194.545V195.398H283.518V194.545H286.601ZM284.363 200V193.913C284.363 193.572 284.438 193.29 284.587 193.065C284.736 192.837 284.934 192.668 285.18 192.557C285.426 192.443 285.694 192.386 285.983 192.386C286.196 192.386 286.378 192.404 286.53 192.44C286.681 192.473 286.794 192.504 286.867 192.532L286.618 193.391C286.569 193.377 286.505 193.361 286.427 193.342C286.349 193.32 286.254 193.31 286.143 193.31C285.885 193.31 285.7 193.374 285.589 193.501C285.48 193.629 285.425 193.814 285.425 194.055V200H284.363ZM287.696 200V194.545H288.722V195.412H288.779C288.879 195.118 289.054 194.888 289.305 194.719C289.558 194.549 289.845 194.464 290.164 194.464C290.231 194.464 290.309 194.466 290.399 194.471C290.491 194.476 290.563 194.482 290.615 194.489V195.504C290.573 195.492 290.497 195.479 290.388 195.465C290.279 195.449 290.17 195.44 290.061 195.44C289.81 195.44 289.587 195.494 289.39 195.6C289.196 195.704 289.042 195.85 288.928 196.037C288.815 196.222 288.758 196.432 288.758 196.669V200H287.696ZM293.073 200.121C292.727 200.121 292.414 200.057 292.135 199.929C291.856 199.799 291.634 199.611 291.471 199.364C291.31 199.118 291.23 198.816 291.23 198.459C291.23 198.151 291.289 197.898 291.407 197.699C291.526 197.5 291.685 197.343 291.887 197.227C292.088 197.111 292.313 197.023 292.561 196.964C292.81 196.905 293.063 196.86 293.321 196.829C293.648 196.791 293.913 196.76 294.117 196.737C294.32 196.71 294.468 196.669 294.561 196.612C294.653 196.555 294.699 196.463 294.699 196.335V196.31C294.699 196 294.611 195.76 294.436 195.589C294.263 195.419 294.005 195.334 293.662 195.334C293.305 195.334 293.023 195.413 292.817 195.572C292.613 195.728 292.472 195.902 292.394 196.094L291.396 195.866C291.515 195.535 291.688 195.268 291.915 195.064C292.145 194.858 292.409 194.709 292.707 194.616C293.005 194.522 293.319 194.474 293.648 194.474C293.866 194.474 294.097 194.5 294.34 194.553C294.587 194.602 294.816 194.695 295.029 194.83C295.245 194.964 295.421 195.157 295.558 195.408C295.696 195.657 295.764 195.98 295.764 196.378V200H294.727V199.254H294.685C294.616 199.392 294.513 199.527 294.376 199.659C294.239 199.792 294.062 199.902 293.847 199.989C293.631 200.077 293.373 200.121 293.073 200.121ZM293.303 199.268C293.597 199.268 293.848 199.21 294.056 199.094C294.267 198.978 294.427 198.827 294.536 198.64C294.647 198.451 294.703 198.248 294.703 198.033V197.33C294.665 197.367 294.591 197.403 294.482 197.436C294.376 197.467 294.254 197.494 294.117 197.518C293.979 197.539 293.846 197.559 293.715 197.578C293.585 197.595 293.476 197.609 293.389 197.621C293.183 197.647 292.994 197.691 292.824 197.752C292.656 197.814 292.521 197.902 292.419 198.018C292.32 198.132 292.27 198.284 292.27 198.473C292.27 198.736 292.367 198.935 292.561 199.07C292.755 199.202 293.003 199.268 293.303 199.268ZM299.476 200.11C298.948 200.11 298.494 199.991 298.113 199.751C297.734 199.51 297.443 199.177 297.239 198.754C297.035 198.33 296.934 197.844 296.934 197.298C296.934 196.744 297.038 196.255 297.246 195.831C297.454 195.405 297.748 195.072 298.127 194.833C298.506 194.594 298.952 194.474 299.466 194.474C299.88 194.474 300.249 194.551 300.574 194.705C300.898 194.857 301.159 195.07 301.358 195.344C301.56 195.619 301.679 195.94 301.717 196.307H300.684C300.627 196.051 300.497 195.831 300.293 195.646C300.092 195.462 299.822 195.369 299.483 195.369C299.187 195.369 298.928 195.447 298.706 195.604C298.485 195.758 298.314 195.978 298.191 196.264C298.068 196.548 298.006 196.884 298.006 197.273C298.006 197.67 298.066 198.014 298.187 198.303C298.308 198.591 298.478 198.815 298.699 198.974C298.921 199.132 299.183 199.212 299.483 199.212C299.685 199.212 299.867 199.175 300.03 199.102C300.196 199.026 300.334 198.918 300.446 198.778C300.559 198.639 300.639 198.471 300.684 198.274H301.717C301.679 198.627 301.564 198.942 301.373 199.219C301.181 199.496 300.924 199.714 300.602 199.872C300.282 200.031 299.907 200.11 299.476 200.11ZM305.399 194.545V195.398H302.419V194.545H305.399ZM303.218 193.239H304.28V198.398C304.28 198.604 304.311 198.759 304.372 198.864C304.434 198.965 304.513 199.035 304.61 199.073C304.71 199.109 304.817 199.126 304.933 199.126C305.019 199.126 305.093 199.121 305.157 199.109C305.221 199.097 305.271 199.087 305.306 199.08L305.498 199.957C305.436 199.981 305.349 200.005 305.235 200.028C305.122 200.054 304.98 200.069 304.809 200.071C304.53 200.076 304.269 200.026 304.028 199.922C303.786 199.818 303.591 199.657 303.442 199.439C303.293 199.221 303.218 198.948 303.218 198.619V193.239ZM308.865 200.11C308.328 200.11 307.865 199.995 307.477 199.766C307.091 199.534 306.793 199.208 306.582 198.789C306.374 198.368 306.27 197.874 306.27 197.308C306.27 196.75 306.374 196.257 306.582 195.831C306.793 195.405 307.086 195.072 307.463 194.833C307.842 194.594 308.284 194.474 308.791 194.474C309.099 194.474 309.397 194.525 309.686 194.627C309.975 194.729 310.234 194.889 310.463 195.107C310.693 195.324 310.874 195.607 311.007 195.955C311.139 196.301 311.206 196.721 311.206 197.216V197.592H306.87V196.797H310.165C310.165 196.518 310.108 196.27 309.995 196.055C309.881 195.837 309.721 195.665 309.515 195.54C309.312 195.414 309.073 195.352 308.798 195.352C308.5 195.352 308.239 195.425 308.017 195.572C307.797 195.716 307.626 195.906 307.505 196.14C307.387 196.372 307.328 196.624 307.328 196.896V197.518C307.328 197.882 307.392 198.192 307.52 198.448C307.65 198.704 307.831 198.899 308.063 199.034C308.295 199.167 308.566 199.233 308.876 199.233C309.077 199.233 309.261 199.205 309.426 199.148C309.592 199.089 309.735 199.001 309.856 198.885C309.977 198.769 310.069 198.626 310.133 198.455L311.138 198.636C311.058 198.932 310.913 199.192 310.705 199.414C310.499 199.634 310.24 199.806 309.927 199.929C309.617 200.05 309.263 200.11 308.865 200.11ZM314.426 200.107C313.985 200.107 313.592 199.994 313.247 199.769C312.903 199.542 312.633 199.219 312.437 198.8C312.243 198.378 312.146 197.873 312.146 197.283C312.146 196.694 312.244 196.19 312.441 195.771C312.639 195.352 312.912 195.031 313.257 194.808C313.603 194.586 313.995 194.474 314.433 194.474C314.771 194.474 315.044 194.531 315.249 194.645C315.458 194.756 315.619 194.886 315.732 195.036C315.848 195.185 315.938 195.316 316.002 195.43H316.066V192.727H317.128V200H316.091V199.151H316.002C315.938 199.267 315.846 199.4 315.725 199.549C315.607 199.698 315.444 199.828 315.235 199.94C315.027 200.051 314.757 200.107 314.426 200.107ZM314.66 199.201C314.965 199.201 315.223 199.121 315.434 198.96C315.647 198.796 315.808 198.57 315.917 198.281C316.028 197.992 316.084 197.656 316.084 197.273C316.084 196.894 316.03 196.562 315.921 196.278C315.812 195.994 315.652 195.773 315.441 195.614C315.231 195.456 314.97 195.376 314.66 195.376C314.34 195.376 314.074 195.459 313.861 195.625C313.648 195.791 313.487 196.017 313.378 196.303C313.271 196.59 313.218 196.913 313.218 197.273C313.218 197.637 313.273 197.965 313.382 198.256C313.49 198.548 313.651 198.778 313.865 198.949C314.08 199.117 314.345 199.201 314.66 199.201ZM321.375 200V192.727H325.935V193.672H322.472V195.888H325.697V196.829H322.472V199.055H325.977V200H321.375ZM328.377 196.761V200H327.315V194.545H328.335V195.433H328.402C328.527 195.144 328.724 194.912 328.991 194.737C329.261 194.562 329.601 194.474 330.011 194.474C330.382 194.474 330.708 194.553 330.987 194.709C331.267 194.863 331.483 195.092 331.637 195.398C331.791 195.703 331.868 196.081 331.868 196.531V200H330.806V196.658C330.806 196.263 330.703 195.954 330.497 195.732C330.291 195.507 330.008 195.394 329.648 195.394C329.402 195.394 329.183 195.447 328.991 195.554C328.802 195.661 328.652 195.817 328.54 196.023C328.432 196.226 328.377 196.473 328.377 196.761ZM337.763 194.545L335.785 200H334.648L332.667 194.545H333.807L335.188 198.743H335.245L336.623 194.545H337.763ZM338.761 200V194.545H339.822V200H338.761ZM339.297 193.704C339.112 193.704 338.954 193.642 338.821 193.519C338.691 193.394 338.626 193.245 338.626 193.072C338.626 192.897 338.691 192.747 338.821 192.624C338.954 192.499 339.112 192.436 339.297 192.436C339.482 192.436 339.639 192.499 339.769 192.624C339.902 192.747 339.968 192.897 339.968 193.072C339.968 193.245 339.902 193.394 339.769 193.519C339.639 193.642 339.482 193.704 339.297 193.704ZM341.251 200V194.545H342.277V195.412H342.334C342.433 195.118 342.609 194.888 342.86 194.719C343.113 194.549 343.399 194.464 343.719 194.464C343.785 194.464 343.863 194.466 343.953 194.471C344.046 194.476 344.118 194.482 344.17 194.489V195.504C344.127 195.492 344.052 195.479 343.943 195.465C343.834 195.449 343.725 195.44 343.616 195.44C343.365 195.44 343.141 195.494 342.945 195.6C342.751 195.704 342.597 195.85 342.483 196.037C342.369 196.222 342.313 196.432 342.313 196.669V200H341.251ZM347.191 200.11C346.68 200.11 346.233 199.993 345.852 199.759C345.471 199.524 345.175 199.196 344.964 198.775C344.754 198.353 344.648 197.861 344.648 197.298C344.648 196.732 344.754 196.237 344.964 195.813C345.175 195.389 345.471 195.06 345.852 194.826C346.233 194.592 346.68 194.474 347.191 194.474C347.702 194.474 348.149 194.592 348.53 194.826C348.911 195.06 349.207 195.389 349.418 195.813C349.628 196.237 349.734 196.732 349.734 197.298C349.734 197.861 349.628 198.353 349.418 198.775C349.207 199.196 348.911 199.524 348.53 199.759C348.149 199.993 347.702 200.11 347.191 200.11ZM347.195 199.219C347.526 199.219 347.801 199.131 348.018 198.956C348.236 198.781 348.397 198.548 348.501 198.256C348.608 197.965 348.661 197.644 348.661 197.294C348.661 196.946 348.608 196.626 348.501 196.335C348.397 196.042 348.236 195.806 348.018 195.629C347.801 195.451 347.526 195.362 347.195 195.362C346.861 195.362 346.584 195.451 346.364 195.629C346.146 195.806 345.984 196.042 345.877 196.335C345.773 196.626 345.721 196.946 345.721 197.294C345.721 197.644 345.773 197.965 345.877 198.256C345.984 198.548 346.146 198.781 346.364 198.956C346.584 199.131 346.861 199.219 347.195 199.219ZM351.981 196.761V200H350.919V194.545H351.938V195.433H352.006C352.131 195.144 352.327 194.912 352.595 194.737C352.865 194.562 353.205 194.474 353.614 194.474C353.986 194.474 354.311 194.553 354.591 194.709C354.87 194.863 355.087 195.092 355.241 195.398C355.394 195.703 355.471 196.081 355.471 196.531V200H354.41V196.658C354.41 196.263 354.307 195.954 354.101 195.732C353.895 195.507 353.612 195.394 353.252 195.394C353.006 195.394 352.787 195.447 352.595 195.554C352.406 195.661 352.255 195.817 352.144 196.023C352.035 196.226 351.981 196.473 351.981 196.761ZM356.895 200V194.545H357.915V195.433H357.982C358.096 195.133 358.282 194.898 358.54 194.73C358.798 194.56 359.107 194.474 359.466 194.474C359.831 194.474 360.136 194.56 360.383 194.73C360.631 194.901 360.815 195.135 360.933 195.433H360.99C361.12 195.142 361.327 194.91 361.611 194.737C361.895 194.562 362.234 194.474 362.627 194.474C363.122 194.474 363.525 194.629 363.838 194.94C364.153 195.25 364.31 195.717 364.31 196.342V200H363.248V196.442C363.248 196.072 363.148 195.805 362.947 195.639C362.745 195.473 362.505 195.391 362.226 195.391C361.88 195.391 361.611 195.497 361.42 195.71C361.228 195.921 361.132 196.192 361.132 196.523V200H360.074V196.374C360.074 196.078 359.981 195.84 359.797 195.661C359.612 195.481 359.372 195.391 359.076 195.391C358.875 195.391 358.689 195.444 358.518 195.55C358.35 195.655 358.214 195.8 358.11 195.987C358.008 196.174 357.957 196.391 357.957 196.637V200H356.895ZM368.084 200.11C367.547 200.11 367.084 199.995 366.696 199.766C366.31 199.534 366.011 199.208 365.801 198.789C365.592 198.368 365.488 197.874 365.488 197.308C365.488 196.75 365.592 196.257 365.801 195.831C366.011 195.405 366.305 195.072 366.681 194.833C367.06 194.594 367.503 194.474 368.01 194.474C368.317 194.474 368.616 194.525 368.904 194.627C369.193 194.729 369.453 194.889 369.682 195.107C369.912 195.324 370.093 195.607 370.225 195.955C370.358 196.301 370.424 196.721 370.424 197.216V197.592H366.088V196.797H369.384C369.384 196.518 369.327 196.27 369.213 196.055C369.1 195.837 368.94 195.665 368.734 195.54C368.53 195.414 368.291 195.352 368.017 195.352C367.718 195.352 367.458 195.425 367.235 195.572C367.015 195.716 366.845 195.906 366.724 196.14C366.606 196.372 366.547 196.624 366.547 196.896V197.518C366.547 197.882 366.61 198.192 366.738 198.448C366.868 198.704 367.05 198.899 367.282 199.034C367.514 199.167 367.785 199.233 368.095 199.233C368.296 199.233 368.48 199.205 368.645 199.148C368.811 199.089 368.954 199.001 369.075 198.885C369.196 198.769 369.288 198.626 369.352 198.455L370.357 198.636C370.276 198.932 370.132 199.192 369.924 199.414C369.718 199.634 369.458 199.806 369.146 199.929C368.836 200.05 368.482 200.11 368.084 200.11ZM372.664 196.761V200H371.602V194.545H372.622V195.433H372.689C372.815 195.144 373.011 194.912 373.279 194.737C373.548 194.562 373.888 194.474 374.298 194.474C374.669 194.474 374.995 194.553 375.274 194.709C375.554 194.863 375.77 195.092 375.924 195.398C376.078 195.703 376.155 196.081 376.155 196.531V200H375.093V196.658C375.093 196.263 374.99 195.954 374.784 195.732C374.578 195.507 374.295 195.394 373.936 195.394C373.689 195.394 373.47 195.447 373.279 195.554C373.089 195.661 372.939 195.817 372.828 196.023C372.719 196.226 372.664 196.473 372.664 196.761ZM380.125 194.545V195.398H377.146V194.545H380.125ZM377.945 193.239H379.007V198.398C379.007 198.604 379.037 198.759 379.099 198.864C379.16 198.965 379.24 199.035 379.337 199.073C379.436 199.109 379.544 199.126 379.66 199.126C379.745 199.126 379.82 199.121 379.884 199.109C379.948 199.097 379.997 199.087 380.033 199.08L380.225 199.957C380.163 199.981 380.075 200.005 379.962 200.028C379.848 200.054 379.706 200.069 379.536 200.071C379.256 200.076 378.996 200.026 378.754 199.922C378.513 199.818 378.318 199.657 378.169 199.439C378.019 199.221 377.945 198.948 377.945 198.619V193.239ZM383.946 200V194.545H385.008V200H383.946ZM384.482 193.704C384.298 193.704 384.139 193.642 384.007 193.519C383.876 193.394 383.811 193.245 383.811 193.072C383.811 192.897 383.876 192.747 384.007 192.624C384.139 192.499 384.298 192.436 384.482 192.436C384.667 192.436 384.825 192.499 384.955 192.624C385.087 192.747 385.154 192.897 385.154 193.072C385.154 193.245 385.087 193.394 384.955 193.519C384.825 193.642 384.667 193.704 384.482 193.704ZM390.524 195.877L389.561 196.048C389.521 195.924 389.457 195.807 389.37 195.696C389.284 195.585 389.168 195.494 389.022 195.423C388.875 195.352 388.691 195.316 388.471 195.316C388.171 195.316 387.92 195.384 387.718 195.518C387.517 195.651 387.417 195.823 387.417 196.033C387.417 196.216 387.484 196.362 387.619 196.474C387.754 196.585 387.972 196.676 388.272 196.747L389.139 196.946C389.641 197.062 390.015 197.241 390.261 197.482C390.507 197.724 390.63 198.037 390.63 198.423C390.63 198.75 390.536 199.041 390.346 199.297C390.159 199.55 389.898 199.749 389.561 199.893C389.228 200.038 388.841 200.11 388.4 200.11C387.789 200.11 387.291 199.98 386.905 199.719C386.519 199.457 386.283 199.084 386.195 198.601L387.221 198.445C387.285 198.712 387.417 198.915 387.615 199.052C387.814 199.187 388.074 199.254 388.393 199.254C388.741 199.254 389.019 199.182 389.228 199.038C389.436 198.891 389.54 198.712 389.54 198.501C389.54 198.331 389.476 198.188 389.348 198.072C389.223 197.956 389.03 197.868 388.77 197.809L387.846 197.607C387.337 197.491 386.961 197.306 386.717 197.053C386.475 196.799 386.355 196.478 386.355 196.09C386.355 195.768 386.445 195.487 386.625 195.245C386.805 195.004 387.053 194.815 387.37 194.68C387.688 194.543 388.051 194.474 388.461 194.474C389.05 194.474 389.514 194.602 389.853 194.858C390.191 195.111 390.415 195.451 390.524 195.877ZM394.444 200V194.545H395.506V200H394.444ZM394.98 193.704C394.796 193.704 394.637 193.642 394.505 193.519C394.374 193.394 394.309 193.245 394.309 193.072C394.309 192.897 394.374 192.747 394.505 192.624C394.637 192.499 394.796 192.436 394.98 192.436C395.165 192.436 395.323 192.499 395.453 192.624C395.585 192.747 395.652 192.897 395.652 193.072C395.652 193.245 395.585 193.394 395.453 193.519C395.323 193.642 395.165 193.704 394.98 193.704ZM397.996 196.761V200H396.934V194.545H397.954V195.433H398.021C398.147 195.144 398.343 194.912 398.611 194.737C398.881 194.562 399.22 194.474 399.63 194.474C400.001 194.474 400.327 194.553 400.606 194.709C400.886 194.863 401.102 195.092 401.256 195.398C401.41 195.703 401.487 196.081 401.487 196.531V200H400.425V196.658C400.425 196.263 400.322 195.954 400.116 195.732C399.91 195.507 399.627 195.394 399.268 195.394C399.021 195.394 398.802 195.447 398.611 195.554C398.421 195.661 398.271 195.817 398.16 196.023C398.051 196.226 397.996 196.473 397.996 196.761ZM407.382 194.545L405.404 200H404.268L402.286 194.545H403.426L404.807 198.743H404.864L406.242 194.545H407.382ZM410.545 200.11C410.008 200.11 409.545 199.995 409.157 199.766C408.771 199.534 408.472 199.208 408.262 198.789C408.053 198.368 407.949 197.874 407.949 197.308C407.949 196.75 408.053 196.257 408.262 195.831C408.472 195.405 408.766 195.072 409.142 194.833C409.521 194.594 409.964 194.474 410.471 194.474C410.778 194.474 411.077 194.525 411.365 194.627C411.654 194.729 411.913 194.889 412.143 195.107C412.373 195.324 412.554 195.607 412.686 195.955C412.819 196.301 412.885 196.721 412.885 197.216V197.592H408.549V196.797H411.845C411.845 196.518 411.788 196.27 411.674 196.055C411.561 195.837 411.401 195.665 411.195 195.54C410.991 195.414 410.752 195.352 410.478 195.352C410.179 195.352 409.919 195.425 409.696 195.572C409.476 195.716 409.306 195.906 409.185 196.14C409.067 196.372 409.007 196.624 409.007 196.896V197.518C409.007 197.882 409.071 198.192 409.199 198.448C409.329 198.704 409.511 198.899 409.743 199.034C409.975 199.167 410.246 199.233 410.556 199.233C410.757 199.233 410.94 199.205 411.106 199.148C411.272 199.089 411.415 199.001 411.536 198.885C411.657 198.769 411.749 198.626 411.813 198.455L412.818 198.636C412.737 198.932 412.593 199.192 412.385 199.414C412.179 199.634 411.919 199.806 411.607 199.929C411.297 200.05 410.943 200.11 410.545 200.11ZM414.063 200V194.545H415.09V195.412H415.146C415.246 195.118 415.421 194.888 415.672 194.719C415.925 194.549 416.212 194.464 416.531 194.464C416.598 194.464 416.676 194.466 416.766 194.471C416.858 194.476 416.93 194.482 416.982 194.489V195.504C416.94 195.492 416.864 195.479 416.755 195.465C416.646 195.449 416.537 195.44 416.428 195.44C416.177 195.44 415.954 195.494 415.757 195.6C415.563 195.704 415.409 195.85 415.296 196.037C415.182 196.222 415.125 196.432 415.125 196.669V200H414.063ZM420.77 194.545V195.398H417.79V194.545H420.77ZM418.589 193.239H419.651V198.398C419.651 198.604 419.682 198.759 419.743 198.864C419.805 198.965 419.884 199.035 419.981 199.073C420.081 199.109 420.189 199.126 420.305 199.126C420.39 199.126 420.464 199.121 420.528 199.109C420.592 199.097 420.642 199.087 420.677 199.08L420.869 199.957C420.808 199.981 420.72 200.005 420.606 200.028C420.493 200.054 420.351 200.069 420.18 200.071C419.901 200.076 419.64 200.026 419.399 199.922C419.157 199.818 418.962 199.657 418.813 199.439C418.664 199.221 418.589 198.948 418.589 198.619V193.239ZM424.237 200.11C423.699 200.11 423.236 199.995 422.848 199.766C422.462 199.534 422.164 199.208 421.953 198.789C421.745 198.368 421.641 197.874 421.641 197.308C421.641 196.75 421.745 196.257 421.953 195.831C422.164 195.405 422.457 195.072 422.834 194.833C423.213 194.594 423.655 194.474 424.162 194.474C424.47 194.474 424.768 194.525 425.057 194.627C425.346 194.729 425.605 194.889 425.835 195.107C426.064 195.324 426.245 195.607 426.378 195.955C426.51 196.301 426.577 196.721 426.577 197.216V197.592H422.241V196.797H425.536C425.536 196.518 425.479 196.27 425.366 196.055C425.252 195.837 425.092 195.665 424.886 195.54C424.683 195.414 424.444 195.352 424.169 195.352C423.871 195.352 423.61 195.425 423.388 195.572C423.168 195.716 422.997 195.906 422.876 196.14C422.758 196.372 422.699 196.624 422.699 196.896V197.518C422.699 197.882 422.763 198.192 422.891 198.448C423.021 198.704 423.202 198.899 423.434 199.034C423.666 199.167 423.937 199.233 424.247 199.233C424.448 199.233 424.632 199.205 424.798 199.148C424.963 199.089 425.107 199.001 425.227 198.885C425.348 198.769 425.44 198.626 425.504 198.455L426.509 198.636C426.429 198.932 426.284 199.192 426.076 199.414C425.87 199.634 425.611 199.806 425.298 199.929C424.988 200.05 424.634 200.11 424.237 200.11ZM429.797 200.107C429.356 200.107 428.963 199.994 428.618 199.769C428.274 199.542 428.005 199.219 427.808 198.8C427.614 198.378 427.517 197.873 427.517 197.283C427.517 196.694 427.615 196.19 427.812 195.771C428.01 195.352 428.283 195.031 428.628 194.808C428.974 194.586 429.366 194.474 429.804 194.474C430.142 194.474 430.415 194.531 430.621 194.645C430.829 194.756 430.99 194.886 431.104 195.036C431.22 195.185 431.309 195.316 431.373 195.43H431.437V192.727H432.499V200H431.462V199.151H431.373C431.309 199.267 431.217 199.4 431.096 199.549C430.978 199.698 430.815 199.828 430.606 199.94C430.398 200.051 430.128 200.107 429.797 200.107ZM430.031 199.201C430.336 199.201 430.595 199.121 430.805 198.96C431.018 198.796 431.179 198.57 431.288 198.281C431.399 197.992 431.455 197.656 431.455 197.273C431.455 196.894 431.401 196.562 431.292 196.278C431.183 195.994 431.023 195.773 430.812 195.614C430.602 195.456 430.341 195.376 430.031 195.376C429.711 195.376 429.445 195.459 429.232 195.625C429.019 195.791 428.858 196.017 428.749 196.303C428.643 196.59 428.589 196.913 428.589 197.273C428.589 197.637 428.644 197.965 428.753 198.256C428.862 198.548 429.023 198.778 429.236 198.949C429.451 199.117 429.716 199.201 430.031 199.201Z" fill="black"/>
<path d="M215.646 95.3536C215.842 95.5488 216.158 95.5488 216.354 95.3536L219.536 92.1716C219.731 91.9763 219.731 91.6597 219.536 91.4645C219.34 91.2692 219.024 91.2692 218.828 91.4645L216 94.2929L213.172 91.4645C212.976 91.2692 212.66 91.2692 212.464 91.4645C212.269 91.6597 212.269 91.9763 212.464 92.1716L215.646 95.3536ZM215.5 67L215.5 95L216.5 95L216.5 67L215.5 67Z" fill="black"/>
</svg>
